<svg viewBox="0 0 48 48" xmlns="http://www.w3.org/2000/svg"><g fill="none" fill-rule="evenodd"><path fill="#00529B" d="M0 0h48v48H0z"/><path d="M12.693 26.933l-2.026-.96 8.32-1.066c.16.266.266.48.48.693l-6.774 1.333zm22.4 0l2.027-.96-8.32-1.066c-.053.266-.267.533-.427.746l6.72 1.28zm-1.226.16L31.36 28l-3.573-1.173-.32-.107.32-.32c.16-.107.266-.32.426-.427l5.654 1.12zm6.666-2.506l-2.293 1.12-9.227-1.12c.054-.214.16-.48.214-.694l11.306.694zm.854-.32l3.04-2.027H28.053c0 .747-.106 1.333-.32 1.867-.64 1.706-2.186 2.56-3.786 2.506-1.547-.053-3.147-.906-3.84-2.453-.267-.587-.374-1.173-.374-1.92H3.36l2.987 2.027 12.48-.694c.213.96.693 1.76 1.28 2.4a5.227 5.227 0 003.84 1.707c1.386.053 2.773-.533 3.786-1.707.534-.64.96-1.386 1.174-2.346l12.48.64zm-13.6 5.226l.32.64-.32.16-.854.427-.96-2.027c-.586.214-1.28.374-1.973.374-.747.053-1.493-.054-2.133-.32l-.8 1.973c-.267 0-.64 0-.854-.16-.106-.053-.266-.213-.266-.373l.266-.534.694-1.333c-.214-.16-.427-.267-.587-.48l.587-.747c1.013.64 2.08 1.014 3.146 1.014 1.067.053 2.134-.32 3.147-1.067l.64.213.267.107c-.107.053-.16.16-.267.213-.213.214-.373.427-.693.587l.64 1.333zm0-10.506c.64.8 1.066 1.76 1.333 2.933h-1.067c-.053-.32-.16-.64-.266-.96-.694-1.973-2.134-3.36-3.787-4.48a4.449 4.449 0 01-.64-.427c.213.054.427.16.64.214 1.493.586 2.827 1.493 3.787 2.72zM24.96 26.24a2.477 2.477 0 001.013-.48l-1.653-3.467 1.707-.853-1.44-1.333-.587.266-2.507 1.174.747 1.76 1.173-.587 1.547 3.52zm-4.533.48a.643.643 0 01-.267-.267 2.168 2.168 0 01-.48-.533l-5.707 1.12 2.4.853 4.054-1.173zm-1.547-2.133c-.107-.214-.16-.48-.267-.694L7.2 24.587l2.293 1.173 9.387-1.173z" fill="#FFF" fill-rule="nonzero"/></g></svg>