<svg viewBox="0 0 48 48" xmlns="http://www.w3.org/2000/svg"><defs><linearGradient x1="0%" y1="50.001%" x2="99.885%" y2="50.001%" id="a"><stop stop-color="#6E0E0F" offset="0%"/><stop stop-color="#EC2528" offset="50%"/><stop stop-color="#F79776" offset="100%"/></linearGradient><linearGradient x1="75.266%" y1="108.201%" x2="-24.968%" y2="8.498%" id="b"><stop stop-color="#6E0E0F" offset="0%"/><stop stop-color="#EC2528" offset="50%"/><stop stop-color="#F79776" offset="100%"/></linearGradient><linearGradient x1="124.789%" y1="8.419%" x2="25.247%" y2="108.129%" id="c"><stop stop-color="#6E0E0F" offset="0%"/><stop stop-color="#EC2528" offset="50%"/><stop stop-color="#F79776" offset="100%"/></linearGradient><linearGradient x1="99.823%" y1="50.002%" x2="-.077%" y2="50.002%" id="d"><stop stop-color="#0B183E" offset="0%"/><stop stop-color="#0776BD" offset="50%"/><stop stop-color="#8BB5DA" offset="100%"/></linearGradient><linearGradient x1="-25.133%" y1="91.633%" x2="75.098%" y2="-8.47%" id="e"><stop stop-color="#0B183E" offset="0%"/><stop stop-color="#0776BD" offset="50%"/><stop stop-color="#8BB5DA" offset="100%"/></linearGradient><linearGradient x1="25.172%" y1="-8.439%" x2="124.745%" y2="91.704%" id="f"><stop stop-color="#0B183E" offset="0%"/><stop stop-color="#0776BD" offset="50%"/><stop stop-color="#8BB5DA" offset="100%"/></linearGradient></defs><g fill="none" fill-rule="evenodd"><path fill="#D8D8D8" d="M0 0h48v48H0z"/><path fill="url(#a)" d="M.213 4.373H15.52L7.84 0z" transform="translate(8.533 14.933)"/><path fill="url(#b)" d="M.213 4.373v8.854l7.627 4.426z" transform="translate(8.533 14.933)"/><path fill="url(#c)" d="M7.84 17.653l7.68-4.426V4.373z" transform="translate(8.533 14.933)"/><path fill="url(#d)" d="M15.52 13.227l7.627 4.426 7.68-4.426z" transform="translate(8.533 14.933)"/><path fill="url(#e)" d="M23.147 0L15.52 4.373v8.854z" transform="translate(8.533 14.933)"/><path fill="url(#f)" d="M30.827 13.227V4.373L23.147 0z" transform="translate(8.533 14.933)"/></g></svg>