<svg viewBox="0 0 48 48" xmlns="http://www.w3.org/2000/svg"><g fill="none" fill-rule="evenodd"><path fill="#F2F3F4" d="M0 0h48v48H0z"/><path d="M14.56 13.333a29.676 29.676 0 00-4.373 2.507c-1.28.907-2.4 2.08-2.72 3.307-.32 1.226.16 2.826.8 4.213.64 1.333 1.493 2.773 2.613 4.32-.053-.427-.053-.853.053-1.227.267-1.226 1.28-2.293 2.454-3.2.8-.64 1.76-1.226 2.88-1.813 1.76-.96 3.893-1.813 6.453-2.507 2.56-.693 4.853-1.066 6.827-1.173.053-1.227 0-2.347-.16-3.413-.214-1.387-.64-2.88-1.547-3.68-.32-.267-.64-.48-1.067-.694a40.003 40.003 0 00-6.24 1.227c-2.293.64-4.266 1.333-5.973 2.133" fill="#DC2327"/><path d="M37.28 20.373c.16-1.866.16-3.573 0-5.013-.16-1.547-.587-3.147-1.493-4.053-.907-.907-2.507-1.28-4.054-1.44a27.477 27.477 0 00-5.066.106c.426.16.746.427 1.066.694.907.853 1.334 2.293 1.547 3.68.16 1.013.213 2.133.16 3.413-.053 1.973-.373 4.267-1.067 6.88-.64 2.613-1.44 4.747-2.4 6.507 1.067.64 2.08 1.173 2.987 1.546 1.333.534 2.773.907 4 .534.373-.107.747-.32 1.12-.587.747-1.707 1.44-3.68 2.027-5.973.64-2.347.96-4.427 1.173-6.294" fill="#0F6FAB"/><path d="M19.893 36.48c-1.546-1.067-3.146-2.453-4.853-4.107-1.707-1.653-3.093-3.253-4.213-4.8-.054-.426-.054-.853.053-1.226.267-1.227 1.227-2.134 2.4-3.04.8-.64 1.92-1.227 3.04-1.814 1.067 1.654 2.4 3.36 4.32 5.227 1.92 1.867 3.733 3.307 5.44 4.373 1.067.64 2.08 1.174 2.987 1.547 1.333.533 2.773.907 4 .533.373-.106.746-.32 1.12-.586-.747 1.706-1.547 3.2-2.4 4.373-.907 1.28-2.027 2.507-3.307 2.827-1.28.373-2.827-.107-4.267-.747-1.333-.64-2.773-1.493-4.32-2.56" fill="#B7B7B7"/></g></svg>