<svg version="1.1" id="лого" xmlns="http://www.w3.org/2000/svg" x="0" y="0" viewBox="0 0 48 48" xml:space="preserve"><style>.st110{fill:#e82300}</style><g id="MGNT"><path fill="#f1f2f3" d="M0 0h48v48H0z"/><path class="st110" d="M20.316 38.529c-3.402 0-6.805-.01-10.208.01-.526.004-.711-.143-.69-.681.039-.96.01-1.922.012-2.883.002-.802.004-.802.786-.802 6.363 0 12.726-.003 19.09.002 1.272 0 2.441-.276 3.402-1.166.82-.76 1.376-1.678 1.4-2.813.051-2.42.047-4.843.074-7.265.027-2.432 1.528-4.152 3.867-4.486.397-.056.517.047.516.433-.012 3.806.07 7.615-.04 11.418-.134 4.6-4.037 8.185-8.808 8.225-3.134.026-6.267.005-9.4.005v.003zM9.494 29.476c-.01-.209-.026-.36-.026-.51 0-3.633-.004-7.266.005-10.899a8.67 8.67 0 017.177-8.519 5.95 5.95 0 011.034-.067c6.747-.007 13.494-.007 20.24-.02.442-.002.62.121.608.586a50.378 50.378 0 00.004 3.055c.019.535-.162.677-.692.676-6.4-.017-12.801-.008-19.202-.011-1.105 0-2.137.217-3.037.9-1.283.974-1.79 2.298-1.789 3.87.003 2.25 0 4.498-.027 6.747-.027 2.222-1.794 4.087-3.952 4.206-.093.006-.188-.007-.343-.014z"/><path class="st110" d="M24 26.958l-2.52-2.953-.161.077c-.013.2-.037.4-.037.6-.003 1.441-.014 2.883.006 4.324.007.447-.136.618-.595.6a33.604 33.604 0 00-2.248-.003c-.405.01-.59-.107-.588-.55.013-3.383.011-6.765 0-10.148-.002-.418.136-.59.565-.575.73.023 1.464-.034 2.19.028.298.026.66.204.852.432.721.848 1.385 1.746 2.069 2.625.457.588.46.591.936-.016.688-.876 1.35-1.775 2.072-2.622.193-.226.558-.397.859-.422.725-.06 1.459-.006 2.189-.024.387-.009.548.116.547.528-.011 3.402-.01 6.803 0 10.205 0 .396-.14.55-.54.54a43.574 43.574 0 00-2.364-.004c-.412.012-.528-.157-.525-.545.014-1.46.006-2.921.001-4.382 0-.199-.023-.398-.036-.597L26.507 24l-2.508 2.957z"/></g></svg>