<svg viewBox="0 0 48 48" xmlns="http://www.w3.org/2000/svg"><defs><radialGradient cx="50%" cy="50%" fx="50%" fy="50%" r="50%" id="a"><stop stop-color="#4087C7" offset="0%"/><stop stop-color="#006BB1" offset="100%"/></radialGradient></defs><g fill="none" fill-rule="evenodd"><path fill="url(#a)" d="M0 0h48v48H0z"/><path d="M12.864 14.064l12.661 1.52c.118-.4.347-.741.662-.997L23.072 9.14a14.841 14.841 0 00-10.208 4.923zm25.963 9.963v-.038a14.79 14.79 0 00-2.72-8.57l-6.646.805a1.99 1.99 0 01-.341 1.045l9.53 9.035c.113-.741.177-1.504.177-2.277zm-11.835-9.84L24.896 9.14c4 .251 7.568 2.08 10.096 4.875l-5.68 1.35a2.006 2.006 0 00-1.813-1.238 1.969 1.969 0 00-.507.059zM9.067 23.995c0 .837.074 1.658.208 2.453l16.304-9.584a1.998 1.998 0 01-.112-.507l-13.824-.725a14.775 14.775 0 00-2.576 8.363zm.618 4.24l16.288-10.731c.091.101.192.192.299.272l-9.557 19.216a14.898 14.898 0 01-7.03-8.757zm18.4-10.192c.171-.059.331-.128.48-.23l9.654 10.384a14.915 14.915 0 01-7.083 8.822l-3.05-18.976zm-9.802 19.712l8.666-19.67c.128.032.262.054.395.059l2.155 19.653a14.788 14.788 0 01-5.552 1.072 14.83 14.83 0 01-5.664-1.114z" fill="#FFF" fill-rule="nonzero"/></g></svg>