<svg viewBox="0 0 48 48" xmlns="http://www.w3.org/2000/svg"><g fill="none" fill-rule="evenodd"><path fill="#F2F3F4" d="M0 0h48v48H0z"/><path d="M17.067 38.507h.106c.214.053.427.106.64.106h11.52l-7.573-7.52-2.987 2.987-1.386 1.387-.8.8c-.214.266-.374.586-.374.96 0 .64.32 1.066.854 1.28z" fill="#E95530"/><path d="M16.213 37.28c0-.373.16-.747.374-.96l.8-.8 1.386-1.387 2.987-2.986 1.333-1.334c2.24-2.24 5.44-5.44 10.187-10.133L22.987 9.227l-5.867 5.866c-1.76 1.76-1.493 2.88-1.493 5.227v16.107a2.2 2.2 0 001.44 2.08c-.534-.214-.854-.64-.854-1.227z" fill="#6F21F5"/></g></svg>