<svg xmlns="http://www.w3.org/2000/svg" viewBox="0 0 480 480" shape-rendering="geometricPrecision" text-rendering="geometricPrecision" image-rendering="optimizeQuality" fill-rule="evenodd" clip-rule="evenodd"><defs><linearGradient id="b" gradientUnits="userSpaceOnUse" x1="157.039" y1="152.445" x2="237.756" y2="121.713"><stop offset="0" stop-color="#0fa8e0"/><stop offset=".059" stop-color="#0fa8e0"/><stop offset=".541" stop-color="#0099f9"/><stop offset=".922" stop-color="#0291eb"/><stop offset="1" stop-color="#0291eb"/></linearGradient><linearGradient id="d" gradientUnits="userSpaceOnUse" x1="235.547" y1="118.228" x2="315.543" y2="142.866"><stop offset="0" stop-color="#0291eb"/><stop offset=".051" stop-color="#0291eb"/><stop offset=".788" stop-color="#0c8acb"/><stop offset="1" stop-color="#0c8acb"/></linearGradient><linearGradient id="e" gradientUnits="userSpaceOnUse" x1="151.004" y1="325.252" x2="236.894" y2="357.295"><stop offset="0" stop-color="#f2e913"/><stop offset=".129" stop-color="#f2e913"/><stop offset=".302" stop-color="#ebe716"/><stop offset=".529" stop-color="#d9e01f"/><stop offset=".8" stop-color="#bbd62d"/><stop offset=".98" stop-color="#a3cd39"/><stop offset="1" stop-color="#a3cd39"/></linearGradient><linearGradient id="a" gradientUnits="userSpaceOnUse" x1="151.063" y1="331.878" x2="119.291" y2="240.224"><stop offset="0" stop-color="#f2e913"/><stop offset=".149" stop-color="#f2e913"/><stop offset=".302" stop-color="#e7e518"/><stop offset=".58" stop-color="#cadb26"/><stop offset=".89" stop-color="#a3cd39"/><stop offset="1" stop-color="#a3cd39"/></linearGradient><linearGradient id="f" gradientUnits="userSpaceOnUse" x1="119.457" y1="229.157" x2="153.815" y2="139.949"><stop offset="0" stop-color="#a3cd39"/><stop offset=".071" stop-color="#a3cd39"/><stop offset=".259" stop-color="#81c55f"/><stop offset=".922" stop-color="#0fa8e0"/><stop offset="1" stop-color="#0fa8e0"/></linearGradient><linearGradient id="c" gradientUnits="userSpaceOnUse" x1="232.665" y1="354.472" x2="328.843" y2="332.764"><stop offset="0" stop-color="#a3cd39"/><stop offset=".122" stop-color="#a3cd39"/><stop offset=".29" stop-color="#86c339"/><stop offset=".871" stop-color="#21a038"/><stop offset="1" stop-color="#21a038"/></linearGradient></defs><path fill="#f2f3f4" d="M0 0h480v480H0z"/><path d="M347 158c6 8 12 17 16 26l-123 91-51-32v-39l51 32 107-78z" fill="#21a038"/><path d="M136 240v-5l-31-2v7c0 37 15 71 40 95l22-22c-19-19-31-44-31-73z" fill="url(#a)"/><path d="M240 136c2 0 3 0 5 1l2-31c-2 0-5-1-7-1-37 0-71 15-95 40l22 22c18-19 44-31 73-31z" fill="url(#b)"/><path d="M240 344c-2 0-4 0-5-1l-2 31c2 0 4 1 7 1 37 0 71-15 95-40l-22-22c-19 19-44 31-73 31z" fill="url(#c)"/><path d="M298 155l26-20c-23-18-52-30-85-30v32c22 0 43 6 59 18z" fill="url(#d)"/><path d="M375 240c0-8-1-16-2-24l-29 21v3c0 31-13 58-34 77l21 23c27-25 44-60 44-100z" fill="#21a038"/><path d="M240 344c-31 0-58-14-77-35l-23 21c25 28 60 45 100 45v-31z" fill="url(#e)"/><path d="M170 163l-21-23c-27 25-44 60-44 100h31c0-30 13-58 34-77z" fill="url(#f)"/></svg>