<svg xmlns="http://www.w3.org/2000/svg" viewBox="0 0 48 48"><path fill="#FBDB6E" d="M0 0h48v48H0z"/><path fill="#FFF" d="M20.76 13.21h-.01l.01-.02v.02zm19.8 9.81l.44-1.41-1.46.05c-.12 0-1.02-.03-1.89-.66.07.01.13.02.2.02.9 0 1.76-.54 2.11-1.31l.63-1.39c-.79.01-1.51-.09-1.51-.09-.01 0-.57-.07-1.23-.74-.47-.48-1.05-.73-1.68-.73-.28 0-.52.05-.74.12.03-.11.06-.23.08-.35.2-1.3-.64-2.3-.64-2.3l-1.1-1.36-.68 1.6s-.17.38-.48.56c-.09-.47-.32-1-.81-1.5-.92-.95-2.04-1.09-2.62-1.09-.27 0-.47.03-.51.04l-1.33.26c.08-.3.24-.81.54-1.28l.73-1.14-1.84.21-.59-1.24-1.13.59L24 8.82l-1.05 1.04-1.14-.59-.58 1.24-1.84-.21.73 1.14c.3.46.46.98.54 1.27l-1.26-.25-.04-.01c-.06-.01-.26-.04-.53-.04-.58 0-1.7.14-2.62 1.09-.49.5-.72 1.03-.81 1.5-.31-.18-.48-.55-.48-.55l-.68-1.61-1.12 1.37c-.14.18-.81 1.11-.63 2.29.02.12.05.23.08.34-.21-.07-.46-.12-.73-.12-.63 0-1.21.25-1.68.73-.65.67-1.22.74-1.21.74 0 0-.6.11-1.52.09l.62 1.39c.35.77 1.22 1.31 2.11 1.31.07 0 .13-.01.2-.02-.87.63-1.76.66-1.87.66L7 21.61l.45 1.41c.23.73.98 1.93 2.43 2.06-.16.66-.51 1.4-1.27 1.72l-1.11.46.6 1.05c.34.57 1.14 1.23 2.28 1.23.25 0 .48-.03.71-.07.06.26.13.52.22.78.34 1.01.05 1.71.04 1.72l-.55 1.15 1.22.32c.02 0 .38.11.85.11.21 0 .41-.02.6-.07.14-.03.28-.08.41-.13.16.28.35.54.57.77.78.8 1.89 1.21 3.29 1.21l1-.01-2.07.86 1.57.76c.57.28 1.25.61 1.94.86l-.18.53.54.25c.05.02 1.09.49 2.82.59 0 0 .42.02.65.02.23 0 .64-.02.64-.02 1.72-.1 2.75-.56 2.8-.59l.54-.25-.2-.54c.71-.26 1.41-.6 1.96-.87l1.54-.75-2.06-.86 1.01.01c1.41 0 2.51-.41 3.3-1.21.22-.23.41-.49.57-.77.13.05.27.1.41.13.19.04.39.07.6.07.45 0 .83-.1.84-.1l1.23-.32-.53-1.12c-.01-.03-.31-.73.03-1.74.09-.26.16-.52.22-.78.23.05.47.07.72.07 1.45 0 2.15-1.02 2.28-1.24l.6-1.04-1.11-.47c-.77-.32-1.12-1.06-1.27-1.72 1.43-.12 2.19-1.33 2.43-2.06"/><path fill="#FFF" d="M24 13.14c-1.17 0-2.05.39-2.24.84l2.24.88 2.24-.89c-.18-.44-1.06-.83-2.24-.83m.03 23.44h-.04c-.71 0-1.69-.14-2.16-.28l-.57 1.53c.37.13 1.64.39 2.75.39s2.38-.26 2.75-.39l-.57-1.53c-.47.14-1.45.28-2.16.28m4.29-1.53c-.42.24-1.36.6-1.91.76l.46 1.27c.85-.23 1.55-.5 2.13-.79l-.96-.32.28-.92zm-8.63 0l.28.92-.96.32c.58.29 1.28.56 2.13.79l.46-1.27c-.55-.16-1.49-.52-1.91-.76M24 11.67c.88 0 1.75.21 2.42.58.06-.2.15-.45.26-.71l-.25.03-.26.03-.11-.24-.34-.71-.61.32-.24.12-.19-.19-.68-.66-.67.66-.19.19-.24-.12-.62-.32-.33.71-.11.24-.26-.03-.25-.03c.12.26.2.51.26.71.67-.36 1.53-.58 2.41-.58m13.5 8.24c.11.04.23.06.35.06.5 0 .98-.32 1.15-.69 0 0-.92-.06-1.9-1.06-.31-.32-.65-.42-.93-.42-.44 0-.77.23-.77.23 1.18.63 1.42 1.65 2.1 1.88m-27.34.05c.12 0 .23-.02.34-.06.68-.23.92-1.25 2.11-1.88 0 0-.33-.23-.77-.23-.29 0-.62.1-.93.42-.98 1-1.9 1.06-1.9 1.06.17.37.65.69 1.15.69"/><path fill="#FFF" d="M37.14 27.21c-.92-.45-1.5-1.66-1.64-2.09-.15 2.39-1.32 4.05-2.68 5.65-.71.83-.96 1.63-.96 1.63s.14-.91.75-1.65c1.27-1.53 2.48-3.43 2.57-5.64.06-1.54-.33-2.78-.95-3.81.35 1.07.3 2.38-.87 3.6 0 0 2.33-2.79-.93-5.66-1.3-1.09-2.73-1.76-3.47-2.24 2.66.87 3.95-.09 3.95-.09-.85.74-1.95.72-2.63.62.19.09.38.18.58.3 2.24 1.22 4.25 3.22 4.59 5.99v-.02c.53 2.71 1.69 3.41 1.69 3.41m.68-3.17h.06c1.25 0 1.67-1.34 1.67-1.34h-.02c-.23 0-2.08-.05-3.4-1.72-.86-1.1-1.57-2.06-2.97-2.44l-.14-.02-.02-.14c-.04-.21.11-.41.44-.63 1.93-1.26.62-2.87.62-2.87s-.55 1.29-1.78 1.29h-.09c-.14-.01-.27-.01-.41-.04l-.23-.04s.35-.96-.5-1.83c-.64-.66-1.42-.78-1.86-.78-.23 0-.37.03-.37.03.43.56.73 1.48.24 2.05-.43.49-1.46.51-1.46 1.24 0 .31.29.67.81.99 1.56.98 3.11 2.29 3.75 4.03.8 2.18-.1 3.63-1.4 4.46 0 0 .41.37.99.42.12.01.24.02.35.02 1.24 0 1.89-.58 1.89-.58s-.11.81-.75 1.55c-.6.69-1.38 1.1-2.57 1.11 0 0-.04.55.49 1.03.34.3 1.12.4 1.12.4s-1.46.3-1.63 2.46c-.09 1.17-.39 1.58-.39 1.58h.03c3.4 0 3.31-2.91 3.31-2.91s.24.86 1.18 1.09c.11.03.24.04.35.04.3 0 .57-.07.57-.07s-.5-1.05 0-2.51c.41-1.22.34-2.12.34-2.12s.46.69 1.59.7h.01c.94 0 1.36-.72 1.36-.72-2.26-.94-2.04-3.97-2.04-3.97s.29.22.86.24M15.2 30.76c-1.36-1.6-2.53-3.26-2.69-5.65-.14.43-.72 1.64-1.64 2.09 0 0 1.16-.7 1.68-3.42v.02c.34-2.77 2.36-4.77 4.6-5.99.21-.11.4-.21.58-.3-.68.11-1.78.12-2.63-.62 0 0 1.3.95 3.95.09-.73.48-2.16 1.15-3.47 2.24-3.26 2.86-.93 5.66-.93 5.66-1.17-1.22-1.22-2.53-.87-3.6-.62 1.03-1.01 2.27-.95 3.81.09 2.2 1.3 4.11 2.57 5.64.62.74.75 1.65.75 1.65s-.25-.79-.95-1.62m.54-.52s.78-.1 1.12-.4c.53-.48.49-1.03.49-1.03-1.2-.02-1.98-.42-2.58-1.11-.64-.75-.75-1.55-.75-1.55s.64.58 1.88.58c.11 0 .23-.01.35-.02.59-.05 1-.42 1-.42-1.3-.83-2.2-2.28-1.4-4.46.64-1.75 2.19-3.05 3.75-4.03.52-.32.81-.68.81-.99 0-.73-1.04-.75-1.46-1.24-.49-.57-.18-1.49.24-2.05 0 0-.14-.03-.37-.03-.45 0-1.22.11-1.86.77-.85.88-.5 1.83-.5 1.83l-.23.04c-.14.03-.27.03-.41.04h-.09c-1.24 0-1.78-1.29-1.78-1.29s-1.31 1.61.62 2.87c.33.22.48.42.44.63l-.03.14-.14.02c-1.4.38-2.1 1.34-2.97 2.44-1.31 1.67-3.16 1.72-3.39 1.72h-.03s.42 1.34 1.67 1.34h.06c.57-.02.87-.24.87-.24s.22 3.03-2.04 3.97c0 0 .41.72 1.36.72h.01c1.14-.01 1.59-.7 1.59-.7s-.07.9.34 2.12c.49 1.46 0 2.51 0 2.51s.26.07.57.07c.12 0 .24-.01.35-.04.95-.22 1.18-1.09 1.18-1.09s-.09 2.91 3.31 2.91h.02s-.3-.41-.38-1.58c-.15-2.16-1.62-2.45-1.62-2.45m7.5-10.74h1.6v.55c-.19-.23-.56-.18-.56-.18v.79s.01.39.15.56h-.8c.14-.17.15-.56.15-.56v-.79s-.37-.05-.56.18v-.55h.02zm-1.75.08c.06.06.11.12.16.19.01.02.02.03.04.05.05.06.1.13.15.2.01.01.02.03.03.05.06.09.11.17.16.27.49.85 1.27 1.35 1.97 1.35s1.48-.51 1.97-1.35c.05-.09.11-.19.17-.27.01-.01.02-.02.03-.04l.15-.21c.01-.01.02-.03.03-.04.05-.07.11-.13.17-.19l.03-.03c.25-.26.55-.45.94-.56l-.17-.1h-.02l-.69-.4-.71-.41-1.89 1.03H24l-1.89-1.03-.71.41-.69.4h-.01l-.18.1c.39.11.69.3.94.56.01 0 .02.01.03.02"/><path fill="#FFF" d="M23.4 16.01v.52l-.1-.05s-.15-.04-.4-.24c-.42-.33-.43-.63-.43-.63l.93.4zm.44 2.43v-3.22l-2.05-.69.54 3.12 1.51.79zm.77-2.43l.93-.39s-.01.3-.43.63c-.25.2-.4.23-.4.24l-.1.05v-.53zm1.07 1.63l.54-3.12-2.05.69v3.22l1.51-.79zm-4.74 8.25c.2.07.44.09.57.09 0-.02.01-.03.02-.06l.03-.11c.03-.18.05-.38.05-.51a.808.808 0 01-.27-.28c-.08-.16-.18-.23-.34-.23-.21 0-.43.12-.52.18-.08.44.24.84.46.92m4.53-1.7c-.38.41-1.13 1.13-1.16 1.17l-.04.05-2.35-.04c0 .23-.04.43-.08.58-.01.02-.01.05-.02.07l2.8.5c.29-.2 1.09-.79 1.4-1.02-.23-.33-.25-.72-.2-1-.14-.09-.26-.2-.35-.31"/><path fill="#FFF" d="M25.79 21.36c-.54.54-1.06.74-1.53.78-.08.01-.17.01-.26.01s-.17-.01-.26-.01c-.08-.01-.17-.02-.25-.04-.03.12-.07.37.04.61.1.22.3.38.59.49l.1.04v.11c0 .03.02.72.77.91.12-.13.23-.24.31-.33-.15-.36-.07-.72.15-.9-.01.04-.11.94.61 1.27l.12.06-.04.13c-.01.04-.25.91.62 1.23l.15.06-.07.15c-.02.03-.36.82.45 1.27h1.75v-1.39c-.62-.08-.88-.57-.95-.93-.29-.05-.51-.17-.67-.38-.37-.48-.05-.92-.05-.95 0 0 0 .47.29.76.14.14.31.25.57.27l.13.01.01.13c0 .03.07.66.66.76v-2.83c0-.44.13-.88.28-1.29h-3.52zm-4.7 1.3l-.04 1.8.2.03.5-1.73-.25-.53zm1.09 6.67c-.06 0-.1-.05-.1-.11s.05-.1.11-.1.1.05.1.11c-.01.06-.06.11-.11.1m4.44 1.6c.02 0 .03 0 .05.01.31.09.39 1.21.94 1.31.05.01.1.01.15.01.16 0 .25-.07.35-.19 0 0-.28-.43-.48-.72-.27-.38-.49-.84-.99-.84h-.04c-.17.01-.27.09-.27.09-.21-.13-.4-.17-.57-.17-.32 0-.57.15-.69.15l-1.14-.11c-.18-.02-.32-.2-.37-.27-.01-.02-.02-.03-.02-.03v-.09c-.04-.93-.76-1.33-1.01-1.33 0 0 .03-.18-.04-.24l-.25.3-.82-.41.59.69-.5.56c-.06.06-.05.15-.03.19l.19.16.27-.17c.01-.01.04-.01.07-.01.08 0 .19.02.29.02.11 0 .21-.02.22-.13-.03.34-.35.94-.14 1.41l.16.36-1-.14-.47.79c-.15.26-.17.55-.03.71l.18.22s.25-.26.3-.43l-.08-.09c-.07-.07-.06-.14-.02-.22l.3-.49 1.19.28.04-.11c.08-.13.2-.17.32-.17.05 0 .11.01.16.02.22.04.58.1.95.1.4 0 .79-.07 1-.31.43.64 1.3.74 1.23 1.06l-.23 1.09c.15-.01.3-.02.44-.04l.22-1.14.05-.29c-.08-.09-.29-.27-.4-.48-.15-.3-.07-.45-.21-.83-.01.01.04-.08.14-.08"/><path fill="#FFF" d="M20.56 31.96s.39-.16.43-.28l-.05-.13c-.04-.09-.03-.18.04-.23l.42-.29.71.14s-.13-.16-.12-.38l-.68-.14-.64.39c-.27.2-.29.54-.2.74l.09.18zm5.01 1.85c.13-.01.27-.01.43-.01 0 0 .36-1.07.39-1.1-.2-.09-.63-.32-.79-.42.11.16.37.35.32.49l-.35 1.04z"/><path fill="#FFE777" d="M29.05 27.48H18.96v3.79c0 1.55 1.12 2.52 2.78 2.52 1.38 0 1.75.05 2.26.57.35-.35.65-.49 1.25-.54l.01-.06.32-.98c-.02-.02-.54-.61-.54-.61-.21.07-.38.08-.67.08-.3 0-.64-.03-1-.1-.04-.01-.07-.01-.11-.01-.04 0-.05 0-.06.03l-.06.1-.12.19-.22-.05-.97-.23-.13.22.02.02.12.13-.05.17c-.07.22-.3.48-.37.55l-.24.26-.22-.28-.17-.21c-.17-.2-.21-.49-.12-.81h-.01l-.27.11-.12-.27-.09-.19a.917.917 0 01.31-1.11l.78-.44.74.15c.02-.07.04-.33.07-.39-.01 0-.03-.01-.04-.01l-.43.16-.41-.28s-.16-.16-.01-.31l.4-.6-1.01-1.27 1.55.64.1-.13.21-.25.24.23c.07.06.11.14.12.22.43.17 1.2.66 1.26 1.46l-.24.1v.01c.06.07.1.09.11.09l1.11.11c.03 0 .06-.02.1-.03.14-.05.34-.12.59-.12.2 0 .39.05.58.13a.85.85 0 01.25-.05h.05c.59 0 .89.44 1.13.8l.12.18c.21.29.48.72.49.74l.12.19-.15.17c-.12.13-.29.29-.59.29-.06 0-.13-.01-.2-.02-.06-.01-.12-.03-.18-.05l-.03.19-.19 1.01c1.16-.29 1.9-1.16 1.9-2.42l.02-3.79zm-10.09-.31h7.85c-.39-.4-.39-.92-.29-1.25-.11-.05-.21-.12-.29-.19-.31.23-1.24.91-1.49 1.08l-.05.04-3.08-.56h-.06c-.07 0-.18 0-.3-.02a.29.29 0 01-.29.23h-.05a.284.284 0 01-.2-.12c-.05-.07-.07-.15-.05-.23l.01-.07c-.32-.22-.61-.72-.48-1.25l.01-.06.04-.03c.01 0 .06-.04.14-.09l-.22-.03c-.08-.01-.14-.09-.13-.18.01-.08.09-.14.18-.13l.53.08.05-1.88.79-.84.5 1.04-.52 1.81.47.07c.08.01.14.09.13.18a.15.15 0 01-.15.13h-.02l-.38-.06c.01.01.01.02.02.03.04.08.13.14.18.17l2.35.04c.1-.1.35-.34.6-.59-.58-.22-.79-.72-.82-1.05-.32-.14-.55-.34-.67-.61-.15-.33-.1-.66-.06-.83-.31-.11-.64-.32-.98-.66h-3.54c.15.41.28.85.28 1.29v4.54h-.01z"/><path fill="#110200" d="M22.19 29.13c-.06-.01-.11.04-.11.1 0 .06.04.11.1.11.06 0 .11-.04.11-.1 0-.06-.04-.11-.1-.11m4.68 7.95l-.46-1.27c.55-.17 1.49-.53 1.91-.76l-.28.92.95.32c-.58.29-1.28.56-2.12.79m-2.86 1.14c-1.11 0-2.38-.26-2.75-.39l.57-1.54c.47.14 1.45.28 2.16.28h.04c.71 0 1.69-.14 2.16-.28l.57 1.54c-.38.14-1.65.39-2.75.39m-4.99-1.93l.96-.32-.28-.92c.42.24 1.37.6 1.91.76l-.46 1.27c-.85-.23-1.56-.5-2.13-.79m10.02-.28l-.58-.22.16-.6.18-.65s-1.03.56-2.48.98c-.41.12-.72.17-.72.17v.45s-.78.13-1.56.13h-.05c-.78 0-1.56-.13-1.56-.13v-.45s-.31-.05-.72-.17c-1.45-.42-2.48-.98-2.48-.98l.17.65.16.6-.58.22-.65.24c.74.36 1.77.88 2.71 1.14l-.22.61s1.19.54 3.18.55h.02c1.99-.01 3.18-.55 3.18-.55l-.22-.61c.94-.26 1.97-.78 2.71-1.14l-.65-.24zm-7.46-24.43l.26.03.11-.24.33-.71.62.32.24.12.19-.19.67-.67.67.66.19.19.24-.12.61-.32.34.71.11.24.26-.03.25-.03c-.12.26-.2.51-.26.71-.67-.37-1.53-.58-2.42-.58-.88 0-1.75.21-2.42.58-.06-.2-.15-.45-.26-.71l.27.04zm2.42.47c1.18 0 2.13.39 2.65.81 0 0 .16-.94.69-1.76l-.95.11-.5-1.06-.96.49-.93-.92-.93.92-.96-.49-.5 1.06-.95-.11c.53.82.69 1.76.69 1.76.53-.42 1.47-.81 2.65-.81m15 15.72s-.41.72-1.36.72h-.01c-1.13-.01-1.59-.7-1.59-.7s.07.9-.34 2.12c-.49 1.46 0 2.51 0 2.51s-.27.07-.57.07c-.12 0-.24-.01-.35-.04-.95-.22-1.18-1.09-1.18-1.09s.09 2.91-3.31 2.91h-.03s.3-.41.39-1.58c.16-2.16 1.63-2.46 1.63-2.46s-.78-.1-1.12-.4c-.53-.48-.49-1.03-.49-1.03 1.19-.02 1.98-.42 2.57-1.11.65-.75.75-1.55.75-1.55s-.64.58-1.89.58c-.11 0-.23-.01-.35-.02-.59-.05-.99-.42-.99-.42 1.29-.83 2.2-2.28 1.4-4.46-.64-1.75-2.19-3.05-3.75-4.03-.52-.32-.81-.68-.81-.99 0-.73 1.04-.75 1.46-1.24.49-.57.18-1.49-.24-2.05 0 0 .14-.03.37-.03.45 0 1.23.11 1.86.78.85.88.5 1.83.5 1.83l.23.04c.14.03.27.03.41.04h.09c1.23 0 1.78-1.29 1.78-1.29s1.31 1.61-.62 2.87c-.33.22-.48.42-.44.63l.03.14.14.02c1.4.38 2.1 1.34 2.97 2.44 1.31 1.67 3.17 1.72 3.4 1.72h.02s-.42 1.34-1.67 1.34h-.06c-.57-.02-.87-.24-.87-.24s-.23 3.03 2.04 3.97m-1.12-3.32c1.53 0 2.04-1.56 2.06-1.62l.17-.55-.57.02c-.2 0-1.89-.05-3.09-1.57l-.11-.14c-.78-.99-1.52-1.94-2.85-2.37.04-.03.09-.08.17-.13.7-.46 1.11-1.02 1.22-1.68.15-.98-.48-1.76-.5-1.8l-.43-.53-.27.62c-.02.04-.47 1.04-1.41 1.04h-.07c-.06 0-.13-.01-.19-.01.03-.45-.05-1.14-.67-1.78-.75-.78-1.68-.9-2.16-.9-.26 0-.43.03-.45.03l-.64.13.4.52c.31.4.59 1.15.26 1.54-.11.12-.33.22-.54.32-.43.2-1.03.48-1.03 1.18 0 .46.36.94 1 1.34 1.9 1.2 3.08 2.45 3.59 3.83.79 2.12-.24 3.33-1.23 3.97l-.45.29.39.36c.05.05.53.47 1.24.53.13.01.26.02.38.02.45 0 .84-.07 1.15-.17-.09.15-.19.31-.33.46-.57.66-1.27.96-2.27.97l-.37.01-.03.38c0 .08-.03.77.63 1.36.1.09.22.17.35.23-.45.4-.9 1.1-.99 2.3-.07 1-.31 1.37-.32 1.37l-.41.63.75.01c1.23 0 2.18-.34 2.83-1.01.39-.4.61-.85.74-1.25.21.18.49.34.85.43.14.03.29.05.45.05.35 0 .64-.07.67-.08l.48-.13-.21-.44c-.02-.04-.41-.93.01-2.2.18-.55.28-1.04.32-1.43.3.16.7.29 1.22.29 1.18 0 1.7-.88 1.72-.92l.23-.4-.43-.18c-1.41-.58-1.72-2.15-1.78-3 .13.02.27.05.44.05l.08.01z"/><path fill="#110200" d="M36.16 17.79c.29 0 .62.1.93.42.99 1 1.9 1.06 1.9 1.06-.17.37-.65.69-1.15.69-.12 0-.23-.02-.35-.06-.68-.23-.92-1.25-2.11-1.88.01.01.34-.23.78-.23m-.97.6c.57.3.9.71 1.19 1.07.29.35.56.69.98.83.15.05.31.08.48.08.64 0 1.28-.39 1.52-.93l.24-.54-.59-.04c-.03 0-.79-.07-1.64-.94-.35-.36-.77-.54-1.22-.54-.55 0-.97.28-1.01.31l-.54.38.59.32zm.27 5.4v.02c-.34-2.77-2.35-4.77-4.59-5.99-.21-.11-.4-.21-.58-.3.68.11 1.78.12 2.63-.62 0 0-1.3.95-3.95.09.73.48 2.16 1.15 3.47 2.24 3.26 2.86.93 5.66.93 5.66 1.17-1.22 1.22-2.53.88-3.6.62 1.03 1.01 2.27.95 3.81-.09 2.2-1.3 4.11-2.57 5.64-.61.74-.75 1.65-.75 1.65s.25-.81.95-1.63c1.36-1.6 2.53-3.26 2.68-5.65.14.43.72 1.64 1.64 2.09-.01.01-1.17-.69-1.69-3.41M17.73 34.27c-3.4 0-3.31-2.91-3.31-2.91s-.24.86-1.18 1.09c-.11.03-.23.04-.35.04-.31 0-.57-.07-.57-.07s.49-1.05 0-2.51c-.41-1.21-.34-2.12-.34-2.12s-.46.69-1.59.7h-.01c-.94 0-1.36-.72-1.36-.72 2.26-.94 2.04-3.97 2.04-3.97s-.29.22-.87.24h-.06c-1.25 0-1.67-1.34-1.67-1.34h.03c.23 0 2.08-.05 3.39-1.72.86-1.1 1.57-2.06 2.97-2.44l.14-.02.03-.14c.04-.21-.11-.41-.44-.63-1.93-1.26-.62-2.87-.62-2.87s.55 1.29 1.78 1.29h.09c.14-.01.28-.01.41-.04l.23-.04s-.35-.96.5-1.83c.64-.66 1.41-.77 1.86-.77.23 0 .37.03.37.03-.42.56-.73 1.48-.24 2.05.43.49 1.46.51 1.46 1.24 0 .31-.29.67-.81.99-1.56.98-3.11 2.29-3.75 4.03-.8 2.18.1 3.63 1.4 4.46 0 0-.41.37-1 .42-.12.01-.24.02-.35.02-1.24 0-1.88-.58-1.88-.58s.11.81.75 1.55c.6.69 1.38 1.1 2.58 1.11 0 0 .04.55-.49 1.03-.34.3-1.12.4-1.12.4s1.46.3 1.63 2.46c.09 1.17.38 1.58.38 1.58h-.03v-.01zm.36-.23s-.24-.37-.31-1.37c-.09-1.2-.54-1.9-.99-2.3.13-.06.25-.14.35-.23.66-.59.63-1.29.63-1.36l-.03-.38-.38-.01c-1-.02-1.7-.32-2.27-.97a3.29 3.29 0 01-.33-.46c.31.1.7.17 1.15.17.12 0 .25-.01.38-.02.71-.06 1.18-.48 1.24-.53l.39-.36-.45-.29c-1-.64-2.02-1.85-1.23-3.97.51-1.38 1.68-2.63 3.59-3.83.64-.41 1-.89 1-1.34 0-.71-.59-.99-1.02-1.18-.21-.1-.43-.2-.54-.32-.34-.39-.05-1.13.26-1.54l.4-.52-.65-.13c-.02 0-.19-.03-.45-.03-.48 0-1.4.12-2.16.9-.63.65-.71 1.34-.68 1.78-.06 0-.12.01-.19.01h-.07c-.94 0-1.39-1-1.41-1.04l-.27-.62-.43.53c-.02.03-.65.81-.5 1.8.1.65.51 1.21 1.21 1.68.08.05.13.09.17.13-1.33.43-2.07 1.38-2.85 2.37l-.11.14c-1.19 1.52-2.89 1.57-3.09 1.57l-.58-.02.18.55c.02.07.53 1.62 2.06 1.62h.07c.16 0 .31-.03.44-.05-.06.85-.38 2.42-1.78 3l-.43.18.23.4c.02.04.54.92 1.73.92.52 0 .92-.13 1.22-.29.05.38.14.88.32 1.43.43 1.27.03 2.17.01 2.2l-.21.44.48.13c.03.01.33.08.67.08.16 0 .31-.02.45-.05.36-.09.64-.25.85-.43.13.4.35.85.74 1.25.66.67 1.6 1.01 2.83 1.01l.75-.01-.39-.64z"/><path fill="#110200" d="M10.91 18.21c.32-.32.65-.42.93-.42.44 0 .77.23.77.23-1.19.63-1.44 1.65-2.12 1.88-.11.04-.23.06-.34.06-.5 0-.98-.32-1.15-.69.01 0 .93-.06 1.91-1.06m-.75 2.16c.16 0 .32-.02.48-.08.43-.14.7-.48.98-.83.29-.36.62-.77 1.19-1.07l.59-.31-.55-.38c-.05-.03-.45-.31-1.01-.31-.46 0-.88.19-1.23.54-.85.87-1.61.93-1.63.94l-.58.03.24.54c.24.54.88.93 1.52.93m2.67 4.74c-.06-1.54.33-2.78.95-3.81-.34 1.07-.3 2.38.88 3.6 0 0-2.33-2.79.93-5.66 1.3-1.09 2.73-1.76 3.47-2.24-2.65.87-3.95-.09-3.95-.09.85.73 1.94.72 2.63.62-.18.09-.38.18-.58.3-2.24 1.22-4.25 3.22-4.6 5.99v-.02c-.52 2.72-1.68 3.42-1.68 3.42.92-.45 1.5-1.66 1.64-2.09.15 2.39 1.32 4.05 2.69 5.65.71.83.96 1.63.96 1.63s-.14-.91-.75-1.65c-1.29-1.55-2.5-3.45-2.59-5.65m10.41-5.61v.55c.19-.23.56-.18.56-.18v.79s-.01.39-.15.56h.8c-.14-.17-.15-.56-.15-.56v-.79s.37-.05.56.18v-.55h-1.62zm-.34-3.26c.25.2.4.23.4.24l.1.05v-.52l-.93-.39s.01.3.43.62m2.21 0c.42-.33.43-.63.43-.63l-.93.39v.52l.1-.05c0 .01.15-.03.4-.23"/><path fill="#110200" d="M24 14.87l-2.24-.89c.19-.45 1.07-.84 2.24-.84 1.17 0 2.05.39 2.24.84l-2.24.89zm1.68 2.77l-1.51.79v-3.22l2.05-.69-.54 3.12zm.93.86l.69.4h.01l.17.1c-.39.11-.69.3-.94.56l-.03.03c-.06.06-.11.13-.17.19-.01.01-.02.03-.03.04l-.15.21c-.01.01-.02.03-.03.04-.06.09-.11.18-.17.27-.49.85-1.27 1.35-1.97 1.35s-1.48-.51-1.97-1.35c-.05-.09-.11-.18-.16-.27-.01-.02-.02-.03-.03-.05-.05-.07-.1-.14-.15-.2-.01-.02-.02-.03-.04-.05-.05-.07-.11-.13-.16-.19l-.03-.03c-.25-.26-.55-.45-.94-.56l.17-.1h.01l.69-.4.71-.41L24 19.12h.01l1.89-1.03.71.41zm2.72 2.86c-.15.41-.28.85-.28 1.29v2.83c-.59-.1-.66-.74-.66-.76l-.01-.13-.13-.01a.856.856 0 01-.57-.27c-.29-.29-.29-.76-.29-.76 0 .02-.32.47.05.95.15.2.38.33.67.38.07.35.33.85.95.93v1.39H27.3c-.8-.45-.46-1.24-.45-1.27l.07-.15-.15-.06c-.87-.32-.63-1.19-.62-1.23l.04-.13-.12-.06c-.72-.33-.62-1.23-.61-1.27-.22.18-.3.55-.15.9-.08.09-.19.21-.31.33a.97.97 0 01-.77-.91v-.11l-.1-.04c-.29-.11-.49-.27-.59-.49a.947.947 0 01-.04-.61c.09.02.17.03.25.04.08.01.17.01.26.01H24h.01c.09 0 .17-.01.26-.01.46-.05.98-.25 1.53-.78h3.53zM27.15 33.7l.2-1.02.03-.19c.06.02.11.04.18.05.07.01.14.02.2.02.3 0 .47-.16.59-.29l.15-.17-.12-.19c-.01-.02-.28-.45-.49-.74-.04-.06-.08-.11-.12-.18-.24-.35-.53-.8-1.13-.8h-.05c-.1.01-.18.03-.25.05-.19-.09-.38-.13-.58-.13-.25 0-.45.07-.59.11-.04.01-.07.02-.1.03l-1.11-.11c-.01 0-.06-.03-.11-.09v-.01l.24-.1c-.07-.8-.84-1.29-1.26-1.46a.477.477 0 00-.12-.22l-.24-.23-.21.25-.1.13-1.55-.64 1.01 1.27-.4.6c-.15.15.02.31.02.31l.41.28.43-.16c.01 0 .03 0 .04.01-.02.06-.05.32-.07.39l-.74-.15-.78.44a.93.93 0 00-.31 1.11l.09.19.12.27.27-.11h.01c-.1.31-.06.61.12.81l.17.21.22.28.24-.26c.07-.07.3-.33.37-.55l.05-.17-.12-.13-.02-.02.13-.22.97.23.22.05.12-.19.06-.1c.01-.02.01-.03.06-.03.03 0 .07 0 .11.01.37.07.7.1 1 .1.29 0 .46-.01.67-.08 0 0 .52.59.54.61l-.32.98-.01.06c-.6.05-.9.18-1.25.54-.52-.51-.88-.56-2.26-.56-1.66 0-2.78-.97-2.78-2.52v-3.79h10.09v3.79c-.04 1.26-.78 2.14-1.94 2.43m-6.22-2.15l.05.13c-.03.11-.43.28-.43.28l-.08-.19c-.09-.2-.07-.53.2-.74l.64-.39.68.14c-.01.21.12.38.12.38l-.71-.14-.42.29c-.08.06-.08.15-.05.24m6.11 1.07l-.22 1.13c-.14.02-.29.03-.44.04l.23-1.09c.07-.32-.8-.43-1.23-1.06-.21.24-.61.31-1 .31-.36 0-.72-.06-.95-.1-.06-.01-.11-.02-.16-.02-.13 0-.24.04-.32.17l-.06.11-1.19-.28-.3.49c-.04.08-.04.15.02.22l.08.09c-.06.17-.3.43-.3.43l-.18-.22c-.14-.16-.12-.44.03-.71l.47-.79 1 .15-.16-.36c-.21-.47.11-1.07.14-1.41-.01.1-.11.13-.22.13-.1 0-.21-.02-.29-.02-.03 0-.06 0-.07.01l-.25.16-.21-.19c-.03-.04-.03-.12.03-.19l.5-.56-.59-.69.82.41.25-.3c.07.07.04.24.04.24.26.01.98.4 1.01 1.33v.09s.01.01.02.03c.05.07.19.25.37.27l1.14.11c.12 0 .37-.15.69-.15.17 0 .37.04.57.17 0 0 .1-.08.27-.09h.04c.51 0 .72.46 1 .84.21.29.48.72.48.72-.1.12-.2.19-.35.19-.04 0-.09 0-.15-.01-.55-.1-.63-1.22-.94-1.31-.02 0-.03-.01-.05-.01-.1 0-.14.09-.14.09.14.38.06.54.21.83.11.22.32.4.4.48.01.03-.01.2-.04.32M26 33.8c-.15 0-.29 0-.42.01l.33-1.04c.05-.14-.21-.33-.32-.49.16.1.59.33.79.42-.02.03-.38 1.1-.38 1.1m-4.95-9.34l.05-1.8.4-.43.25.53-.5 1.73-.2-.03zm.29.56c.07.14.18.23.27.28 0 .13-.02.33-.05.51-.01.04-.02.08-.03.11-.01.02-.01.04-.02.06-.12 0-.37-.02-.57-.09-.22-.08-.55-.48-.47-.93.1-.06.32-.18.52-.18.16 0 .27.08.35.24m4.68.48c-.31.23-1.11.81-1.4 1.02l-2.8-.5c.01-.03.01-.05.02-.07.04-.15.07-.34.08-.58l2.35.04.04-.05c.04-.04.78-.76 1.16-1.17.09.11.2.22.35.32-.05.27-.02.66.2.99m-3.8-4.14c.34.33.67.54.98.66-.04.16-.09.49.06.83.12.27.35.47.67.61.03.33.24.83.82 1.05-.25.26-.5.5-.6.59l-2.35-.04a.478.478 0 01-.18-.17c0-.01-.01-.02-.02-.03l.38.06H22c.07 0 .14-.05.15-.13a.163.163 0 00-.13-.18l-.47-.07.52-1.81-.49-1.04-.79.84-.05 1.88-.53-.08c-.08-.02-.16.04-.18.13-.01.08.04.16.13.18l.22.03c-.08.05-.13.08-.14.09l-.04.03-.01.06c-.13.53.16 1.03.48 1.25l-.01.07c-.01.08.01.16.05.23.05.07.12.11.2.12h.05c.14 0 .26-.09.29-.23.12.01.23.02.3.02h.06l3.08.56.05-.03c.25-.17 1.18-.85 1.49-1.08.08.07.18.14.29.19-.1.33-.11.85.29 1.25h-7.85v-4.53c0-.44-.13-.88-.28-1.29h3.54v-.02zm-.43-6.84l2.05.69v3.22l-1.51-.79-.54-3.12zm5-.38c0-.78-1.32-1.49-2.78-1.49-1.46 0-2.78.71-2.78 1.49l.03.19.58 3.34-.58.34-1.51.88h.01s-.34.17-.5.28c-.58.4-.7.98-.36 1.23.08-.48.46-.97 1.16-.97.51 0 .89.26 1.21.65.08.1.16.21.23.32.09.14.18.27.26.39h-3.9c.29.58.56 1.19.56 1.85v8.63c0 2.09 1.61 3.09 3.34 3.09 1.34 0 1.52-.06 2.26.68.74-.74.92-.68 2.26-.68 1.74 0 3.34-1 3.34-3.09v-8.63c0-.66.27-1.27.56-1.85h-3.9c.09-.12.17-.25.26-.39.07-.11.15-.22.23-.32.31-.39.7-.65 1.21-.65.7 0 1.08.5 1.16.97.33-.24.21-.83-.37-1.23-.16-.11-.5-.28-.5-.28h.01l-1.52-.88-.58-.34.58-3.34.03-.19z"/></svg>