<svg viewBox="0 0 48 48" xmlns="http://www.w3.org/2000/svg"><g fill="none" fill-rule="evenodd"><path fill="#173D68" d="M0 0h48v48H0z"/><g fill="#FFF"><path d="M12.853 9.227h22.24v29.44h-22.24V9.227zm.96 1.066v25.494c-.106.426-.053.853 0 1.28h-.053v.586h20.267v-25.12c-3.894 2.4-7.787 4.8-11.68 7.254-.587.373-1.067 1.066-1.014 1.813.107.64.587 1.12 1.014 1.547.8.8 1.6 1.546 2.453 2.293.373.32.693.8.64 1.333-.107.534-.533.907-.96 1.174-1.12.746-2.24 1.44-3.36 2.186.267-.693.32-1.493-.267-2.026-1.173-1.12-2.346-2.24-3.573-3.307-.587-.533-1.013-1.387-.747-2.187.267-.96 1.174-1.546 2.027-2.08 5.173-3.093 10.293-6.24 15.467-9.333v-.907c-6.72 0-13.44-.053-20.214 0z" fill-rule="nonzero"/><path d="M30.4 23.36c-.96-.853-1.92-1.76-2.88-2.667-.427-.373-.853-.746-.96-1.333 0-.373.107-.8.16-1.173-1.227.8-2.453 1.493-3.627 2.346-.586.32-.96 1.067-.586 1.707.48.747 1.226 1.227 1.813 1.813.693.747 1.547 1.334 2.027 2.24.426.8-.054 1.76-.8 2.24l-11.84 7.36v1.28c5.226-3.146 10.453-6.346 15.786-9.493.8-.48 1.654-1.12 1.867-2.08.213-.8-.32-1.707-.96-2.24z"/></g></g></svg>