<svg viewBox="0 0 48 48" xmlns="http://www.w3.org/2000/svg"><g fill="none" fill-rule="evenodd"><path fill="#F2F3F4" d="M0 0h48v48H0z"/><path d="M13.867 25.067a14.676 14.676 0 00-.64-2.347 14.803 14.803 0 00-1.014-2.187c-.32-.48-.853-.746-1.44-.64-.533.107-1.333.32-2.346.694a21.283 21.283 0 00-2.24.96c-.48.266-.8.853-.694 1.44.107.533.267 1.333.64 2.346a14.803 14.803 0 001.014 2.187c.32.48.853.747 1.44.64.533-.107 1.333-.32 2.346-.693 1.014-.374 1.76-.694 2.24-.96.48-.32.747-.854.694-1.44" fill="#EE312F"/><path d="M22.56 21.28c-.48-.213-1.28-.533-2.293-.8-1.014-.267-1.814-.427-2.347-.48-.587-.053-1.12.213-1.387.747-.266.48-.533 1.28-.853 2.293a11.031 11.031 0 00-.48 2.4 1.29 1.29 0 00.8 1.333c.48.214 1.227.534 2.293.8 1.014.267 1.814.427 2.4.48.587.054 1.12-.213 1.387-.746.267-.48.533-1.28.853-2.294.267-1.013.427-1.813.48-2.4 0-.586-.32-1.12-.853-1.333" fill="#FFC20E"/><path d="M32.96 25.067c-.107-.534-.267-1.334-.64-2.347a14.803 14.803 0 00-1.013-2.187c-.32-.48-.854-.746-1.44-.64-.534.107-1.334.32-2.347.694-1.013.373-1.76.693-2.24.96-.48.266-.8.853-.693 1.44.106.533.266 1.333.64 2.346a14.803 14.803 0 001.013 2.187c.32.48.853.747 1.44.64.533-.107 1.333-.32 2.347-.693 1.013-.374 1.76-.694 2.24-.96.533-.32.8-.854.693-1.44" fill="#50B848"/><path d="M41.707 21.28c-.48-.213-1.28-.533-2.294-.8-1.013-.267-1.813-.427-2.346-.48-.587-.053-1.12.213-1.387.747-.267.48-.533 1.28-.853 2.293a11.031 11.031 0 00-.48 2.4 1.29 1.29 0 00.8 1.333c.48.214 1.28.534 2.293.8 1.013.267 1.813.427 2.4.48.587.054 1.12-.213 1.387-.746.266-.48.533-1.28.853-2.294.267-1.013.427-1.813.48-2.4 0-.586-.32-1.12-.853-1.333" fill="#00B0F0"/></g></svg>