<svg viewBox="0 0 48 48" xmlns="http://www.w3.org/2000/svg"><g fill="none" fill-rule="evenodd"><path fill="#284287" d="M0 0h48v48H0z"/><path d="M21.813 6.827c.107.106.214.213.32.266-.106.16-.213.267-.32.427v-.693zm-3.786 6.88c-.16.48-.32 1.013-.534 1.493.267-.32.48-.693.747-1.067l4.16-5.92c.213-.213 0-.48 0-.693a439.345 439.345 0 00-4.373 6.187zm-5.174 8.853c3.2-4.533 6.4-9.067 9.654-13.6-.107.747-.534 1.387-.907 2.027-2.293 3.253-4.587 6.453-6.88 9.706-.64.854-1.227 1.76-1.867 2.56-.053-.16-.106-.266-.16-.426 0-.107.107-.214.16-.267zm13.76-10.187c.587-.853 1.174-1.706 1.76-2.506-.053.533-.213 1.066-.586 1.493-.267.427-.747.747-1.174 1.013zm-8.533.427a3.688 3.688 0 011.973-2.773c-.64.906-1.28 1.866-1.973 2.773zm8.533-1.973c-.906 1.28-1.813 2.613-2.72 3.893h.534l3.04-4.32c-.32.107-.694.107-.854.427zm-11.733-.32c.053.16.107.266.16.426.053-.106.16-.213.213-.32a.77.77 0 00-.373-.106zm10.56.373c.16-.213.427-.16.64-.213-.96 1.333-1.867 2.666-2.827 4.053-.16 0-.373 0-.533.053a247.66 247.66 0 002.72-3.893zm-9.76-.053c-.16.266-.32.48-.48.746-.053.267-.053.48-.053.747.266-.32.48-.64.693-1.013 0-.054.107-.16.107-.214-.054-.106-.16-.16-.267-.266zm8.533.266c.16-.213.48-.16.694-.213a183.602 183.602 0 01-2.827 4c-.213.107-.427.107-.64.213.907-1.333 1.867-2.666 2.773-4zm7.734 1.494c.373-.587.746-1.174 1.226-1.707 0 .747-.533 1.493-1.226 1.707zm-9.12-.8c.16-.267.48-.48.746-.587-.746 1.173-1.6 2.293-2.4 3.467-.16.213-.32.48-.533.693-.213.107-.48.213-.747.32.64-.96 1.387-1.867 2.027-2.827.107.054.213.054.373.107.267-.373.267-.853.534-1.173zm7.626-.214c-.213.267-.426.587-.64.854-.693 1.066-1.493 2.026-2.186 3.093.106.053.266.107.373.16.96-1.387 1.973-2.773 2.933-4.16-.106 0-.32-.053-.48.053zm1.12-.053c-1.013 1.493-2.08 2.933-3.093 4.427.107.053.213.16.373.213.427-.64.907-1.28 1.387-1.92.16-.267.213-.587.427-.8.213-.213.426-.373.64-.64.266-.373.533-.8.853-1.173-.267-.107-.427-.107-.587-.107zM14.72 13.707c-.32.48-.48 1.066-.64 1.6.8-1.067 1.547-2.187 2.347-3.254l-.16-.48c-.534.694-1.014 1.44-1.547 2.134zm14.613-1.974c-.213.054-.32.32-.48.48a139.713 139.713 0 01-2.08 2.934c.16.053.267.106.427.16.853-1.227 1.76-2.454 2.613-3.68-.16 0-.32.053-.48.106zM17.76 17.12c1.227-1.707 2.453-3.467 3.68-5.227l.16.48c0 .107-.107.214-.16.267-.747 1.067-1.547 2.08-2.24 3.2-.16.32-.48.533-.8.747-.213.16-.427.373-.64.533zm8.16-2.24c.16.053.267.107.427.107.693-.96 1.386-1.92 2.026-2.88-1.066.64-1.76 1.76-2.453 2.773zm-11.893 1.387c-.214.266-.16.586-.16.906.906-1.226 1.76-2.453 2.666-3.68.16-.213.054-.533.054-.8-.907 1.174-1.707 2.4-2.56 3.574zm10.88-1.547l1.12-1.6c.106.107.16.213.266.32-.32.427-.64.907-.96 1.333-.106 0-.266 0-.426-.053zm6.026-.747c.107-.266.427-.213.694-.266-.694.96-1.387 1.92-2.027 2.933-.107-.053-.213-.16-.373-.213.586-.8 1.12-1.6 1.706-2.454zm1.28-.266c.16.053.32.053.427.106-.213.32-.427.694-.693.96-.214.214-.32.48-.48.747-.427.587-.8 1.173-1.227 1.76l-.32-.32c.747-1.067 1.493-2.187 2.293-3.253zm.64.64c.107-.107.16-.214.267-.32.107.053.213.16.32.213-.213 0-.373.053-.587.107zM14.187 17.6c-.16.16-.107.427-.107.64-.107-.053-.213-.107-.32-.107-.693 1.014-1.44 2.027-2.133 3.04.106.107.16.267.266.374 1.44-2.027 2.827-4.054 4.32-6.08.267-.32.214-.747.267-1.12-.8 1.066-1.547 2.186-2.293 3.253zm-3.307-.8c.16-.747.533-1.44 1.013-2.027 0 .214 0 .427-.053.64-.32.534-.64.96-.96 1.387zm25.92-1.92a2 2 0 01.533.053c-.853 1.227-1.706 2.4-2.56 3.627h-.533l2.56-3.68zm-1.28.267l-3.36 4.8c.053.16.16.32.213.426l3.84-5.44c-.266.054-.533 0-.693.214zm2.293-.16c-.8 1.173-1.653 2.346-2.453 3.52.267-.054.587-.054.747-.32.693-1.067 1.44-2.08 2.186-3.094-.16-.053-.32-.053-.48-.106zm-3.466.32c.213-.107.426-.107.586-.16l-3.04 4.32c-.106-.107-.16-.267-.266-.374.8-1.066 1.546-2.186 2.346-3.253.16-.213.214-.373.374-.533zm4.426-.107l-1.92 2.72c.48-.373 1.014-.693 1.334-1.173.32-.48.64-.907.96-1.387-.107-.053-.214-.107-.374-.16zm-15.893.213c.373.694.693 1.44 1.067 2.134.426-.694.746-1.44 1.12-2.134-.694-.106-1.44-.053-2.187 0zm10.027.32c.16-.266.48-.213.746-.266-.746 1.066-1.493 2.08-2.24 3.146-.106-.106-.16-.266-.266-.373.586-.8 1.173-1.653 1.76-2.507zm6.773-.213c.107.053.267.107.373.16-.106.16-.213.373-.373.48-.213.107-.427.16-.64.213.213-.32.427-.586.64-.853zm-19.36.64c.8 1.227 1.6 2.453 2.453 3.68.214-.48.48-.907.694-1.387.053-.106 0-.213-.054-.266-.48-.854-.906-1.76-1.333-2.614-.587.107-1.173.32-1.76.587zm5.547-.64c.64.16 1.226.373 1.76.64-.8 1.227-1.654 2.453-2.454 3.68-.213-.427-.426-.8-.64-1.227-.053-.106-.16-.266-.053-.373.427-.907.907-1.813 1.387-2.72zm6.133.107c.16 0 .32.053.48.053l-1.6 2.24c-.107-.107-.213-.213-.267-.32.374-.533.747-1.013 1.12-1.547.054-.16.107-.32.267-.426zm8.427.266c.106.054.213.16.266.214h-.426c.106-.054.16-.16.16-.214zM16.373 16c-.8 1.12-1.6 2.293-2.4 3.413-.586.854-1.226 1.654-1.76 2.56.107.107.16.267.267.374 1.44-2.08 2.933-4.107 4.373-6.187-.213-.053-.32-.107-.48-.16zm-4.48.16c.054.16.16.32.16.48-.053.107-.16.213-.213.32l-1.12 1.6c0-.267-.107-.533.053-.747.374-.586.747-1.066 1.12-1.653zm6.027 1.813l3.68 4.16c.267-.48.533-1.013.747-1.493-.907-1.333-1.814-2.72-2.72-4.053-.587.373-1.227.8-1.707 1.386zm10.027-.906C27.2 18.24 26.4 19.36 25.653 20.48c-.106.107 0 .267.054.373.213.427.426.8.64 1.227l3.68-4.16c-.48-.533-1.12-1.013-1.76-1.387-.107.16-.214.32-.32.534zm-15.627.053c.107.107.213.16.32.267-.587.8-1.12 1.653-1.707 2.453-.053-.213-.16-.373-.106-.587.48-.746 1.013-1.44 1.493-2.133zm-1.12 3.093c-.16.214.107.427.16.587.693-.96 1.387-1.92 2.027-2.88-.107-.053-.267-.16-.374-.213-.586.8-1.226 1.653-1.813 2.506zm4.48 2.454c-.16 1.28 0 2.56.427 3.733.373 1.12 1.013 2.133 1.813 2.987 1.12-2.187 2.24-4.427 3.413-6.614-.16-.16-.266-.32-.426-.48a220.734 220.734 0 01-3.414-3.84c-1.013 1.227-1.653 2.72-1.813 4.214zm14.88-4.16c1.44 1.813 2.08 4.266 1.707 6.56-.267 1.6-1.014 3.146-2.134 4.32-1.12-2.187-2.293-4.427-3.413-6.614 1.28-1.386 2.56-2.826 3.84-4.266zm2.08 2.293c.533-.693 1.013-1.44 1.547-2.187.106.107.16.214.266.374a99.93 99.93 0 01-1.76 2.506c-.053-.266-.213-.48-.053-.693zm2.187-1.6c.106-.16.373-.053.533-.053-.427.693-.907 1.333-1.387 1.973-.373.533-.746 1.013-1.12 1.547 0-.214-.106-.427-.053-.64.693-.96 1.387-1.867 2.027-2.827zm-11.574 1.333c.267-.426.48-.906.747-1.386.213.48.48.906.693 1.386-.266.374-.48.694-.693 1.067-.267-.373-.48-.693-.747-1.067zm12.64-1.28c.16 0 .32.054.48.107-.373.533-.746 1.12-1.12 1.653-.213 0-.373.054-.586.054.426-.64.853-1.227 1.226-1.814zm.107 1.44c.213-.373.533-.746.8-1.12.107.107.213.16.267.267-.48.053-.747.533-1.067.853zm-22.773 2.88c-.267.267-.16.64-.16 1.014.693-1.014 1.493-2.027 2.133-3.094.16-.426.267-.853.427-1.333-.8 1.12-1.6 2.293-2.4 3.413zm19.893-.426c-.267.266-.16.64-.16 1.013.267-.32.48-.64.693-.96.427-.587.854-1.173 1.28-1.813l-.32-.32c-.48.693-.96 1.386-1.493 2.08zM22.88 21.28c-.267.48-.48.907-.693 1.387.213.266.426.48.64.693.266-.373.48-.747.746-1.12-.266-.32-.48-.64-.693-.96zm1.6.907c.16-.32.373-.587.587-.907.266.48.48.907.746 1.387-.213.213-.426.48-.64.693-.266-.373-.533-.693-.746-1.067 0-.053.053-.106.053-.106zm10.72-.427a105.317 105.317 0 01-2.133 3.04c-.32.373-.32.853-.427 1.28.587-.8 1.12-1.6 1.707-2.4.426-.587.8-1.12 1.173-1.707-.053-.053-.213-.106-.32-.213zm-2.88 5.653c-.427.587-.8 1.28-1.28 1.867-.427.48-.8 1.067-1.173 1.6-.96 1.333-1.867 2.667-2.827 4 .107.107.16.267.267.373 2.986-4.266 6.026-8.48 9.013-12.746-.107-.054-.213-.16-.373-.214-1.227 1.707-2.4 3.414-3.627 5.12zm-19.84-1.28l.32.32c.693-.96 1.387-1.92 2.027-2.826.213-.32.16-.694.16-1.014-.854 1.174-1.654 2.347-2.507 3.52zm24.213-3.413c-3.306 4.693-6.613 9.333-9.866 14.027-.32.426-.48.96-.587 1.493 2.88-4.053 5.76-8.107 8.587-12.16.213-.213 0-.587.213-.8.16-.16.48-.107.587-.267.48-.693.96-1.386 1.44-2.026-.107-.16-.214-.214-.374-.267zm-13.386 1.227c.213-.32.426-.694.693-1.014.267.32.48.694.693 1.067-.213.267-.48.48-.693.747-.267-.267-.48-.534-.693-.8zM36 25.28c.533-.747 1.013-1.493 1.6-2.24.16.053.267.107.427.16-.534.747-1.067 1.547-1.654 2.347-.16-.054-.266-.16-.373-.267zm2.453-1.92c.16.053.32.107.427.16-.587.853-1.227 1.707-1.813 2.507l-.32-.16c.48-.907 1.173-1.654 1.706-2.507zm-16.693.053c.213.214.373.427.587.587-.96 1.387-1.867 2.827-2.827 4.213-.267.427-.533.854-.853 1.28 1.013-2.026 2.08-4.053 3.093-6.08zM25.6 24l1.6 2.4c.693 1.013 1.333 2.027 2.08 3.04-1.013-2.027-2.08-4-3.093-6.027-.214.16-.374.374-.587.587zm-17.707-.48c.107.053.214.107.32.107l-.16.16c0-.054-.106-.214-.16-.267zm2.987.267c.16-.16.427-.16.64-.16-.427.64-.907 1.333-1.387 1.92-.106-.054-.266-.107-.373-.16.373-.48.747-1.067 1.12-1.6zm28.427-.107c-.587.853-1.174 1.707-1.814 2.507.16 0 .32.053.48.053.587-.8 1.12-1.6 1.707-2.4-.107-.053-.213-.107-.373-.16zm-27.254.053c-.48.64-.96 1.334-1.44 1.974.16.053.32.053.48.053.427-.64.907-1.227 1.334-1.867a2.6 2.6 0 01-.374-.16zm-3.36.054c.16.053.267.053.427.106-.16.214-.32.427-.427.694l-.32-.32c.107-.214.214-.32.32-.48zm.96.16l-.64.96c.107.106.214.16.32.266.32-.373.587-.8.854-1.226h-.534zm30.454.16a53.604 53.604 0 00-1.547 2.133c.213-.053.533 0 .64-.213.427-.587.853-1.12 1.227-1.76-.054 0-.16-.107-.32-.16zm-29.654 6.506c1.494-2.133 2.987-4.32 4.534-6.453 0 .267.106.64-.107.853-1.333 1.867-2.613 3.68-3.947 5.547-.16.053-.32.053-.48.053zm1.174-4.746c.373-.534.746-1.12 1.12-1.654.053.16.32.32.16.48-.267.427-.587.8-.854 1.227-.16 0-.266 0-.426-.053zm11.2-1.28c.213.213.426.48.64.693-1.387 1.6-2.827 3.2-4.267 4.8 1.227-1.867 2.453-3.68 3.627-5.493zm2.293 0c-.213.213-.427.48-.64.693 1.387 1.6 2.88 3.2 4.267 4.853a198.312 198.312 0 00-3.627-5.546zm15.68.053l.32.32-.8 1.12h-.533c.373-.48.693-.96 1.013-1.44zm0 1.547c.16.053.267.053.427.106.106-.16.266-.373.373-.533-.053-.16-.16-.267-.213-.427-.16.32-.374.587-.587.854zM11.573 30.56a293.992 293.992 0 013.574-5.067c.053.16.106.32.106.534-.053.16-.16.213-.213.373-.96 1.333-1.867 2.667-2.88 4-.107.267-.427.107-.587.16zm8 .267c1.44-1.654 2.934-3.307 4.427-4.96 1.493 1.653 2.987 3.306 4.427 4.96-2.027 1.28-4.64 1.653-6.934.906-.64-.266-1.333-.533-1.92-.906zm22.134-4.32c.053-.054.106-.16.16-.214.053.107.053.214.106.32-.106-.053-.213-.053-.266-.106zm-6.987.64c.213-.267.373-.587.587-.854.106.107.213.16.373.267-.16.267-.373.48-.533.747-.214-.054-.32-.107-.427-.16zm-22.027 3.36l2.72-3.84.16.48c-.746 1.12-1.6 2.186-2.346 3.36-.16-.054-.32-.054-.534 0zm23.254-3.574c.106.107.16.214.266.32-.106.214-.266.374-.373.587a.86.86 0 00-.373-.213c.16-.267.32-.48.48-.694zm-24.214.267c-.8 1.12-1.546 2.187-2.346 3.307.16 0 .32.053.48.053a199.6 199.6 0 012.56-3.573c-.214 0-.48.053-.694.213zm4.107.427c.053.16.16.266.213.426-.586.8-1.12 1.6-1.706 2.347h-.48c.64-.907 1.28-1.867 1.973-2.773zm-6.027.746c-.426.64-.853 1.227-1.28 1.867.16.053.267.107.427.16.373-.64.853-1.227 1.28-1.813.16-.267.373-.534.587-.8-.374.16-.8.213-1.014.586zm26.347-.213c.107-.16.16-.267.267-.427v.694l-.267-.267zm-30.187-.32c.107.053.214.107.267.16l-.16.16c0-.107-.053-.213-.107-.32zm28.16.107c-.693.96-1.386 1.92-2.026 2.933-.534.747-1.067 1.547-1.6 2.293.16 0 .32.054.48.107.213-.373.533-.693.746-1.12.054-.267 0-.533.107-.8.16-.213.427-.267.64-.267l1.92-2.72a4.92 4.92 0 01-.267-.426zm-27.466.213c.16.053.266.107.426.16-.16.213-.266.427-.426.587-.107-.107-.16-.214-.267-.32.107-.16.213-.267.267-.427zm1.866.427c.16-.214.427-.16.694-.214-.374.534-.747 1.12-1.174 1.654-.106-.054-.266-.16-.373-.214.32-.426.587-.8.853-1.226zm-.906-.16a8.138 8.138 0 00-.587.853c.107.107.213.16.32.267.267-.374.533-.694.8-1.067-.213 0-.373-.053-.533-.053zm8.693.053c.053.107.16.267.213.373l-1.12 1.6c-.16 0-.32-.053-.48-.053.427-.64.907-1.28 1.387-1.92zm18.4.16c.107.107.373.267.213.427l-1.92 2.72c-.053-.16-.16-.267-.213-.427.587-.907 1.28-1.76 1.92-2.72zm-17.867.64c.107.107.16.213.267.373l-.8 1.12c-.107-.053-.267-.106-.373-.16.266-.48.586-.906.906-1.333zm17.867.907c.16-.267.373-.534.533-.747.054.16.16.32.16.48-.16.32-.426.64-.64.96-.533.693-1.013 1.493-1.546 2.187-.054-.214-.107-.374-.054-.587.48-.8 1.014-1.547 1.547-2.293zm-18.027.8c0 .213.107.426.054.64.32-.48.64-.907.96-1.387-.107-.107-.214-.16-.32-.267-.214.32-.48.64-.694 1.014zm1.387-.427l-2.24 3.2c.213-.053.533-.053.693-.267a47.85 47.85 0 001.867-2.666c-.107-.054-.213-.16-.32-.267zm15.36 2.987c.64-.96 1.333-1.92 2.027-2.88 0 .266-.054.48-.107.746-.053.214-.213.374-.32.534-.48.64-.907 1.333-1.387 1.973-.053-.107-.106-.267-.213-.373zm-14.667-2.4c.107.053.214.16.374.213l-1.12 1.6c-.16.32-.534.427-.907.533.587-.8 1.12-1.6 1.653-2.346zm10.347 0c-.8 1.173-1.653 2.346-2.453 3.52h-.534c.694-.96 1.334-1.867 2.027-2.827.213-.32.64-.48.96-.693zm-9.6.48c-.32.426-.64.853-.96 1.333.16 0 .373-.053.533-.053.267-.374.534-.747.747-1.067-.053-.107-.16-.16-.32-.213zm.107 1.333c.106.053.266.16.373.16.267-.32.48-.693.747-1.013-.107-.054-.267-.107-.374-.16-.266.373-.48.693-.746 1.013zm-4.16-.213c.32-.214.693-.427.96-.694-.32.427-.64.854-.907 1.28-.107.16-.213.32-.373.427-.16.053-.32.053-.48.053.266-.32.533-.693.8-1.066zm11.146-.32c.214-.214.48-.214.747-.32a75.383 75.383 0 00-1.813 2.56c-.694.906-1.28 1.866-1.974 2.773l-.16-.48c.8-1.227 1.707-2.4 2.56-3.627.214-.32.427-.64.64-.906zm-5.386-.107c-1.44 1.973-2.827 4-4.267 6.027.267-.054.64 0 .747-.267 1.333-1.867 2.613-3.733 3.946-5.6-.16-.107-.32-.107-.426-.16zm4.16.32c-.107.107-.214.213-.267.373-.267.427-.587.8-.8 1.174-.053.213-.107.426-.213.586-.16.214-.32.427-.427.64a1.64 1.64 0 00-.16.694c.853-1.174 1.707-2.4 2.507-3.574-.267 0-.48.054-.64.107zm-3.574.373c.107-.16.214-.32.32-.426.16 0 .32 0 .427.053-.587.907-1.227 1.76-1.867 2.613-.533.747-1.013 1.494-1.6 2.24-.213.267-.586.374-.906.534a231.32 231.32 0 003.626-5.014zm12.214 1.227c.373-.533.746-1.067 1.12-1.653 0 .213.053.426 0 .64-.214.426-.534.8-.8 1.226-.054-.053-.16-.106-.32-.213zm-10.934-1.547h.534c-1.014 1.44-2.027 2.934-3.414 4.107.267-.427.587-.8.854-1.227.693-.96 1.386-1.92 2.026-2.88zm1.12.054c-.266.32-.48.693-.746 1.013.16-.053.373-.053.533-.053.213-.32.48-.64.693-.96-.16-.054-.32 0-.48 0zm6.88 1.013c.214-.373.48-.693.747-1.013 0 .64-.427 1.173-.853 1.653.053-.213 0-.427.106-.64zm-17.013-.64c-.16.16-.267.373-.373.587.16 0 .373.16.533-.054.16-.266.373-.48.533-.746-.266.106-.48.16-.693.213zm-1.173.213c.16-.053.373-.053.533-.106-.053.106-.16.213-.213.32-.107-.054-.214-.107-.32-.214zm5.013 2.134c.533-.8 1.173-1.6 1.973-2.08a408.126 408.126 0 00-3.52 5.013c-.16 0-.32 0-.533-.053.693-1.014 1.387-1.92 2.08-2.88zm8.373 3.52c1.334-1.814 2.614-3.68 3.894-5.494-.054.267.106.64-.107.907a301.52 301.52 0 00-3.627 5.12c-.053-.16-.106-.373-.16-.533zm8.48-4.32c.214-.32.48-.587.694-.907.053.16.16.267.213.427-.107.213-.32.426-.427.64l-.48-.16zm1.227-.16c.107.106.213.213.267.32h-.534c.107-.107.214-.214.267-.32zm-9.28 5.44c1.12-1.6 2.24-3.2 3.413-4.8-.106.48-.32.906-.586 1.333-.747 1.333-1.707 2.507-2.56 3.787-.054-.107-.16-.214-.267-.32zm-11.36-2.4c-.16.16-.267.373-.427.586.16.054.32.054.427.107.213-.32.48-.64.693-.96-.213.053-.48.107-.693.267zm8.427.426c.053-.213.213-.32.32-.48l-.16.96c-.054-.16-.16-.32-.16-.48zm-9.654-.213c.16-.053.374-.053.534-.107-.054.107-.107.16-.16.267-.107-.053-.267-.107-.374-.16zm13.227 2.827c.107.053.213.16.32.213.16-.267.373-.48.48-.747.053-.213 0-.48 0-.693-.267.427-.533.853-.8 1.227zm.96.16c.053.16.107.266.16.426a.989.989 0 00-.373-.106c.106-.107.16-.214.213-.32z" fill="#FFF" fill-rule="nonzero"/></g></svg>