<svg xmlns="http://www.w3.org/2000/svg" xmlns:xlink="http://www.w3.org/1999/xlink" viewBox="0 0 12.7 12.7"><defs><path id="a" d="M314.167 7.783h140.198v151.88H314.167z"/><path id="c" d="M913.268 10.771h205.134V157.76H913.268z"/></defs><path fill="#065ef0" stroke-opacity="0" stroke-width=".07" d="M0 0h12.7v12.7H0z"/><g fill="#fff" data-name="Group 190"><path d="M.67 7.16v-.869H.496v-.296h.176v-.04c0-.314.167-.434.477-.434.018 0 .132.009.132.009l.243.02v.293l-.185-.015-.058-.003c-.103 0-.126.062-.126.132l.003.038h.313v.296h-.307v.87m.488-1.177h.48V7.16h-.48zm0-.428h.48v.313h-.48zm.591.024l.524 1.58h.41l.51-1.58h-.39l-.245.834-.24-.835"/><g transform="translate(.155 5.463) scale(.01078)"><clipPath id="b"><use width="100%" height="100%" overflow="visible" xlink:href="#a"/></clipPath><path d="M385.082 41.475c13.04 0 18.203 9.508 18.203 23.909v1.357h-36.407v-1.629c0-16.03 7.879-23.637 18.204-23.637m-.544-33.692c-47.82 0-70.371 40.485-70.371 77.708 0 38.309 23.096 74.717 72.816 74.717 38.581 0 60.59-22.552 67.11-51.895l-47.548-3.534c-1.631 11.14-7.337 17.934-19.29 17.934-14.944 0-20.106-10.053-20.106-23.365v-4.076h86.944v-8.424c.001-37.494-18.747-79.065-69.555-79.065z" clip-path="url(#b)"/></g><path d="M6.074 6.522h.237c.111 0 .193.05.193.147 0 .053-.047.137-.164.137h-.266v-.284m0-.603h.213c.12 0 .185.038.185.135a.133.133 0 01-.14.132h-.235zm-.469-.34v1.582h.808c.252 0 .384-.05.469-.14a.478.478 0 00.114-.317c0-.223-.164-.334-.33-.366a.346.346 0 00.286-.343.4.4 0 00-.114-.28c-.088-.086-.176-.136-.401-.136zM7.078 7.16V5.58h1.248v.363h-.747v.23h.606v.352h-.606v.258h.747v.378m.152-.001V5.58h.512v1.19h.65v.39"/><path d="M9.54 5.787c.092 0 .188.07.188.179 0 .1-.079.182-.19.182a.185.185 0 01-.188-.179c0-.097.08-.182.19-.182m-.002-.246a.435.435 0 00-.445.425c0 .24.196.428.448.428.21 0 .445-.159.445-.428 0-.234-.2-.425-.448-.425z"/><g transform="translate(.155 5.463) scale(.01078)"><clipPath id="d"><use width="100%" height="100%" overflow="visible" xlink:href="#c"/></clipPath><path d="M913.268 10.771l41.025 146.718h41.57l20.106-81.781 21.466 81.781h39.939l41.027-146.718h-36.408l-21.463 85.314-22.822-85.041-37.225-.273-21.194 85.314-21.463-85.314" clip-path="url(#d)"/></g></g></svg>