<svg viewBox="0 0 48 48" xmlns="http://www.w3.org/2000/svg"><g fill="none" fill-rule="evenodd"><path fill="#1279BF" d="M0 0h48v48H0z"/><g fill="#FFF"><path d="M29.76 10.933c-.693-3.04-2.4-5.493-2.667-5.866-.373.586-1.76 2.72-2.453 5.12-.747 2.666-.853 5.066-.64 7.413.267 2.347 1.227 4.747 1.227 4.747.533 1.28 1.333 2.613 1.813 3.253.747-.96 2.507-3.893 3.04-7.68.373-2.133.373-4-.32-6.987zm-2.667 13.92c-.32-.64-.853-1.866-.906-3.733 0-1.813.693-3.36.906-3.68.214.32.8 1.653.907 3.52.053 1.813-.533 3.253-.907 3.893zm2.454-8.8c0 1.174-.16 2.347-.32 3.094.053-1.28-.107-3.04-.374-4.427-.266-1.387-1.12-3.68-1.76-4.747-.586 1.014-1.333 2.987-1.706 4.747-.374 1.707-.427 3.84-.427 4.427-.107-.534-.373-2.4-.267-4.32.054-1.547.427-3.2.64-3.894.747-2.453 1.654-4.053 1.814-4.266.16.266 1.226 2.186 1.813 4.213.533 2.027.64 4 .587 5.173z" fill-rule="nonzero"/><path d="M28.267 26.293H23.04v3.52a3.187 3.187 0 014.48 0 3.187 3.187 0 010 4.48c-1.227 1.227-2.827 1.814-4.427 1.814-1.6 0-3.253-.587-4.48-1.867a6.321 6.321 0 01-.8-8c.214-.32.48-.64.8-.96a6.299 6.299 0 014.48-1.867V15.04c-6.186 0-11.253 5.013-11.253 11.253 0 6.187 5.013 11.254 11.253 11.254 3.254 0 6.134-1.387 8.214-3.574v-7.68h-3.04"/></g></g></svg>