<svg version="1.1" id="лого" xmlns="http://www.w3.org/2000/svg" x="0" y="0" viewBox="0 0 48 48" xml:space="preserve"><style>.st98{fill-rule:evenodd;clip-rule:evenodd;fill:#626261}</style><g id="GMKN"><path fill="#f1f2f3" d="M0 0h48v48H0z"/><path class="st98" d="M23.627 32.815v-2.183h-1.312v4.306h1.217l1.422-2.164v2.164h1.313v-4.306H25.05l-1.422 2.183zm-7.569-.442c0 .157-.08.459-.48.459h-.465v-1.14h.522c.14 0 .423.115.423.45v.23zm-.282-1.74h-2.049v4.305h1.386v-1.057h.663c.897 0 1.63-.493 1.63-1.372v-.504c0-.879-.733-1.373-1.63-1.373zm19.623 2.278c0 .655-.173.75-.42.864-.109.05-.4.04-.4.04v1.123h.542c1.166 0 1.597-.678 1.614-2.198.004-.344-.003-.682 0-.984h.778v3.182h1.385v-4.306h-3.5v2.279zm-23.533.579a.52.52 0 01-.519.518h-.118a.52.52 0 01-.519-.518v-1.397a.52.52 0 01.52-.518h.117a.52.52 0 01.519.518v1.397zm-.238-2.928h-.68c-.895 0-1.629.638-1.629 1.63v1.201c0 .996.734 1.63 1.63 1.63h.679c.896 0 1.63-.64 1.63-1.63v-1.202c0-1.043-.734-1.63-1.63-1.63zm19.202.07h-1.5l-.73 1.628h-.342v-1.628h-1.386v4.306h1.386v-1.53h.34l.748 1.53h1.59l-1.175-2.173 1.069-2.133zm1.717 2.672h1.561V32.28h-1.561v-.524h1.703v-1.124h-3.088v4.306h3.215v-1.123h-1.83v-.51zm8.785.574h-.522v-.94h.465c.391 0 .48.287.48.474a.437.437 0 01-.423.466zm.142-1.99h-.664v-1.256h-1.385v4.306h2.049c.896 0 1.63-.494 1.63-1.373v-.303c0-.88-.734-1.374-1.63-1.374zm-21.15.338H19.14v-1.594h-1.385v4.306h1.385v-1.53h1.183v1.53h1.385v-4.306h-1.385v1.594zm-12.86 0H6.282v-1.594H4.896v4.306h1.386v-1.53h1.182v1.53h1.385v-4.306H7.464v1.594z"/><path fill-rule="evenodd" clip-rule="evenodd" fill="#005799" d="M20.398 21.538l6.46 4.357v-8.561l-6.46-4.357z"/><path d="M26.857 12.977v12.918a6.46 6.46 0 000-12.918zm-12.918 6.46a6.459 6.459 0 006.46 6.458V12.977a6.459 6.459 0 00-6.46 6.46z" fill-rule="evenodd" clip-rule="evenodd" fill="#0080c5"/><path class="st98" d="M23.627 32.815v-2.183h-1.312v4.306h1.217l1.422-2.164v2.164h1.313v-4.306H25.05l-1.422 2.183zm-7.569-.442c0 .157-.08.459-.48.459h-.465v-1.14h.522c.14 0 .423.115.423.45v.23zm-.282-1.74h-2.049v4.305h1.386v-1.057h.663c.897 0 1.63-.493 1.63-1.372v-.504c0-.879-.733-1.373-1.63-1.373zm19.623 2.278c0 .655-.173.75-.42.864-.109.05-.4.04-.4.04v1.123h.542c1.166 0 1.597-.678 1.614-2.198.004-.344-.003-.682 0-.984h.778v3.182h1.385v-4.306h-3.5v2.279zm-23.533.579a.52.52 0 01-.519.518h-.118a.52.52 0 01-.519-.518v-1.397a.52.52 0 01.52-.518h.117a.52.52 0 01.519.518v1.397zm-.238-2.928h-.68c-.895 0-1.629.638-1.629 1.63v1.201c0 .996.734 1.63 1.63 1.63h.679c.896 0 1.63-.64 1.63-1.63v-1.202c0-1.043-.734-1.63-1.63-1.63zm19.202.07h-1.5l-.73 1.628h-.342v-1.628h-1.386v4.306h1.386v-1.53h.34l.748 1.53h1.59l-1.175-2.172 1.069-2.134zm1.717 2.672h1.561V32.28h-1.561v-.524h1.703v-1.124h-3.088v4.306h3.215v-1.123h-1.83v-.51zm8.785.574h-.522v-.94h.465c.391 0 .48.287.48.474a.437.437 0 01-.423.466zm.142-1.99h-.664v-1.256h-1.385v4.306h2.049c.896 0 1.63-.494 1.63-1.373v-.303c0-.88-.734-1.374-1.63-1.374zm-21.15.338H19.14v-1.594h-1.385v4.306h1.385v-1.53h1.183v1.53h1.385v-4.306h-1.385v1.594zm-12.86 0H6.282v-1.594H4.896v4.306h1.386v-1.53h1.182v1.53h1.385v-4.306H7.464v1.594z"/></g></svg>