<svg xmlns="http://www.w3.org/2000/svg" xmlns:xlink="http://www.w3.org/1999/xlink" viewBox="0 0 48 48"><defs><linearGradient id="b" x1="-1141.85" y1="48.77" x2="-1141.94" y2="48.18" gradientTransform="matrix(8.7 0 0 -5.47 9954.08 301.47)" gradientUnits="userSpaceOnUse"><stop offset="0" stop-color="#ffa039"/><stop offset="1" stop-color="#ff8036"/></linearGradient><linearGradient id="a" x1="-1187.94" y1="48.73" x2="-1187.24" y2="48.4" gradientTransform="matrix(12.56 0 0 -9.17 14948.97 474.92)" gradientUnits="userSpaceOnUse"><stop offset="0" stop-color="#ffa039"/><stop offset="1" stop-color="#ff7436"/></linearGradient><linearGradient id="c" x1="-1187.24" y1="48.66" x2="-1188.09" y2="48.41" gradientTransform="matrix(12.57 0 0 -9.17 14942.17 464.84)" xlink:href="#a"/><linearGradient id="e" x1="-1141.77" y1="48.81" x2="-1141.89" y2="48.33" gradientTransform="matrix(8.69 0 0 -5.41 9955.45 275.85)" xlink:href="#b"/><radialGradient id="d" cx="-1244.09" cy="48.71" r="1" gradientTransform="matrix(27.96 0 0 -27.96 34813.64 1380.87)" gradientUnits="userSpaceOnUse"><stop offset="0" stop-color="#589bd0"/><stop offset=".05" stop-color="#5897cb"/><stop offset=".3" stop-color="#0060ac"/><stop offset=".55" stop-color="#001e5c"/><stop offset=".63" stop-color="#002f6b"/><stop offset=".76" stop-color="#0071b7"/><stop offset=".88" stop-color="#4a92cb"/><stop offset="1" stop-color="#4e93cb"/></radialGradient></defs><g data-name="Слой 2"><g data-name="Слой 1"><path fill="#f1f2f3" d="M0 0h48v48H0z"/><path d="M18.91 33.91a1.65 1.65 0 01.42-.27 36.14 36.14 0 014.86 2.61A5.2 5.2 0 0126 38a5.08 5.08 0 00-1.18.91c-.05 0-.05.11-.1.16a11 11 0 01-6.35-1.55 2.16 2.16 0 01-1-1.17 1.14 1.14 0 01.05-.85 4.33 4.33 0 011.49-1.59z" fill="url(#b)" fill-rule="evenodd"/><path d="M33.25 27.29a24.85 24.85 0 003.36-1.86 6.19 6.19 0 012.19 2.24 2.37 2.37 0 010 2.08v.16c-.16.26-.38.53-.54.8a12 12 0 01-2.5 2.08c-1 .69-2 1.22-3.1 1.81a7.1 7.1 0 00-2.34-2.35 29.07 29.07 0 00-3.79-2c2.24-.98 4.54-1.89 6.72-2.96z" fill="url(#a)" fill-rule="evenodd"/><path d="M16.56 16.2c.48-.32 1-.53 1.55-.85l-.06.05a4 4 0 00.95 1.17 13.29 13.29 0 002.88 2 18.72 18.72 0 002.35 1.12 9.53 9.53 0 00-1.34.59c-1.49.64-3 1.28-4.53 2a37.08 37.08 0 00-4.27 2.24 7.67 7.67 0 01-2-1.92 2.63 2.63 0 01-.38-1.76c.06-.27.16-.48.22-.69a9.78 9.78 0 01.9-1.28 18.49 18.49 0 013.73-2.67z" fill="url(#c)" fill-rule="evenodd"/><path d="M23.17 10.81a24.34 24.34 0 012.83-.1v.21a.12.12 0 01-.11.11 4.74 4.74 0 01-1.17.9c-2.19 1.23-4.43 2.24-6.67 3.42a13.46 13.46 0 00-1.54.85 18.2 18.2 0 00-3.74 2.67 4.24 4.24 0 00-.9 1.28 13.56 13.56 0 014.05-5.87 14 14 0 017.25-3.47zm-9.12 13.71c-.21.16-.48.32-.69.48a5.48 5.48 0 00-1.76 1.92 2.08 2.08 0 00-.16 1.39 15.53 15.53 0 001.76 4.26 15 15 0 003.57 4 16.5 16.5 0 001.55 1 2.16 2.16 0 01-1-1.17 1.14 1.14 0 01.05-.85A4 4 0 0119 34a2 2 0 01.43-.27 44.1 44.1 0 016.24-3 8.09 8.09 0 001-.43c2.24-1 4.53-1.87 6.72-2.93a27.46 27.46 0 003.36-1.87 7.58 7.58 0 002.4-2.24 1.86 1.86 0 00.21-1.49 14.13 14.13 0 00-3.41-6.46 12.83 12.83 0 00-3.42-2.66 3 3 0 011 1.06 1.1 1.1 0 01-.16 1 5.84 5.84 0 01-1.92 1.7c-.42.27-.9.54-1.38.8l-.91.43c-1.6.8-3.25 1.44-4.91 2.13a10.71 10.71 0 00-1.33.59c-1.49.64-3 1.28-4.53 2a22.89 22.89 0 00-4.34 2.16zm12.48 13.12c1.5-.8 3-1.55 4.54-2.24l1.6-.8a31.27 31.27 0 003.09-1.81 11.77 11.77 0 002.51-2.08 8.49 8.49 0 00.53-.8 2 2 0 01-.21.58 14.57 14.57 0 01-4.43 5.87 16 16 0 01-9.28 2.93c-.16 0-.27-.1-.21-.26s0-.11.1-.16A4.83 4.83 0 0126 38a6 6 0 01.53-.36zm12.27-7.79c0-.05.05-.1.05-.16l.06.06-.06.05z" fill="url(#d)"/><path d="M26 11c.05-.06.05-.11.1-.11a11.42 11.42 0 014.43.69 14.79 14.79 0 012 .91 3.19 3.19 0 011 1.07 1.14 1.14 0 01-.16 1 6 6 0 01-1.92 1.71 34.28 34.28 0 01-4.7-2.51 5.2 5.2 0 01-1.86-1.87A4.43 4.43 0 0026 11z" fill="url(#e)" fill-rule="evenodd"/></g></g></svg>