<svg xmlns="http://www.w3.org/2000/svg" viewBox="0 0 48 48"><defs><style>.cls-2{fill:#ff8831;fill-rule:evenodd}</style></defs><g id="Слой_2" data-name="Слой 2"><g id="лого"><g id="IRAO"><g id="g12"><path fill="#f1f2f3" d="M0 0h48v48H0z"/><path id="path14" class="cls-2" d="M41.27 24.85A15.44 15.44 0 0039 23.59a11.5 11.5 0 01-1.37-1 12.74 12.74 0 00-2.08-1.86 2.5 2.5 0 01.39-.22c.66-.28 1.4-.29 2-.58-.82-1.22-2.25-1.06-3.18-1.93a7.47 7.47 0 001.83 0c1-.1 1.18-.46 1.67-1.19a2.08 2.08 0 01.5-.52c.76-.51 2.72-.27 3.58-.27a9.12 9.12 0 00-2.82-1.25c-3.39-.41-4.69.77-6.93-.36-.25-.09 1.09-.9 1.9-.93A5 5 0 0033 13a3.12 3.12 0 00-2 .82 1.51 1.51 0 01.68-1.53c.38-.25 1.16-.42 1.45-.63a2.74 2.74 0 00.69-1.11 5.6 5.6 0 00.09-1.14 2.45 2.45 0 01-1.5 1.1s-2.89.55-3.58.79a4.94 4.94 0 00-1.45 1 .73.73 0 01-.11-.45c0-.32 1.52-3.11 1.32-3s-1.14.4-1.69.6a21.19 21.19 0 00-2.65.9c-1.14.51-1.79 1.62-1.89 1.46a1.76 1.76 0 01-.36-.91 4.67 4.67 0 01.6-1.75 2.84 2.84 0 00-.14-3 30.83 30.83 0 00-3.31 3.75 26.27 26.27 0 00-1.24 2.83l-.85 2.61a2.76 2.76 0 01-.41-.46 3 3 0 01-.08-1.15c.21-1.38.24-3.06-1-4a1.44 1.44 0 00-.86-.25 1.93 1.93 0 01.29 1.03 6.38 6.38 0 01-.2 1.2l-.64 2.6a12.91 12.91 0 00-.4 3.33 2.4 2.4 0 01-1.94-1.88 18 18 0 01-.09-2c-1.1 1.62-1.71 2.66-1.37 4.63a12.84 12.84 0 001.68 4 7.55 7.55 0 01.61 1.71 2 2 0 00-1.45-.77c-.94 0-2.27.83-3.08.33l-.31-.14a4 4 0 00.19.39c.88 1.42 2 1.17 3.33 1.81A3.75 3.75 0 0113 27a3.18 3.18 0 00-1.7.09c-.61.21-1.11.68-1.77.9a5.3 5.3 0 01-3.55-.26 9.32 9.32 0 01-.72-.41 3.36 3.36 0 00.19.46 13.78 13.78 0 001.14 1.54 4.7 4.7 0 003 1.41c2.06.1 3.85-.3 5.81.07a5.6 5.6 0 011.45.56c-2.11.63-1.31 1.81-3.91 2.3a6.27 6.27 0 004.85 0 9.72 9.72 0 012.47-.38A5.54 5.54 0 0018 35a5.61 5.61 0 01-4.41 2.92c.77 1.21 3.17.68 4.21.38a7.46 7.46 0 003.31-1.88c.18-.17.73-.73.92-.94a5.17 5.17 0 01.8-.69 4.46 4.46 0 011.17-.53 3.94 3.94 0 011 0h-.06c-.05.05-.23.36-.37.57a5 5 0 00-.69 2.42c0 .43-.16 1.15-.16 1.15 1.1-1 1.82-3 3.19-3.65a1.16 1.16 0 01.49-.1c-.07 1.37-.95 2.52-.95 3.89a3.08 3.08 0 002.64 3.19 9.46 9.46 0 01.11-2.86c.33-1.3 1-2.6 1.43-3.93a5.6 5.6 0 00.08-2.16c.37-.05 1.33 1.72 1.27 1.94 0-.48.3-1.33.35-1.9a5.73 5.73 0 00-.25-1.82 3.51 3.51 0 011.69 1.22 12.16 12.16 0 01.71 1c.41.66.74 1.61 1.41 2a2.15 2.15 0 001.26.07 2.79 2.79 0 01-.8-.91 8.58 8.58 0 01-.44-3.05 8.18 8.18 0 00-1.07-4.19 2.06 2.06 0 011 .38c.16.12.56.44.79.32-.41-.38-.28-1.11-.49-1.61l-.3-.7a3.74 3.74 0 01.88.42 6.18 6.18 0 002.17.4 8.08 8.08 0 013.27.56 6.72 6.72 0 01.59.45 2.61 2.61 0 00-.09-.88 3.77 3.77 0 00-1.39-1.63zm-17.08 7.34a8.87 8.87 0 118.86-8.87 8.86 8.86 0 01-8.86 8.87"/><path id="path16" class="cls-2" d="M20.4 30.84a2.52 2.52 0 01-.59-1.94 11.7 11.7 0 003.87 1h.67a11.52 11.52 0 000 1.85h-.16a8.32 8.32 0 01-3.79-.91zm4 .92a16.3 16.3 0 000-1.85c.48 0 .95-.07 1.42-.13a.71.71 0 00.6.2 1.37 1.37 0 000-.19l-.22-.08.78-.2s.05 0 .08.07l.53-.12c.11.06.22-.13.22-.22a1.85 1.85 0 01.47-.21c-.09.22 0 .14 0 .33a.44.44 0 01.07-.28h.06a1.56 1.56 0 010 .43 2.56 2.56 0 01-.32.94l-.77.4c-.09.1-.06.07-.07.17h-.05c.21.11.47-.23.59-.17a2.75 2.75 0 01-.26.22 8.46 8.46 0 01-3.11.69zm3.36-.76a1.44 1.44 0 00.22-.19 12 12 0 002-1.44c.18-.21.65-.59.73-.83v-.12c0-.03-.07 0-.08-.07-.15.27-.34.8-.74.8-.05-.06.06-.14.06-.19l-.24.15c0 .1-.2.21-.28.27s-.23.41-.4.32a3.9 3.9 0 00-.79.68 1.73 1.73 0 01.13-.33c.06-.22.09-.77.23-.89a.21.21 0 010-.24c.41-.22.82-.46 1.22-.71l.16-.09h-.07a10.46 10.46 0 001.65-1.54 4.72 4.72 0 01-.13 1.13A8.45 8.45 0 0127.76 31zm-11.68-5.55l.26.47a11.06 11.06 0 00.71 1.62 3.9 3.9 0 00.2.47.36.36 0 010-.11c-.33-.84-.66-1.69-1-2.52 0 0 .06.22.06.25-.1-.19-.18-.37-.26-.56a8.67 8.67 0 01-.17-1.7 8.34 8.34 0 012-5.45 7.31 7.31 0 013.77-.41h.48v.14h.11c.1 0 .15-.12.18 0 .12-.07.22 0 .34.08 0 .06.05.1.12.13a.14.14 0 010-.06c-.05 0-.13-.07-.1-.13a.32.32 0 01.14 0v-.05c0-.05.12 0 .2 0a.29.29 0 000 .09 1 1 0 01.59 0v-.05l-.52-.12h.05l-.08-.05c0-.11.17 0 .24-.16a.19.19 0 010-.08c.09 0 .35.27.45.35h.06l-.27-.23h.2c.08 0 0 0 0-.06s.07 0 .12 0H24v-.38c0-.07-.07 0-.11 0a.43.43 0 010 .07l.08.05a.11.11 0 000 .05c-.1 0-.12 0-.16.13s.05.06.06.13-.38-.16-.2-.32a1.29 1.29 0 01-.19 0h-.22a5.84 5.84 0 00-2.75-1.1 8.29 8.29 0 013.71-.94h.11v.18h-.14l1.57.25 1.48.62V16a.23.23 0 01.14 0c0-.09.23 0 .3 0h-.07a1.57 1.57 0 01.3 0 8.56 8.56 0 012.66 2l-.42-.12a12.13 12.13 0 00-2-.23l-.59-.2v-.06a.28.28 0 01-.06-.16l-.16-.2a.19.19 0 000 .08c-.14.09-.72.14-.8.27a1.42 1.42 0 01.17.35 18 18 0 00-1.92.24c.63-.09 1.27-.19 1.91-.23a1.92 1.92 0 00.43.32l.09-.08v-.19h.05l.21.31h.06c.06 0 0 0-.08-.18s.41.16.46.19H28a.08.08 0 010-.07v-.23a.79.79 0 01.2 0c0-.07-.13-.17-.13-.25s.17.08.25.08l-.11-.08a7.24 7.24 0 012.4.4 8.3 8.3 0 012 5.4 7.88 7.88 0 01-.07 1.09 6.16 6.16 0 01-.95 1.9s0-.35-.1-.76a10 10 0 00-2.65-5 .89.89 0 00-.3-.53V20l-.1-.07c-.31.06-.26-.35-.3-.53l.09-.07c-.07-.13-.28-.38-.28-.53h-.24l-.06-.14a.91.91 0 00-.16-.11v-.05h.11a.59.59 0 01.1-.17s-.15-.14-.2-.14a.43.43 0 010 .07h.07c.07 0 0 .05 0 .06a.6.6 0 00-.49.44l.15.09v.05L27 19a9.43 9.43 0 00-2.16-1v.07A8.56 8.56 0 0127 19.11c0 .16-.11.09-.25.09l-.12.21h-.26a.77.77 0 00-.21.14c.05.07.09.09.09.17s-.12.16-.23.15a.8.8 0 010 .15c-.15.07-.33-.15-.41-.22a16.51 16.51 0 00-1-1.62h-.06c.33.52.65 1.05.95 1.58v.12c0 .05-.28 0-.38.14h-.05l.01-.02c0 .15-.12.16-.22.09.08-.15.24-.3.05-.41s-.16.12-.2 0h-.06s0 .07-.07.09-.1.07-.18.07v-1.57h-.07v1.59l-.18.1c0 .21 0 .17-.25.23.06.12.16.3 0 .43s-.07-.16 0-.24-.15-.11-.21-.05l.06.11s-.15-.06-.15-.2a.53.53 0 00-.08.33l.16.08v.15c0 .1-.09.06-.14 0v-.14c-.06 0-.24.25-.28.3a.17.17 0 01-.16-.15l.22-.1c0-.21.11-.41.16-.61h-.06a.47.47 0 00-.24.35.24.24 0 01.05.14s-.07.08-.13.07a2.69 2.69 0 00-.22-.29.32.32 0 01-.18.12 9.3 9.3 0 011.06-1.8c.12-.18.24-.35.37-.52a.07.07 0 00-.07 0c-.52.73-1 1.49-1.44 2.26h-.14v-.09c0-.03-.34 0-.48 0s0 0 0-.15l-.11.16c-.07 0-.06-.06-.06-.12h-.14a1.09 1.09 0 01-.08.15.77.77 0 00-.07-.16 1 1 0 00-.08.11h-.05a.54.54 0 010-.22.42.42 0 00.19-.33c-.14.13-.26.26-.39.4a.84.84 0 01-.29-.1c0 .12.09.35 0 .44l-.45.13c0 .16 0 .56-.22.47a.08.08 0 000 .06c.09.13 0 .22 0 .38.26.52.24.37-.15.49-.1.06-.08.16-.14.24h-.06a2.12 2.12 0 00.42 1h.06v-.42c0-.14.16-.2.23-.2a1.51 1.51 0 000-.37c.06 0 .2-.2.27-.13a.8.8 0 01.31 0l.24.31c.19 0 .23 0 .31.16h.09v-.16h.08c0-.07 0-.06.12-.07a.2.2 0 010-.11h.74l.07.18c.07.18.19 0 .2.12l.24-.05a1.6 1.6 0 01.18.49h.09c.07.09.15.06.26.09s.11.14.25.14l.08.1a1.46 1.46 0 01.38-.18 2.84 2.84 0 00.51 0c0-.14 0-.25.09-.35a.52.52 0 01.41.21l.11-.06c.41 0 .46.1.81-.15.14 0 .3 0 .41-.1s-.07-.3-.07-.42c.22-.19.22-.17.51-.17l.27.27h.29l.06.06.18-.27a1.54 1.54 0 01.17.59c-.16.17-.15.13 0 .34 0-.14.05-.1.19-.1a2.23 2.23 0 000-1l-.23-.44h-.18v-.1h-.07a1.63 1.63 0 01-.09.19h-.08l-.07-.08h-.13v-.86l.23-.25a.31.31 0 000-.1c.06 0 .14-.12.21-.11v-.07c-.17 0-.25-.37-.17-.51a2 2 0 01.56.63l.5.38a9.36 9.36 0 012.62 5.62v.09a9.36 9.36 0 01-2.93 2.33v-.09l.25-.14-.26.12a15.48 15.48 0 00-.86-4.36c-.08-.21-.09-.17.05-.35s0-.37.2-.41c0-.08 0-.28.12-.31-.12-.23-.13-.19 0-.37l-.13-.4a2.13 2.13 0 00-.16.25l-.08-.09h-.3l-.26-.27h-.26l-.14.12c0 .18.18.45-.08.53v.16c.22-.08.18-.07.35.11a5.94 5.94 0 01-.43.47h-.17s.05.11.05.15-.47.49-.69.49l-.38-.11-.43.06-.26-.22c-.4-.11-.4 0-.49-.4-.06-.07-.12-.13-.17-.2a.34.34 0 00-.15.06c0 .2-.1.14-.31.16-.06.25 0 .21-.29.26a1.47 1.47 0 010 .36c-.18 0-.31.17-.48.22s-.29 0-.32.17l.09.09V25l.45.29c.1.11 0 .14-.08.24a2.1 2.1 0 01.06.24h-.14a.43.43 0 000 .15 1.22 1.22 0 00.19.12c.39 0 .65.55 1.08.32.12 0 .31.07.31.21h-.35l.06.13a.72.72 0 01.29.06l-.13.12h.12c.04 0 0 0 0 .21h.07c0-.19-.06-.19.1-.27a1.35 1.35 0 01.36-.52s-.12-.12-.15-.18.11 0 .14.08l.28.13c0 .1 0 .3-.07.41.14 0 .14.08.2.22h.21a3.85 3.85 0 00.47-.19c.13 0 .28.15.38.22a1 1 0 01.28-.07c0-.1.21-.15.31-.2a.88.88 0 01.07-.14.11.11 0 01.08 0l.25-.16.27-.43c0-.24.13-.37.13-.61.05.2.11.4.16.61a.46.46 0 00-.09.2l.06.08a1.15 1.15 0 010-.26 2.59 2.59 0 01.16.77h-.06s.06.28 0 .3 0 0 0 .06.1 0 .13.08a12.14 12.14 0 01.12 1.49l-.56.25a.47.47 0 01.19-.25c-.08-.06-.17-.17-.26-.11-.16.22-.5.67-.81.5l-.08.11a.35.35 0 01.05.08l-.87.22v-.07H26a.06.06 0 010-.08s-.24-.05-.3-.06a1.37 1.37 0 00-.64-.25l.65.51c-.44.06-.88.1-1.33.13v-2.54c.06 0 .11.19.13.24.24.25.31.26.3.59a.22.22 0 00.26-.19c.08-.08.2.15.23.16 0-.21-.11-.27-.07-.5.1-.07.31-.19.32-.32-.19 0-.16 0-.25-.22h-.13c0-.07.08-.32.08-.44h-.14l-.21.18c-.07.15-.11.32-.25.4a1.69 1.69 0 000 .23c-.15.15-.21-.1-.22-.19a.14.14 0 01-.14-.13.6.6 0 01.08-.08c-.19 0-.21 0-.27-.17H24a.45.45 0 010 .16l.09.48h.12a1.09 1.09 0 00.08-.15v2.71a10.57 10.57 0 01-4.55-1 12.09 12.09 0 01.36-2.3l.17-.1c-.13-.2-.08-.26 0-.49.09 0 .31.18.39.23.15-.18.07-.09.24-.09-.05-.1-.13-.39-.22-.45s.1-.14.15-.19c-.18-.19-.11-.2 0-.45l.2-.15c-.05-.44-.5-.71-.64-1.12-.19-.12-.46 0-.63-.18-.12.17-.1.22-.1.43l-.12.17v.66a1 1 0 01.14.51l.15.25c.24.08.37 0 .37.33 0 .09 0 .18-.07.27a1.63 1.63 0 01-.11-.17.39.39 0 00-.08.1c0 .22 0 .17-.14.36h-.3v.33c.13 0 .25.06.35 0H20a14.82 14.82 0 00-.3 2.09 9.75 9.75 0 01-1.65-1h.11l-.12-.54a4.3 4.3 0 00-.53-.6c0 .16.07.16-.05.25-.06.27.32.69.46.92H18a11.32 11.32 0 001.71 1.1 2.94 2.94 0 00.5 1.88 8.47 8.47 0 01-4.14-5.3zm3 4.34a1.21 1.21 0 01-.43-.52l.14.08h.18l.09.15c.09.15-.01.18-.06.29zm7.09-.4c-.24-.08-.26-.12-.37-.34.11-.11.23 0 .35.06a.26.26 0 00.1.24s-.1.04-.13.04zm1.1-.2a1.58 1.58 0 01.53-.5c0-.06.15-.24.22-.27s.08 0 .16.06c-.13.12-.13.15-.3.19l-.28.33zm-4.4-.19v-.25l.15.16A.36.36 0 0023 29zm5.56 0h-.07l.14-.06a.14.14 0 000 .07zm-2.71 0zm0-.05a.58.58 0 01-.22-.08.79.79 0 010-.2 1.54 1.54 0 01.18.24zm-7.61-.18a1.08 1.08 0 00-.29-.13c-.16-.21-.32-.41-.46-.63-.33-.92-.7-1.82-1.1-2.71l.14.13c.1-.05 0-.3.17-.31a2.09 2.09 0 00.44.68c.18.41.24.39.11.78 0 .22 0 .19.21.23a.31.31 0 000 .1c-.05 0-.13-.09-.18-.06a2.32 2.32 0 00.75 1.31 6.37 6.37 0 01.23.61zm4.4 0a2.33 2.33 0 01-.45-.92c0-.17-.06-.33-.08-.5s.15-.34-.06-.39c-.05 0-.06.08-.08.14h-.15l-.09-.14c.06 0 .14-.06.14-.12s-.14 0-.19 0a.21.21 0 010-.11c.15-.14.26.08.39 0s-.11-.29-.13-.44.15 0 .27 0l.42-.33a.49.49 0 000-.12h.1c0-.09-.1-.18-.16-.24s0-.17.07-.25l.29-.06a.09.09 0 010-.05 1.87 1.87 0 01.29.2c0 .05-.1.13-.13.17l.05.18h-.11c-.05.06 0 .22 0 .27l.15.1c0 .05-.09.09-.09.15a2.93 2.93 0 00.85.42c.1 0 .13-.08.19-.16a.31.31 0 000 .1c-.18 0 0 .67 0 .73s0 0-.05-.07a3.53 3.53 0 01-.8.63l-.29.09a3 3 0 01-.11.62l-.27.16zm3-.19a.27.27 0 01.05-.15zm.88 0v-.07h-.17c.42-.32.42-.32.43-.34v-.26l-.07-.14.2.11.09.37c-.12.11-.22.3-.39.28zm-.27-.14a.2.2 0 00-.09-.07c-.08-.36 0-.34.36-.38l.18-.09a1.48 1.48 0 000 .21zm3.71 0s-.01-.08-.02-.07zm-4.34 0l-.07-.21.11.16s-.03-.06-.06-.04zm-8.1-.13l-.09-.15s0-.05.06-.06.24.3.12.33zm8.54.07c-.13-.11-.27-.18-.33 0a2 2 0 01-.2-.38.29.29 0 00-.08-.35c0-.18.15-.39.33-.25a1.9 1.9 0 000 .25c.13 0 .25-.09.38-.11s.22.17.21.36c-.31 0-.4.06-.34.4zm4.09 0l-.02-.16h.13zm.46 0l-.08-.13c-.08 0-.2.06-.27.1l.28-.39a4.2 4.2 0 01.72-.38.18.18 0 00.14 0 .85.85 0 01-.32.21c-.22.08-.29.31-.49.45zM28.86 28a.16.16 0 000-.13l.13-.23H29c0 .05.06.11 0 .15s-.09.12-.1.19zm-.22 0l.08-.09zm-10.87 0c-.2-.19-.63-.79-.57-1a.29.29 0 00.13.05.63.63 0 000-.24h-.19a1 1 0 01.08-.4 1 1 0 01.25.48c-.35.26.32.76.4 1.05-.07-.09-.04-.06-.1.06zm8.58-.07c-.05-.25-.08-.26-.29-.43a2 2 0 00-.32.11v-.19a.63.63 0 01-.11-.12l.06-.11h.1a.09.09 0 000-.07h.08a.51.51 0 00.25.23v.12c0 .04.48.27.43.41zm-8.09-.16c0-.16-.07-.31-.11-.47.1 0 .2.09.31.1.48-.07.39-.05.09-.42.12.05.38.18.57.25 0 .23-.29.36-.46.49zm10.27-.08zm3-.14a8.59 8.59 0 00.08-1 6.63 6.63 0 00.85-1.55 8.62 8.62 0 01-.94 2.5zm-5.24-.05c-.19-.13-.1-.05-.1-.2s-.26-.12-.26-.24c.33-.15.25-.13.58.08-.01.06-.19.2-.23.31zm.5-.07c-.09-.08.1-.16.16-.18a.42.42 0 01-.1.17zm1.59-.06a.2.2 0 010-.17zm.27 0zm-10.2 0c-.42-.18-.54-.4-.87-.77a3.83 3.83 0 01-.05-.44c.13 0 .09-.08.09-.21.29 0 .24-.1.4-.38a2.27 2.27 0 010 .45 1.16 1.16 0 01.2.58c-.06 0 .16.35.19.41l.27.32zm.85-.52a3.45 3.45 0 01-.87-.3v-.48a.36.36 0 01.37.33c.08.06.22-.1.32-.1l.33.16a1.77 1.77 0 010 .33 1 1 0 01-.16-.02zm2.49-.16a1 1 0 00-.25-.12l-.1.1c-.05 0-.12-.18-.15-.23l-.51-.18c0-.14.23 0 .23-.12s-.06-.16-.15-.37a2.07 2.07 0 00.52.16.86.86 0 01.1-.16c.34-.07.31.09.45-.22H22a.3.3 0 00.1-.23c.33-.07.25-.1.15.21v.08c0 .08.17.17.16.2s-.07-.08-.11 0 0 .13 0 .17l-.34.27c-.08 0-.15-.06-.24-.06-.19.22 0 .27 0 .55zm2 0a2.65 2.65 0 01-.79-.39c.17-.24.52.13.67.25h.2a.35.35 0 01-.07.03zm.31-.07c-.05-.17.28 0 .29 0zm-6.62 0a3.92 3.92 0 01-.46-.77l-.18-.6v-.68a.57.57 0 01.13-.08h.08l.15-.37h.08l.1-.13.51.71H18v.31c0 .11 0 .42-.09.45l-.21.37h-.19v.2a.24.24 0 00-.09 0c.07.44.07.44.07.47zm2.29-.12a2.59 2.59 0 01-.66-.23 1.17 1.17 0 00-.26.1c-.07-.25-.22-.29-.45-.34l-.12-.62c0-.1 0-.31.05-.43a6.72 6.72 0 01-.07-.77c0-.06.07-.08.07-.15s-.09 0-.12 0a1.47 1.47 0 000-.3c-.06.29-.09.61-.14.91h-.1l-.52-.75.45-.81c.06.15.06.15.07.16.23-.38.47-.75.72-1.12a.48.48 0 00-.09-.19h-.09v-.11h-.05a1 1 0 00-.07.15c-.08 0-.08 0-.09.08a.33.33 0 000-.1c.05-.15 0-.22.19-.27a.3.3 0 01.2.26l.16.13v.12c-.08.11-.08.11-.09.14s.14.13.23.11.14.09.23.11c.23.22.15.59.55.57l.09.14a.5.5 0 01-.12.44c-.24-.14-.42-.41-.69-.43l-.26-.13c-.08-.18 0-.19-.18-.25l-.06-.15a.08.08 0 000-.08c0 .05-.48.63-.42.78l.16.09c0 .07.16.31.25.29a.88.88 0 010 .16.58.58 0 00.1.19 1.37 1.37 0 00.28-.05.23.23 0 000-.11l.16.06c.12.32.21.74.52.94 0 .27.05.56.06.84-.1-.04.53.33.12.5zm.13-.35l-.08-.15a1 1 0 01.23-.1 1.24 1.24 0 01-.14.1zm1.4-.26l-.51-.17c0-.07.14-.11.14-.2a1.59 1.59 0 01-.13-.13c0-.13.09-.36.27-.36a.28.28 0 00.4-.06l.45.14.17-.09a.83.83 0 000 .17h.33c-.09.08-.32 0-.4.12a.26.26 0 010 .19h-.13l-.11.21h-.34a1.09 1.09 0 00-.08.15zm-4.4-.19a2 2 0 01-.34-.58c-.16 0-.19.16-.23.27l-.18-.21c0-.1.12-.19.19-.26a2 2 0 00-.13-.39c-.31-.17-.2-.17-.1-.45v.33a1.45 1.45 0 000-.42.14.14 0 000 .11c.05 0 .09 0 .13-.07v.54c.14.13.22.27.41.3v.39zm10.88-.07c-.06-.05.06-.15.09-.19s-.19 0-.18-.1h.14a.69.69 0 00-.33-.34c-.07-.14.1-.36.17-.46h-.09l-.1.15a.75.75 0 01-.3-.14l.3-.49c.17.48.33 1 .46 1.49zm-5.34-.34s.07-.08.11-.08.03-.06-.1-.04zm-.25-.29v-.19c-.14 0-.17.13-.34.07.09-.17.1-.16.05-.34.17-.08.18 0 .33.13h.23v.1c.08.07.1.08.08.19zm-6.09 0c0-.2-.07-.39-.08-.59.18.09.18.2.25.4-.05 0-.14.12-.16.19zm5.12-.07h-.11a2.23 2.23 0 00-.5-.9h.15l.09-.17h.28c.08.09 0 .06 0 .16l.13.09c.05.31.32.47.34.76-.17-.12-.2-.02-.38.03zm-1.82 0l-.21-.22c-.09-.22-.31-.57-.27-.81.3 0 .26 0 .42-.22a.3.3 0 01.23.07c0 .23 0 .25-.1.43s0 .48 0 .72v.05zm2.32 0c0-.28-.13-.37-.3-.6s0-.21-.15-.29.07-.12-.09-.22h-.21c.05-.14.1-.27.16-.4a1.13 1.13 0 01.18 0c-.09.3-.08.23.21.34l.27.08.09.4.14.09c-.11 0-.06 0-.06.13-.19.09-.16.08-.1.26l-.08.15zm-5-.17c-.12 0-.21-.17-.3-.26V24c0-.17.08-.33.11-.5h.16c.09-.18.18-.36.28-.53V23c-.15 0 .12.89.15 1l-.12.33c-.26-.14-.25.25-.25.37zm12.05 0a.32.32 0 00-.1-.17h.09a.76.76 0 010 .15zm-6.39-.05a.42.42 0 01-.39-.26c.06 0 .17.14.21.18s.17 0 .21 0-.1-.19-.15-.26c.23-.1.15.05.29 0s.36 0 .56.09l-.33.16-.36.07zm5.85-.07a.73.73 0 010-.52l.21.2c-.05.07-.06.15-.19.24zm-6-.08l-.16-.15h.11a1.13 1.13 0 01.13.2zm3.57-.15a1 1 0 00-.79 0l-.28-.22-.37-.12a.73.73 0 00-.25-.46l.24-.13a5.49 5.49 0 00.58 0c.07-.09 0-.23.08-.34h.2c.16.16.13.23.32.09a2 2 0 00.54 0 .9.9 0 01.53-.23c0 .3 0 .23.27.18l.08.09s-.07.07-.11.1l-.26.31a.59.59 0 00-.22 0 .47.47 0 00.06.15c0 .17-.5.48-.6.5zm-2.6 0a2 2 0 00-.57-.19c-.09.08-.09.07-.17 0s-.29.13-.44.15a.29.29 0 00-.12-.07l-.09-.42c-.09 0-.28 0-.3-.14s.12-.15 0-.37a.71.71 0 00-.24.06l-.25-.07c-.06-.21 0-.27.11-.38s.05-.16.07-.24c.22 0 .22 0 .3.16a.55.55 0 00.22 0v-.16h.07v-.05c0-.05.1 0 .1-.12h.64a1.34 1.34 0 00.07.18l.18.05a.11.11 0 000 .08h.24c.02 0 .11.31.17.47s.07 0 .11 0 .17.06.24.07.13.15.27.16l.05.06c0 .08-.09 0-.11.18h-.28a.78.78 0 00-.06.22c-.33.07-.24 0-.27.4zm5.56 0c0-.19.13-.22.28-.34a1.94 1.94 0 000-.22c.15-.25 0-.48 0-.75a.88.88 0 01.26.63c-.07 0-.08.19-.1.25-.23.06-.07.07-.11.23l-.02-.21zm-.76-.22c0-.1 0-.21-.1-.21l.06-.32h.11a2.46 2.46 0 00.07-.29h.06v.28c0 .2-.19.23 0 .36-.1.14-.09.13-.2.18zm-12-.09a12.34 12.34 0 010-1.36 2.88 2.88 0 01.15 1 1.86 1.86 0 00-.15.36zm2.5-.1a.32.32 0 01.15-.44.76.76 0 000 .15l.16.06a.41.41 0 010 .1l-.2-.06.05.12zm-1.22-.06c-.17-.11-.24-.67-.28-.89.15 0-.07-.58-.05-.67v-.39a1.33 1.33 0 01.42-.4v.94l.1.07s.07-.08.11-.12.17.39.17.49zm-1-.05v-.1a1.69 1.69 0 010-1 .87.87 0 00.2.67.57.57 0 01-.2.43zm2.59-.12c0-.08-.1-.08-.16-.11s0-.07 0-.1h.15c.09-.14-.1-.31.2-.3l.29.26h-.06c-.19.34-.19.09-.42.25zm1.47-.15l-.41-.08v-.2c.06 0 .12 0 .15.07.3 0 .19-.23.2-.48l.12-.11s0 .05.07.06v.41c0 .09-.17.2-.13.33zm-.49-.1c-.06-.07 0-.2-.05-.29.18 0-.14-.22-.08-.33a.62.62 0 010-.13l.29.51h-.12c-.06.03-.04.16-.04.24zm-1.09 0a.07.07 0 010 .05zm-2.25-.08l-.16-.23c-.06-.18.06-.43-.05-.58a2 2 0 00-.15.29l-.15-.35a.68.68 0 00.28-.46c0 .23.05.24.2.06.31.23.42.3.45.69l-.27.52zm12.43-.54s.06-.03 0-.02zm0-.12a.5.5 0 010-.12c0-.05-.11-.17-.09-.21s.13 0 .22-.05h.06c-.08.21.01.24-.21.36zm-3.51 0a.41.41 0 01-.07-.15h.07a.07.07 0 010 .06v.06zm-5.75-.18a1.43 1.43 0 010-.22c-.05.05-.03.12-.02.19zM16 22.47a5.59 5.59 0 01.33-1.47c0 .09 0 .29.11.28a4.83 4.83 0 01.36-.72 10.42 10.42 0 00-.33 1.47c-.1.13-.1.13-.11.13a1.49 1.49 0 00-.07-.28c-.08.29-.08.41-.29.59zm.83-.12l-.27-.21a6.52 6.52 0 01.48-2 .09.09 0 01.07 0c0 .1 0 .19.16.19s0 .12.06.12l.15-.14a2.26 2.26 0 01.17.68c-.05.07-.16.06-.21.11a4.26 4.26 0 01-.53.84 2.93 2.93 0 00-.07.41zm2.59-.13a.66.66 0 010-.14h.07v.15zm-1.3-.07a.31.31 0 010-.13h.05a.34.34 0 01-.04.13zm1.63 0a1 1 0 00-.22-.08c0-.1-.15-.1-.07-.22s-.06-.05-.1-.08a1 1 0 01.09-.27c0-.19-.22-.31-.24-.46s.09 0 .1-.07h.28a2 2 0 00.24.36c.27 0 .18.11.15.36a3.57 3.57 0 01.17.36zm-.93-.15c-.1-.09-.16-.12-.16-.25s.09-.14.14-.16l.21.31c-.01.03-.15.03-.19.1zm.25-.12c-.07-.12-.15-.24-.23-.36s.17-.35.07-.47a1.83 1.83 0 010-.27H19a3.22 3.22 0 00.3.55c.1.19.05.24 0 .44zm-.49-.19a.42.42 0 00-.2-.1 1.06 1.06 0 00.12-.5c.07-.2.19-.33.08-.51-.25 0-.33.6-.35.79h-.05s-.07.12-.13.13a1.49 1.49 0 00.23-.72c.06-.09.21-.31.12-.41l.25-.3h.09v.55h-.09a.45.45 0 000 .11c0 .09-.05.06-.1.12a3.37 3.37 0 00-.1.34h.06c0 .26-.1.12 0 .38zm.09 0a1.3 1.3 0 01-.1-.15c.05-.14.17-.36.31-.41a1.91 1.91 0 00-.13.45zm-1.38-.1a3.84 3.84 0 01.21-.4.2.2 0 00.18-.06c.08.08-.05.17-.09.23s-.15 0-.18.19zm1.32-.31a1 1 0 01.09-.27c.07 0 .09-.09.12-.15s0 .18 0 .25-.15.11-.21.13zm1.33 0c-.14 0-.22-.26-.3-.37a1.29 1.29 0 01.19-.21c.21.17.21-.07.4 0a3.93 3.93 0 00-.08.46c-.12 0-.13 0-.17.1zm-3.51-.09a1.12 1.12 0 01-.05-.32 5.15 5.15 0 01.4-.9 2 2 0 000 .24c.09.09.14-.12.22-.12a.39.39 0 000 .15l-.1.3s-.07-.05-.11 0c-.15.16-.26.38-.36.6zm2.74-.23c-.13-.25-.07-.27-.11-.54s.07-.22.1-.34.25-.14.32-.14c0 .17-.14.22-.27.33a1.27 1.27 0 000 .67zm.12 0a.94.94 0 010-.64l.19-.15c.18.05.13.14.2.26h.08c0 .11.14 0 .2 0a2.6 2.6 0 00.1.25c-.07.12-.19 0-.25 0a.88.88 0 00-.25.29zm-.51-.13h-.06v-.05h.09v-.33c.08-.09.06-.15.06-.26a.28.28 0 00.17-.22c.1-.07.21-.17.34-.15s0 .05 0 .08a.35.35 0 00.17-.06c-.11.2-.18.22-.39.27a1.1 1.1 0 00-.07.62l-.05.08h-.16s-.09-.04-.1-.04zm1.53-.12s.08-.06.11-.11a1 1 0 01-.17-.32.74.74 0 00.24-.26c.21-.13.41-.28.61-.42h-.05c-.25.12-.54-.05-.8.14 0 .05 0 .05.07.08a.27.27 0 01-.17 0c-.21 0-.22.25-.4.08l.4-.36h.29l.19-.23c.08 0 .08 0 .09-.06l.21.13c.24 0 .28-.14.52 0v.09l-.45.23a1.5 1.5 0 01-.26.38c0 .18.09.28 0 .46l-.38.11zm-.1 0h-.08a.73.73 0 01-.1-.28.34.34 0 000 .1c.06-.06.06-.06.1-.08s.13.18.13.25a.2.2 0 01-.05-.1zm.43-.14l-.26-.25c.21-.23.29 0 .31.23zm-3.29-.13c0-.09 0-.08-.11-.1s-.14-.26-.12-.34.14-.12.21-.12.07.1.16.08-.03.3-.14.37zm1 0l-.07-.05a1.41 1.41 0 01.07-.64l.18-.09c.07-.07.14-.26.21-.3v.11h.09c0 .17 0 .12.21.18a.86.86 0 00.07.1h.09c-.28.06-.22.26-.37.34h-.19c-.11 0-.21.11-.3.23zm3.65-.23l.05-.07zm-1 0l-.23-.08.17-.28c.16 0 .19 0 .23-.21l.3-.22v-.11c.59-.33 1.15-.69 1.75-1a3.13 3.13 0 01.63-.28v.07a15.18 15.18 0 00-2.28 1.23c.07 0 .06.06.16.08-.18.22-.5.69-.73.76zm.63 0c0-.12-.09-.23-.13-.34.05-.08.15-.21.23-.23s.08.41.09.52a.23.23 0 01-.17 0zm-3.57-.07A.27.27 0 0018 20c0-.06.16-.21.23-.33a1.1 1.1 0 00-.07.36zm-.35 0h-.09a1.38 1.38 0 010-.2c0-.12.1-.22.12-.35l.37-.12c0-.08 0-.25.16-.25 0 .27-.15.8-.46.89-.03-.11-.04-.04-.08-.03zm-.7 0a.43.43 0 010-.11.14.14 0 000 .07zm11.22 0l-.36-.34h.08c.02 0-.25-.27 0-.3a1.38 1.38 0 01.32.58zm-11.42 0a2.38 2.38 0 01.05-.26l.17-.05a.3.3 0 010 .16c-.03-.09-.14.01-.2.06zm2.76-.41c.06 0 .14-.13.23-.1a.34.34 0 01-.21.01zm-.37 0h.05zm1-.21a.35.35 0 00-.13 0l-.1-.07a.18.18 0 010-.09c.07 0 .25 0 .25-.09a.15.15 0 000 .07.52.52 0 010-.11s.15 0 .23.08c-.16.18-.15.21-.38.23zm-2.37 0a.75.75 0 01.24-.15.2.2 0 010 .07zm1.17-.19a1.85 1.85 0 010-.27c.05 0 .07.06.13.05a1 1 0 010-.17h.23c-.11.11-.19.16-.23.31zm1.88-.1l-.08-.05h.25zm-1.4-.36a.2.2 0 010-.07c.1 0 .16-.09.26-.12a.53.53 0 000 .12.32.32 0 00-.22.07zm.34-.19s.04-.01.04 0zm3 0zm-.43 0zm-1.61-.71h-.06a1.41 1.41 0 000-.2c.06 0 .11-.1.17-.11s0 0 0 .09-.05 0-.05.1H21c0 .02-.1.07-.15.09zm-.57-2a4.7 4.7 0 012.82 1l-.3-.09c-.05-.07-.05-.07-.06-.07a.29.29 0 01-.27 0v-.06h-.15a.32.32 0 010-.14 1.14 1.14 0 00-1.06 0c0 .05.18 0 .18.12l.16.07a.27.27 0 010 .12s-.08 0-.1.06a.75.75 0 00.07.12h.08c0 .07 0 .08-.09.1a.56.56 0 000 .12 9.66 9.66 0 00-3.39.25l-.21.09A8.46 8.46 0 0120.28 16zm4.35 1.69h-.06c0-.12.83-.7.94-.78-.11 0-.13 0-.2-.1a1.53 1.53 0 01.36 0c.19-.12.19-.12.21-.15l-.32-.19c.08-.11-.19-.11-.26-.16s-.1-.1-.27 0a.69.69 0 00-.43-.13c-.08-.07-.11 0-.2 0s0 .09.1.14 0 .06 0 .08h-.05v1.26h-.07v-.45l-.1-.12v.05h.1v-.92l-.07-.05h-.07l-.09-.14h.16l-.14-.05h.21v-.45h-.73c-.14-.11-.14-.11-.17-.12s-.46.08-.17.18l-.15.08c0 .08.11.08.17.1-.09 0 .06.1.08.1a.43.43 0 000 .05h-.44a.13.13 0 00-.09 0h-.13c-.04 0-.25.06-.28.17h-.23V16a2 2 0 00-.34.06h.05l-.31.1c.23-.25.61-.27.88-.46a6.29 6.29 0 013.36.09l1.46.61c0 .18 0 .21-.13.33s.12.09.13.19h.06v.23a3.06 3.06 0 01-.79.23c-.18-.35-.16-.3-.54-.36a.28.28 0 010-.09c-.51.07-.94.36-1.37.72zm-2.71-.19a.07.07 0 01.06 0zm-.09 0h-.1c0-.05 0-.1.1-.08s0 .06 0 .08zm2.8-.47zm-.56-.12l-.08-.06c-.08-.06.27 0 .11 0zm1.05 0zm-.2-.07zm-.91-.1h.14zm.33 0h.05zm1-.06c0-.07-.15-.06-.21-.07a.21.21 0 000-.11.15.15 0 00-.1.06c0-.12 0-.13-.1-.19h.07c.16.1.31.06.48.11v.06c-.05 0-.14-.05-.18 0l.11.06zm-1.39-.11l-.06-.13c-.09 0-.16.06-.24.06s-.29-.05-.39-.06-.42-.09-.52-.09v-.07H23v-.05l-.35-.11a1.23 1.23 0 01.54 0v.1a.61.61 0 00.55.1h.18v.17h-.07zm.71 0v-.06zm-.5 0a.24.24 0 00-.09-.15h.14a.14.14 0 010 .11zm3.08 0c-.06 0 0-.06 0-.1v.06c0 .06.04-.05.02-.03zm.08-.22a1.34 1.34 0 010-.2l.06.06a.24.24 0 000 .12zm-3.35-.12s-.06-.07-.1-.1a.46.46 0 01.26-.06c-.06.05-.13.09-.16.16zM21 16zm2.94-.08h-.11.15s.02.01-.05.02zm3.22 0h.06zm-5.84 0h.05s-.06-.02-.06-.01zm3.09 0v-.08h.07c-.01.07-.02.06-.08.06zm0-.09v-.34h.06v.08c.29.04.07.19-.07.24zm3 0a9 9 0 00-3-.65 1.09 1.09 0 010-.18 8.29 8.29 0 013.33.77zm-5.41-.3l.27-.1a1.25 1.25 0 01-.27.1"/></g></g></g></g></svg>