<svg xmlns="http://www.w3.org/2000/svg" viewBox="0 0 48 48"><defs><style>.cls-1{fill:#ee3a49}</style></defs><g id="Слой_2" data-name="Слой 2"><g id="лого"><path class="cls-1" d="M0 0h48v48H0z"/><g id="LSRG"><g id="g12"><path id="path14" d="M6.32 17.34h9.73v9.22q-1.65 2.06-3.32 4.1H2.86v-9.2c1.14-1.38 2.31-2.75 3.46-4.12zm14.55 0h9.73v9.21c-1.1 1.38-2.22 2.74-3.33 4.11H17.4v-9.22c1.16-1.36 2.3-2.74 3.46-4.1zm13.5 1.22c.35-.4.68-.83 1.05-1.22h9.72v9.21l-3.34 4.11h-9.86v-9.21l2.43-2.89z" fill="#fff"/></g></g><path id="path16" class="cls-1" d="M21.72 22.89a3 3 0 013 .93l-1 1a1.65 1.65 0 00-1.17-.66 1.42 1.42 0 00-1.2.52 1.77 1.77 0 00.46 2.61 1.58 1.58 0 001.92-.49l1 1a3 3 0 01-1.25.85 3.6 3.6 0 01-1.87.07 2.88 2.88 0 01-1.95-1.66 3.15 3.15 0 01.31-3 3 3 0 011.82-1.16zm12.6.06h2.47a2.69 2.69 0 011.67.51 1.9 1.9 0 01.7 1.55 2.18 2.18 0 01-.64 1.66 2.38 2.38 0 01-1.6.64h-1.11v1.4h-1.49zm1.49 1.32v1.75c.53 0 1.15.11 1.6-.25a.85.85 0 00-.15-1.37 3.28 3.28 0 00-1.45-.13zM5.85 23H10v5.62H8.59v-4.35H7.17a12.45 12.45 0 01-.3 2.73 2.25 2.25 0 01-.81 1.27 2.33 2.33 0 01-1.4.42v-1.28a1.4 1.4 0 001-1.09A18 18 0 005.85 23"/></g></g></svg>