<svg viewBox="0 0 48 48" xmlns="http://www.w3.org/2000/svg"><g fill="none" fill-rule="evenodd"><path fill="#005BAA" d="M0 0h48v48H0z"/><g fill="#FFF"><path d="M12.427 34.187H9.76l5.973-22.614 7.894 7.307 8.586-7.307 5.92 22.614H35.52l-4.64-17.974-7.253 6.027-6.614-6.027z"/><path d="M17.707 34.187l1.973-9.334 2.613 1.974-.64 3.36 5.92-5.334.64 2.667-2.613 2.667 4.64 4h-3.307l-3.306-2.667-3.254 2.667z"/><path d="M16.373 34.187h-2.666l4-15.947 5.92 5.28 6.613-5.28 3.947 15.947H31.52L28.213 22.88l-4.586 3.947-4.64-3.307z"/></g></g></svg>