<svg viewBox="0 0 1440 1440" fill="none" xmlns="http://www.w3.org/2000/svg"><path fill="#FC2C38" d="M0 0h1440v1440H0z"/><path d="M853.099 719.411c0 73.654-59.757 133.41-133.41 133.41-73.654 0-133.41-59.756-133.41-133.41s59.756-133.41 133.41-133.41c73.653 0 133.41 60.034 133.41 133.41zM719.689 276.1C475.104 276.1 276.1 475.104 276.1 719.689S475.104 1163 719.689 1163c89.496 0 175.935-26.68 249.866-77.27l1.39-.83-59.757-69.49-1.112.56c-56.977 36.41-122.57 55.87-190.387 55.87-194.279 0-352.425-158.15-352.425-352.429 0-194.279 158.146-352.425 352.425-352.425 194.278 0 352.421 158.146 352.421 352.425 0 25.292-2.78 50.585-8.33 75.877-11.12 45.86-43.08 59.757-67.265 57.811-24.181-1.945-52.53-19.178-52.808-61.424v-72.264c0-123.682-100.614-224.296-224.296-224.296-123.682 0-224.296 100.614-224.296 224.296 0 123.682 100.614 224.296 224.296 224.296 60.035 0 116.456-23.625 158.98-66.149 24.737 38.355 65.038 62.536 110.898 66.149 3.891.278 8.06.556 11.951.556 32.24 0 64.2-10.84 90.05-30.296 26.68-20.289 46.42-49.472 57.26-84.493 1.66-5.558 5-18.621 5-18.621v-.556c6.39-28.072 9.45-56.144 9.45-90.886.28-244.307-198.726-443.311-443.311-443.311z" fill="#fff"/></svg>