<svg viewBox="0 0 48 48" xmlns="http://www.w3.org/2000/svg"><g fill="none" fill-rule="evenodd"><path fill="#005291" d="M0 0h48v48H0z"/><path d="M10.08 20.587H12v2.346h2.027v-2.346h1.92v6.453h-1.92v-2.56H12v2.56h-1.92v-6.453zm12.693 0v6.453h-1.866v-4.907h-1.174V24c0 .8-.053 1.867-.586 2.4-.534.64-1.494.8-2.56.64v-1.6c1.013.213 1.28-.213 1.28-1.493v-3.36h4.906zm1.6 0h1.92l1.067 3.84 1.067-3.84h1.92l.906 6.453h-1.76l-.426-3.467-1.014 3.467h-1.28l-1.013-3.467-.427 3.467h-1.866l.906-6.453zm7.574 0h1.92V23.2l1.866-2.613h2.08l-2.453 3.2 2.507 3.253h-2.294l-1.706-2.613v2.613h-1.92v-6.453zm-8.214-6.88c-11.466 0-19.04 4.16-19.04 10.24s7.574 10.24 19.04 10.24c11.52 0 19.04-4.214 19.04-10.24 0-6.08-7.52-10.24-19.04-10.24zm0 19.573c-10.773 0-17.973-3.733-17.973-9.333s7.2-9.334 17.973-9.334c10.827 0 17.974 3.68 17.974 9.334 0 5.546-7.147 9.333-17.974 9.333zm0-17.707C13.6 15.573 6.827 18.933 6.827 24s6.773 8.427 16.906 8.427c10.134 0 16.907-3.36 16.907-8.427s-6.773-8.427-16.907-8.427zm0 16.64C13.707 32.213 7.04 28.907 7.04 24c0-4.907 6.667-8.213 16.693-8.213 10.027 0 16.694 3.306 16.694 8.213 0 4.853-6.72 8.213-16.694 8.213z" fill="#FFF" fill-rule="nonzero"/></g></svg>