<svg xmlns="http://www.w3.org/2000/svg" viewBox="0 0 48 48"><defs><style>.cls-2,.cls-3{fill:#0045f8;fill-rule:evenodd}.cls-3{fill:#ff3f54}</style></defs><g id="Слой_2" data-name="Слой 2"><g id="Слой_1-2" data-name="Слой 1"><g id="NVTK0221"><path fill="#f1f2f3" d="M0 0h48v48H0z"/><path class="cls-2" d="M14.64 13c.17-.07.26.22.07.26s-.23-.22-.07-.26zm1.25-.06c.17 0 .25.24.07.27a.14.14 0 01-.07-.27zm1.25.06c.17-.06.25.22.07.25S17 13 17.14 13zm1.24 0c.26-.14 0 .3 0 0zm-3.74 1.22a.13.13 0 11.07.26c-.16.06-.24-.22-.07-.26zm1.24 0c.17-.06.26.22.08.26s-.24-.22-.08-.26zm1.25 0c.17-.05.26.23.08.26s-.25-.22-.08-.26zm1.26.08c.3 0-.15.26 0 0zm1.17-.01c.08-.14.31 0 .21.14s-.31 0-.21-.14zm.1 1.12c.26 0 .29.39 0 .41s-.31-.42 0-.41zm-6.36.05c.21-.17.44.15.25.31a.2.2 0 01-.25-.31zm1.23-.03c.14-.11.41 0 .37.19s-.15.24-.27.21a.24.24 0 01-.1-.4zm1.26-.02c.25-.21.54.24.27.4s-.52-.23-.27-.4zm1.21 0c.27-.21.55.25.26.41a.24.24 0 01-.26-.41zm1.28.02c.25-.2.53.22.26.36s-.47-.2-.26-.36zm2.47.17a.16.16 0 01.26-.13c.13.06 0 .23 0 .33-.1-.05-.31 0-.28-.2zm-8.67-.06c.08-.14.31 0 .21.14s-.31 0-.21-.14zm10.02 0c.15 0 .2 0 .15.14s-.19 0-.15-.14zm-7.67 1.06l.05-.05a.37.37 0 01.39 0l.14.09v.34l-.1.12a.35.35 0 01-.44-.53zm1.17.1l.14-.19h.34l.18.2v.3l-.16.15a2 2 0 00-.35 0l-.14-.16a2.62 2.62 0 000-.28zm1.25-.01l.15-.19h.31l.17.2v.3l-.16.15H17l-.14-.15v-.3zm1.23 0l.18-.18h.32a1.63 1.63 0 00.17.2v.3c0 .1-.11.11-.15.15a.93.93 0 01-.37 0l-.09-.16-.06-.35zm1.34-.07l.06-.07.34-.07c.05.07.11.14.16.22s0 .2 0 .31l-.12.13c-.15 0-.33 0-.43-.1a.36.36 0 010-.42zm-6.13-.02c.12-.06.3-.06.36.08a.27.27 0 01-.27.42c-.25 0-.28-.38-.09-.5zm7.48-.02a.29.29 0 01.42.36.29.29 0 11-.42-.36zm2.53.07c.21-.11.44.15.26.32s-.51-.17-.26-.32zm-11.24.06c.19-.19.43.16.21.28a.18.18 0 01-.21-.28zm9.94-.03c.2-.19.5.12.29.3s-.47-.11-.29-.3zm2.49.32c0-.13 0-.32.19-.32a.18.18 0 01.06.34h-.25zm-13.59-.23c.29 0-.15.26 0 0zm3.67.89h.21l.31.3v.19l-.31.32h-.19l-.32-.33V18a2.42 2.42 0 00.31-.33zm1.27-.02H16a1.35 1.35 0 00.4.35 1.09 1.09 0 000 .17 1.54 1.54 0 00-.34.38h-.18a2.07 2.07 0 00-.34-.39.88.88 0 000-.16 1.58 1.58 0 00.37-.36zm1.25.01h.16a1.44 1.44 0 00.39.35 1.09 1.09 0 01-.05.17 4.09 4.09 0 00-.33.38h-.18a1.75 1.75 0 00-.34-.38v-.18a1.5 1.5 0 00.37-.34zm1.25 0h.16c.1.12.22.23.34.35a1.67 1.67 0 00.05.18.9.9 0 00-.38.37h-.18a2.49 2.49 0 00-.34-.38L18 18a1.54 1.54 0 00.38-.34zm1.24.02h.18a3.34 3.34 0 00.33.32v.17l-.32.36h-.19l-.31-.35v-.18a1.78 1.78 0 00.35-.32zm.91.33l.34-.32H21l.33.31v.18l-.33.33h-.21c-.1-.11-.2-.21-.31-.31V18zm-7.21-.25h.31l.18.2a2.44 2.44 0 010 .27s-.12.13-.17.17a.43.43 0 01-.4 0l-.06-.07c-.21-.24.08-.36.15-.57zm8.53.25l.22-.25h.24c.09.1.18.18.27.27v.23a3.83 3.83 0 00-.28.29h-.22a4 4 0 00-.3-.28c0-.05 0-.16.06-.22zm-9.75-.14c.31-.17.54.37.21.48s-.5-.35-.21-.48zm11.21-.02c.19-.09.47 0 .44.27s-.47.38-.56.1 0-.28.12-.37zm1.24-.01c.32-.16.62.3.31.5s-.64-.29-.31-.5zm1.28.06c.28-.17.5.29.22.43a.24.24 0 01-.22-.43zm-14.9.11c.17-.05.24.23.07.27s-.23-.23-.07-.27zM13 19.17l.24-.24h.24l.33.33v.18a1.09 1.09 0 00-.37.4l-.26-.08-.18-.24a.43.43 0 010-.35zm1.59-.29a2.33 2.33 0 01-.34.36s0 .13-.06.17a.59.59 0 01.29.88.56.56 0 01-1-.17l-.26.05-.27.27-.06.06v.25a.51.51 0 01.32.48c0 .22-.21.33-.33.47a.17.17 0 000 .28c.16.15.38.33.3.58s-.24.31-.43.36v.31c.19.1.44.22.41.48s-.21.39-.42.43v.4a.42.42 0 01.4.52c0 .2-.27.25-.42.34v.4c0 .13.37.13.38.33s-.14.38-.31.47l-.09.06c0 .13-.06.33.09.4s.33.2.29.4-.17.27-.3.36a.38.38 0 000 .5c.1.12.29.21.28.39s-.17.24-.28.34a.45.45 0 000 .56c.1.1.26.18.24.35s-.15.22-.24.31a.46.46 0 000 .6c.08.13.23.25.17.41a1.51 1.51 0 01-.21.23.65.65 0 00.05.67.32.32 0 010 .51.62.62 0 000 .77l.09.12.21.15a.69.69 0 00-.25 1h.06c.23.13.55.23.76 0s.41-.27.51 0 0 .3-.1.44a.59.59 0 00-.1.53.64.64 0 001 .38.35.35 0 01.51 0 .65.65 0 00.76 0c.14-.18.31-.12.45 0a.62.62 0 00.74 0 .33.33 0 01.53 0 .53.53 0 00.71 0 .34.34 0 01.54 0 .54.54 0 00.68 0 .4.4 0 01.55-.06.62.62 0 00.81-.83c-.06-.16-.21-.39 0-.53s.39 0 .53.11c.43.4 1.19-.28.83-.73-.24-.13-.4-.47-.16-.68a.39.39 0 01.63.33c.15 0 .37.1.47 0s.17-.32.35-.35.26.1.38.18a.55.55 0 00.7 0h.06c.09-.2.17-.47 0-.65s-.29-.48-.05-.64.42 0 .58.16c.41.33 1.1-.28.79-.69-.19-.12-.39-.31-.29-.55a.4.4 0 01.78.14 1.41 1.41 0 00.46 0l.06-.06.24-.25c.1-.11.19-.36 0-.45s-.35-.17-.38-.37a.44.44 0 01.54-.53c.21 0 .29.25.33.44a1.6 1.6 0 00.44 0 .5.5 0 01.38-.36v-.4c-.22 0-.47-.13-.5-.37a.46.46 0 01.64-.52c.19.06.23.27.27.43h.42a.81.81 0 01.34-.39c0-.13 0-.25.06-.38a.48.48 0 01-.4-.76.46.46 0 01.82.25c.48.13.95-.47.64-.87-.08-.13-.22-.25-.17-.41s.19-.21.31-.27a2.09 2.09 0 000-.5.4.4 0 01-.21-.7l.22-.12v-.43c-.13-.1-.34-.19-.33-.39s.13-.27.2-.39a.58.58 0 000-.57l-.11-.12a1.08 1.08 0 00-.53-.09c-.09.2-.25.4-.49.34s-.35-.25-.42-.44h-.23c-.07.18-.13.41-.35.48a.51.51 0 11-.21-1v-.25a.51.51 0 01-.45-.49h-.22a.57.57 0 01-.53.56c-.28 0-.45-.21-.58-.41h-.15c-.1.2-.26.42-.51.4a.49.49 0 01-.54-.59.94.94 0 00-.09.12l-.14-.13a.5.5 0 01-.33.58.55.55 0 01-.72-.58c0-.27.25-.41.48-.48l-.06-.15a.57.57 0 01-.38-.69h-.24a.5.5 0 01-.48.66c-.29.05-.49-.19-.58-.44l-.14.05c-.12.18-.26.41-.52.39s-.47-.19-.6-.4l-.02-.24a.56.56 0 01-.86.39.58.58 0 01.17-1v-.16a1 1 0 01-.42-.37h-.16c-.11.19-.27.4-.52.37a.57.57 0 01-.57-.39h-.15a.72.72 0 01-.44.4 1 1 0 00.05.16.63.63 0 01.37.65.55.55 0 01-1 .16.59.59 0 01.37-.81v-.17a.64.64 0 01-.44-.39h-.16a.75.75 0 01-.44.4 1 1 0 00.05.16.61.61 0 01.37.66c0 .48-.8.58-1 .16a.58.58 0 01.36-.82v-.17a.84.84 0 01-.43-.36l-.16-.05a.88.88 0 01-.39.42 1.54 1.54 0 01-.05.17.55.55 0 01.42.65.54.54 0 01-1 .15.58.58 0 01.36-.81v-.17a.66.66 0 01-.44-.39h-.16a.77.77 0 01-.43.4v.16c.2.13.42.3.38.57a.54.54 0 01-.93.35.59.59 0 01.23-.91v-.17a.87.87 0 01-.41-.37z"/><path class="cls-2" d="M20.07 19.46c.3-.1.74.05.73.42a.52.52 0 01-.66.6.55.55 0 01-.07-1zm-6.31 1.28a.55.55 0 11.05 1 .56.56 0 01-.05-1zm1.24 0a.55.55 0 110 .92.56.56 0 010-.92zm1.26 0a.55.55 0 11-.12.83.55.55 0 01.12-.83zm1.25 0a.55.55 0 11-.08.88.56.56 0 01.08-.88zm1.31-.03a.55.55 0 01.76.6.55.55 0 11-.76-.6zm1.25 0a.55.55 0 11-.14.91.55.55 0 01.14-.91zm1.25 0a.54.54 0 11-.14.91.55.55 0 01.14-.91zm1.24 0a.55.55 0 11-.08.95.55.55 0 01.08-.95zm1.25 0a.54.54 0 01.77.51.55.55 0 11-.77-.51zM13.76 22a.55.55 0 01.83.4.54.54 0 01-.74.57.55.55 0 01-.09-1zM15 22a.56.56 0 01.82.58.54.54 0 01-.84.34A.56.56 0 0115 22zm1.33 0a.54.54 0 01.75.6.54.54 0 11-.75-.6zm1.24 0a.54.54 0 11-.09.94.55.55 0 01.09-.94zm1.25 0a.54.54 0 11-.09.94.55.55 0 01.09-.94zm1.25 0a.55.55 0 01.74.65.54.54 0 11-.74-.65zm1.24 0a.55.55 0 11-.13.91.55.55 0 01.13-.91zm1.26 0a.54.54 0 11-.15.9.55.55 0 01.15-.9zm1.24 0a.54.54 0 11-.09.94.55.55 0 01.09-.94zm1.25 0a.54.54 0 11-.14.9.54.54 0 01.14-.9zm1.25 0a.54.54 0 01.76.51.54.54 0 11-.76-.51zm1.24 0a.54.54 0 01.77.51.55.55 0 11-.77-.51zm-13.72 1.21a.55.55 0 11-.13.91.55.55 0 01.13-.91zm1.25-.01a.55.55 0 11-.09.95.56.56 0 01.09-.95zm1.24.01a.54.54 0 11-.14.9.55.55 0 01.14-.9zm1.25 0a.54.54 0 11-.13.9.55.55 0 01.13-.9zm1.25 0a.54.54 0 110 1 .55.55 0 010-1zm1.25 0a.54.54 0 11-.14.9.55.55 0 01.14-.9zm1.24 0a.54.54 0 11-.13.9.54.54 0 01.13-.9zm1.25 0a.55.55 0 01.75.65.56.56 0 01-.94.2.54.54 0 01.19-.85zm1.25 0a.54.54 0 11-.09.94.55.55 0 01.09-.94zm1.25-.01a.54.54 0 11-.09.95.56.56 0 01.09-.95zm1.24.01a.54.54 0 11-.08.94.55.55 0 01.08-.94zm1.25 0a.54.54 0 110 1 .54.54 0 010-1zm1.25 0a.53.53 0 01.76.51.54.54 0 01-.79.47.55.55 0 010-1zm1.25 0a.53.53 0 01.76.51.54.54 0 01-.79.47.55.55 0 010-1zm-16.21 1.25a.53.53 0 11-.09.94.55.55 0 01.09-.94zm1.24-.01a.55.55 0 11-.14.91.55.55 0 01.14-.91zm1.25 0a.55.55 0 01.75.6.54.54 0 01-.84.35.55.55 0 01.09-.95zm1.25 0a.55.55 0 11-.1.95.55.55 0 01.1-.95zm1.24 0a.55.55 0 11-.09.95.55.55 0 01.09-.95zm1.25 0a.55.55 0 11-.09.95.55.55 0 01.09-.95zm1.25 0a.55.55 0 11-.1.95.55.55 0 01.1-.95zm1.24 0a.55.55 0 11-.09.95.55.55 0 01.09-.95zm1.24.01a.55.55 0 01.77.59.55.55 0 11-.77-.59zm1.26-.01a.55.55 0 11-.09.95.56.56 0 01.09-.95zm1.24 0a.55.55 0 01.77.52.54.54 0 01-.8.46.56.56 0 010-1zm1.25.01a.54.54 0 110 1 .55.55 0 010-1zm1.25 0a.53.53 0 01.76.51.55.55 0 01-.79.47.55.55 0 010-1zm1.2 0a.54.54 0 01.77.51.53.53 0 01-.79.46.55.55 0 010-1zM15.08 25.7a.55.55 0 11-.14.91.55.55 0 01.14-.91zm1.25 0a.54.54 0 11-.15.9.54.54 0 01.15-.9zm1.24 0a.54.54 0 11-.09.94.55.55 0 01.09-.94zm1.25 0a.55.55 0 01.76.59.55.55 0 11-.76-.59zm1.25 0a.55.55 0 01.77.51.55.55 0 11-.77-.51zm1.25 0a.54.54 0 11-.1.94.54.54 0 01.1-.94zm1.24 0a.55.55 0 01.76.59.55.55 0 11-.76-.59zm1.24 0a.56.56 0 01.78.51.55.55 0 01-.86.43.55.55 0 01.08-.94zm1.26 0a.54.54 0 110 1 .55.55 0 010-1zm1.25 0a.54.54 0 11-.1.94.55.55 0 01.1-.94zm1.24 0a.55.55 0 110 1 .56.56 0 010-1zm1.25 0a.54.54 0 11-.09.94.55.55 0 01.09-.94zm1.2 0a.54.54 0 11-.09.94.56.56 0 01.09-.94zm-16.24.1a.49.49 0 11.07.84.49.49 0 01-.07-.84zm1.32 1.2a.54.54 0 11-.09.94.54.54 0 01.09-.94zm1.25 0a.54.54 0 11-.15.9.54.54 0 01.15-.9zm1.24 0a.54.54 0 11-.14.9.55.55 0 01.14-.9zm1.25 0a.54.54 0 11-.09.94.55.55 0 01.09-.94zm1.25 0a.54.54 0 11-.09.94.54.54 0 01.09-.94zm1.24 0a.54.54 0 11-.09.94.55.55 0 01.09-.94zm1.25 0a.55.55 0 01.76.6.55.55 0 11-.76-.6zm1.25 0a.55.55 0 110 1 .55.55 0 010-1zm1.25 0a.54.54 0 11-.09.94.54.54 0 01.09-.94zm1.24 0a.54.54 0 110 1 .55.55 0 010-1zm1.26 0a.54.54 0 110 1 .55.55 0 010-1zm1.24 0a.53.53 0 01.76.51.54.54 0 01-.79.47.55.55 0 010-1zm-14.96 0a.46.46 0 110 .8.46.46 0 010-.8zm1.25 1.2a.53.53 0 01.74.5.54.54 0 01-.83.44.55.55 0 01.09-.94zm1.24-.01a.55.55 0 11-.09.95.56.56 0 01.09-.95zm1.25 0a.55.55 0 11-.1.95.55.55 0 01.1-.95zm1.24 0a.55.55 0 01.76.6.55.55 0 01-.85.35.55.55 0 01.09-.95zm1.25 0a.55.55 0 01.76.52.54.54 0 01-.8.46.55.55 0 010-1zm1.25 0a.55.55 0 11-.1.95.56.56 0 01.1-.95zm1.25 0a.55.55 0 11-.1.95.55.55 0 01.1-.95zm1.24 0a.55.55 0 110 1 .55.55 0 010-1zm1.25.01a.54.54 0 01.76.51.54.54 0 11-.76-.51zm1.24 0a.54.54 0 110 1 .54.54 0 010-1zm1.25 0a.54.54 0 01.77.5.55.55 0 11-.77-.5zm-13.69.1a.43.43 0 110 .76.45.45 0 010-.76zm2.46 1.14a.55.55 0 11-.09.95.56.56 0 01.09-.95zm1.26 0a.55.55 0 01.76.52.55.55 0 11-.76-.52zm1.24 0a.55.55 0 11-.09.95.55.55 0 01.09-.95zm1.25 0a.54.54 0 11-.09.95.55.55 0 01.09-.95zm1.25 0a.54.54 0 01.75.6.55.55 0 11-.75-.6zm1.25 0a.54.54 0 11-.15.9.55.55 0 01.15-.9zm1.24.01a.54.54 0 11-.09.93.54.54 0 01.09-.93zm1.25 0a.54.54 0 01.76.49.54.54 0 11-.76-.49zm1.26.01a.52.52 0 01.73.49.53.53 0 01-.88.38.54.54 0 01.15-.87zM15 29.55a.49.49 0 01.77.4.48.48 0 01-.75.39.49.49 0 010-.79zm-1.16.06a.39.39 0 11.07.7.4.4 0 01-.07-.7zm2.51 1.1a.51.51 0 11-.15.86.52.52 0 01.15-.86zm1.22-.02a.55.55 0 01.76.6.54.54 0 11-.76-.6zm1.25 0a.54.54 0 11-.09.94.55.55 0 01.09-.94zm1.25 0a.54.54 0 11-.09.94.54.54 0 01.09-.94zm1.25 0a.54.54 0 11-.09.95.55.55 0 01.09-.95zm1.24 0a.54.54 0 11-.09.94.55.55 0 01.09-.94zm1.25 0a.55.55 0 01.77.51.54.54 0 11-.77-.51zm-8.63.09a.43.43 0 01.51.6.44.44 0 01-.78 0 .43.43 0 01.27-.6zm9.82.01a.5.5 0 01.76.24.49.49 0 01-.68.6.51.51 0 01-.08-.84zm-11.15.1a.35.35 0 01.54.22.35.35 0 01-.39.43.36.36 0 01-.15-.65zM17.67 32a.5.5 0 01.59.68.51.51 0 01-.89.08.5.5 0 01.3-.76zm1.16-.06a.53.53 0 11-.09.94.55.55 0 01.09-.94zm1.24 0a.54.54 0 11-.09.94.55.55 0 01.09-.94zm1.24 0a.54.54 0 11-.09.94.55.55 0 01.09-.94zm1.28.06a.51.51 0 11-.15.86.52.52 0 01.15-.86zm-6.24 0a.44.44 0 11-.14.68.45.45 0 01.14-.68zm7.48 0a.45.45 0 01.65.4.45.45 0 11-.65-.4zm-8.74.12a.38.38 0 11-.12.5.4.4 0 01.12-.5zm-1.25.07c.19-.14.56 0 .51.25a.3.3 0 01-.44.28.33.33 0 01-.07-.53zm3.84 1.09a.42.42 0 11-.16.71.42.42 0 01.16-.71zm1.16.01a.44.44 0 11-.16.64.44.44 0 01.16-.64zm1.25 0A.44.44 0 1120 34a.45.45 0 01.14-.68zm1.25 0a.44.44 0 01.59.23.43.43 0 01-.51.58.45.45 0 01-.08-.81zm-6.15.08a.33.33 0 01.42.41.34.34 0 01-.57.11.34.34 0 01.15-.52zm1.16-.01a.38.38 0 01.57.34c0 .31-.4.46-.62.28a.4.4 0 01.05-.62zm-2.51.08c.19-.16.56 0 .52.25a.31.31 0 01-.45.28.33.33 0 01-.07-.53zm3.85 1.18a.33.33 0 01.39.47.34.34 0 01-.58 0 .34.34 0 01.19-.47zm1.24-.01c.42-.18.63.55.21.65s-.61-.53-.21-.65zm1.24 0c.18 0 .42 0 .44.23a.33.33 0 01-.43.41.34.34 0 010-.64zm-4.99.09a.26.26 0 01.36.32c0 .16-.22.19-.36.16s-.2-.41 0-.48zm1.15 0a.31.31 0 11-.06.39c0-.13-.05-.3.06-.39zm5.75-15.82h.16a1 1 0 00.4.38v.17a1 1 0 00-.38.38h-.18a1 1 0 00-.35-.4 1 1 0 010-.18 1 1 0 00.38-.36zm1.24.03h.18l.31.33a.85.85 0 01.06.17 1.48 1.48 0 00-.37.38h-.18a1.31 1.31 0 00-.33-.37v-.19a2.12 2.12 0 00.34-.33zm-11.32.2a.31.31 0 01.51.24.29.29 0 01-.44.27.31.31 0 01-.07-.51zm12.44-.01c.1-.12.28-.06.42-.08l.14.16c0 .1 0 .2-.05.3l-.15.27a.21.21 0 00-.27-.08l-.21-.16c0-.14 0-.31.12-.41zm1.17.43a.36.36 0 01.23-.5c.26-.09.47.2.41.45-.07.08-.15.16-.22.25a.53.53 0 00-.28-.07l-.14-.13zm1.27-.01a.34.34 0 01.29-.5c.27 0 .36.3.29.52l-.06.1h-.43l-.09-.15zm1.39-.4c.31-.18.57.35.24.47a.27.27 0 01-.24-.47zm-17.45.1a.17.17 0 01.28.18c0 .15-.2.09-.3.11s-.06-.21 0-.29zm1.02 1.48a.34.34 0 01.46-.39.38.38 0 01.19.56l-.07.07c-.21.15-.58 0-.58-.24zm13.88-.32c.12-.1.28 0 .42 0l.08.06a1.93 1.93 0 000 .34L26 21h-.2l-.27-.25c.06-.12.07-.26.18-.35zm1.08.35c0-.17.07-.4.29-.41s.45.19.4.42l-.22.25L27 21a2.5 2.5 0 00-.22-.24zm1.3.01a.33.33 0 01.41-.4c.22 0 .22.28.27.45h.11l-.29.21-.34.05-.16-.26zm-17.28-.28c.1-.08.23 0 .33 0s0 .35-.17.37-.37-.31-.16-.41zm18.69-.02a.27.27 0 01.4.3.26.26 0 01-.45.07.26.26 0 01.05-.37zm1.24.09l.19-.07c.12.09.21.28 0 .35s-.24-.13-.22-.28zm-21.12.08c.26-.14 0 .3 0 0zm2.28 1.54a.42.42 0 01.3-.73l.22.06.08.1c.31.33-.28.89-.6.57zm17.59-.66a.38.38 0 01.5.51c-.09.21-.34.18-.52.22a1.92 1.92 0 00-.18-.22c0-.19 0-.45.21-.52zm1.18.04a.38.38 0 110 .62.4.4 0 010-.62zm-19.86.08c.27-.17.54.3.25.44s-.57-.3-.25-.44zm21.18.02c.27-.18.54.29.24.42s-.48-.27-.24-.42zm-22.35.07a.14.14 0 01.08.26c-.16.05-.25-.21-.08-.26zm2.1 1.4a.45.45 0 01.66-.42l.18.15a1.14 1.14 0 010 .52l-.13.09a.44.44 0 01-.71-.34zm20.18-.33a.38.38 0 110 .63.39.39 0 010-.63zm-21.19.1c.28-.31.71.23.37.45s-.63-.23-.37-.45zm22.53.01c.28-.2.54.3.22.42s-.46-.29-.22-.42zm-23.73.3c0-.1.07-.34.23-.21s-.07.31-.23.21zm2.19 1.24a.48.48 0 01.7-.49l.17.15a.64.64 0 010 .49l-.15.18a.48.48 0 01-.71-.33zM32 24a.37.37 0 01.53.35.38.38 0 01-.6.3A.39.39 0 0132 24zm-21.27.12c.31-.33.74.25.39.48s-.68-.25-.39-.48zm22.63-.02a.25.25 0 01.1.48c-.3.09-.42-.43-.1-.48zm-23.83.16l.22-.1c.06.09.15.22 0 .31s-.24-.09-.25-.21zm2.18 1.41a.49.49 0 01.73-.49.91.91 0 01.16.11 1.22 1.22 0 010 .6l-.14.08a.48.48 0 01-.77-.3zM32 25.25a.37.37 0 110 .68.38.38 0 010-.68zm-21.27.09a.33.33 0 11.06.54.33.33 0 01-.06-.54zm22.54.04c.27-.16.53.27.25.42s-.5-.26-.25-.42zm-23.68.07a.17.17 0 01.19.27c-.17.13-.33-.14-.19-.27zm2.17 1.11a.6.6 0 01.72-.19l.09.14a.5.5 0 11-.81 0zm-.93-.04c.3-.14.59.31.35.52a.32.32 0 11-.35-.52zm21.1 0a.38.38 0 01.6.32.39.39 0 01-.6.3.38.38 0 010-.62zm-22.36.19c.13-.18.4.08.26.22s-.44-.07-.26-.22zm2.17 1.14a.53.53 0 01.76-.2l.07.07a.52.52 0 01-.26.83.5.5 0 01-.57-.7zm-.92-.09a.33.33 0 01.43.41.33.33 0 11-.43-.41zm19.93-.04a.37.37 0 01.53.36.38.38 0 01-.53.33.38.38 0 010-.69zm1.25.09a.29.29 0 01.43.27.3.3 0 01-.53.16.3.3 0 01.1-.43zM9.58 28a.16.16 0 01.28.09c0 .13-.11.22-.22.2S9.46 28 9.58 28zm2.42.84a.5.5 0 11-.13.84.51.51 0 01.13-.84zm-1.12.16a.32.32 0 11-.19.53.32.32 0 01.19-.53zm18.61 0a.38.38 0 11-.08.63.38.38 0 01.08-.63zm1.28 0c.4-.21.66.5.23.61s-.6-.46-.23-.61zm-21.19.18a.16.16 0 01.23.23c-.16.11-.36-.06-.23-.23zm2.32.99a.49.49 0 00.1.83.48.48 0 10-.06-.83zm16.16.12l.07-.07a.44.44 0 01.68.36.42.42 0 01-.7.3.46.46 0 01-.05-.59zm-17.33.03a.31.31 0 11-.08.4.31.31 0 01.08-.4zm18.68.01a.33.33 0 01.56.24.32.32 0 01-.54.24.33.33 0 010-.48zm-19.84.1c.14 0 .32.05.23.23s-.28-.08-.23-.23zm2.43.97a.46.46 0 110 .8.46.46 0 010-.8zm15-.01a.47.47 0 01.61.43.45.45 0 11-.61-.43zm-16.26.21c.18-.16.52 0 .48.22a.29.29 0 01-.41.26.3.3 0 01-.07-.48zm17.52-.05a.3.3 0 01.44.28.29.29 0 11-.44-.28zm-18.68.2c.08-.14.32 0 .21.14s-.3 0-.21-.14zm19.42.62c.3 0-.15.25 0 0zm-17 .31a.43.43 0 01.61.47.44.44 0 01-.66.28.44.44 0 01.05-.75zm13.79-.01a.39.39 0 01.52.4.4.4 0 01-.68.29.41.41 0 01.16-.69zm-14.99.15a.28.28 0 110 .49.28.28 0 010-.49zm16.2.02c.28-.21.56.33.24.45s-.52-.31-.24-.45zm1.3.16c.07-.15.31 0 .21.14s-.3 0-.21-.14zm-5.21.94a.49.49 0 01.8.37.48.48 0 01-.75.4A.52.52 0 0123 34l.06-.07zM12 34a.37.37 0 110 .64.39.39 0 010-.64zm12.54 0a.33.33 0 01.46.33.34.34 0 01-.51.29.35.35 0 01.05-.62zm-13.71.11c.24-.14.47.26.23.38s-.49-.25-.23-.38zm15.07 0c.26 0 .28.38 0 .41s-.32-.42 0-.41zm-15.63.77c.29 0-.12.27 0 0zm2.95.25a.46.46 0 01.67.43.45.45 0 01-.66.4.47.47 0 010-.83zm-1.15.11a.32.32 0 01.44.33.33.33 0 11-.44-.33zm9.93-.02a.39.39 0 11.06.69.4.4 0 01-.06-.69zm-11.22.15c.1 0 .23 0 .31.06s0 .2 0 .3h-.26a1 1 0 010-.34zm12.49-.06a.27.27 0 110 .45.28.28 0 010-.45zm1.37.12c.14-.08.22.27 0 .22s-.17-.2 0-.22zm-8.85.85a.54.54 0 01.65.67.53.53 0 01-.87.25.55.55 0 01.22-.92zm1.21.01a.55.55 0 11-.2.88.55.55 0 01.2-.88zm-2.54.09a.48.48 0 11-.05.82.48.48 0 01.05-.82zm3.66 0a.53.53 0 01.82.51.52.52 0 01-.81.34.53.53 0 010-.85zm1.44.03a.4.4 0 01.52.39.41.41 0 11-.52-.39zm-6.33.07a.38.38 0 01.57.33.37.37 0 01-.52.34.39.39 0 010-.67zm-1.16.1a.25.25 0 11-.12.31.23.23 0 01.12-.31zm8.64 0a.31.31 0 01.52.24.31.31 0 01-.56.17.31.31 0 010-.41zm-9.78.12c.13-.08.19.22 0 .22s-.23-.24 0-.22zM22 36.63a1.17 1.17 0 01.32 0c.09.16 0 .39-.24.31s-.1-.22-.08-.35zm-9.24.74c.3 0-.13.26 0 0zm1.81.38a.31.31 0 01.43.31.32.32 0 11-.43-.31zm1.21-.04a.37.37 0 01.5.43.36.36 0 01-.59.18.38.38 0 01.09-.61zm1.22 0a.38.38 0 01.5.26.36.36 0 01-.55.38.37.37 0 01.05-.64zm-3.69.12c.19-.14.46.1.37.31a.26.26 0 01-.48 0 .23.23 0 01.11-.31zm4.92.01a.28.28 0 01.45.07.29.29 0 11-.45-.07zm-6.16.09c.12-.17.39.07.25.22s-.44-.07-.25-.22zm7.47-.03c.12-.08.33 0 .32.14s-.22.28-.31.14-.05-.19 0-.28zm1.31.1c.14 0 .19 0 .15.14s-.2 0-.15-.14zm-6.34 1.39c0-.17.1-.26.22-.35a1 1 0 00.17.35zm1.25 0c0-.21.11-.32.31-.27a2.48 2.48 0 010 .27zm-2.44-.23h.21a1.94 1.94 0 010 .24h-.23v-.23zm3.74-.01h.21a2 2 0 01.05.24h-.26v-.24z"/><path class="cls-3" d="M18.37 10.62c.27-.11 0 .3 0 0zm1.25.01c.26-.14 0 .3 0 0zm-2.49 1.12c.1-.08.22.1.11.17a.1.1 0 11-.11-.17zm1.26-.04c.17-.06.24.23.06.26s-.23-.23-.06-.26zm1.24 0c.18-.06.25.23.07.26s-.23-.23-.07-.26zm2.48.09c.26-.14 0 .3 0 0zm-3.9 1.25a.31.31 0 01.4-.08c0 .1 0 .26-.15.27s-.18-.12-.25-.19z"/><path class="cls-3" d="M18.38 13c0 .3.26-.14 0 0zm1.18-.09c.19-.17.45.18.24.32s-.48-.19-.24-.32zm1.24.01c.19-.18.46.16.25.31s-.48-.18-.25-.31zm1.25-.01c.24-.14.45.24.19.34s-.34-.2-.19-.34zm1.35.01c.23-.05.22.36 0 .31s-.19-.31 0-.31zm1.22.08c.17-.07.25.23.07.26a.13.13 0 01-.07-.26zm-5.17 1.55c-.1-.21.05-.51.31-.42s.15.52-.14.47l-.12.11a1 1 0 00-.05-.16z"/><path class="cls-3" d="M19.56 14.29c-.1.13.12.27.21.14s-.13-.28-.21-.14zm1.16-.15a.3.3 0 11.06.48.3.3 0 01-.06-.48zm1.28-.01a.3.3 0 01.5.24c0 .23-.27.36-.45.26a.32.32 0 01-.05-.5zm1.2.01a.31.31 0 01.47.08.29.29 0 01-.32.43.31.31 0 01-.15-.51zm1.33 0c.28-.19.55.28.26.44s-.55-.29-.26-.44zm1.36 0a.22.22 0 01.17.37c-.12.13-.38 0-.35-.15s.07-.19.18-.22zm-7.63.07h.3c0 .12.07.33-.11.35s-.22-.19-.19-.32z"/><path class="cls-3" d="M18.39 14.3c-.15.26.3 0 0 0zm8.61-.07h.24l.1.17c-.09.1-.23.21-.34.07v-.22zm1.39.03c.12-.1.2.28 0 .19-.14.06-.18-.2 0-.19zm-6.55 1.51a.37.37 0 01.44-.52c.25.06.29.36.22.57l-.07.06A.9.9 0 0122 16l-.19-.2z"/><path class="cls-3" d="M22.1 15.54c0 .14 0 .19.15.14s0-.19-.15-.14zm.96.26a.41.41 0 01.3-.59.4.4 0 01.42.57.43.43 0 01-.59.16l-.13-.14zm1.38-.53a.41.41 0 01.62.25.4.4 0 11-.62-.25zm1.32.01a.36.36 0 01.5.42.36.36 0 11-.5-.42zm-5.1.53c-.14-.21 0-.57.28-.51s.38.31.25.49l-.08.1h-.36a.76.76 0 00-.09-.09z"/><path class="cls-3" d="M20.75 15.6c0 .17.18.15.28.2 0-.1.11-.27 0-.33a.16.16 0 00-.26.13zm6.25-.22c.27-.28.72.16.44.44s-.74-.17-.44-.44zm1.27.01c.27-.21.57.28.27.43s-.55-.27-.27-.43zm1.22.04c.12 0 .28 0 .34.09s-.19.39-.3.22 0-.21 0-.31zm1.39.31c-.21-.08-.05-.29.11-.29s.06.29-.11.29zm-6.45.64a.68.68 0 01.54.05.94.94 0 00.1.1 1 1 0 01.08.48.84.84 0 00-.32.3h-.28a.76.76 0 00-.39-.38c0-.11 0-.21.07-.32l.2-.24z"/><path class="cls-3" d="M24.49 17h.25a.18.18 0 00-.06-.34c-.19 0-.16.19-.19.32zm1.1-.56a1.14 1.14 0 00-.11.11 2.42 2.42 0 00-.06.46 2 2 0 01.33.31 1.51 1.51 0 00.42-.05c0-.05.13-.13.18-.18a.51.51 0 00-.76-.65zm-2.59.24a3.08 3.08 0 00.24-.27 1.19 1.19 0 01.42 0l.15.17a.52.52 0 010 .37l-.3.29h-.21a3.11 3.11 0 00-.31-.32v-.25z"/><path class="cls-3" d="M23.3 16.65c-.25.15.06.56.26.32s0-.43-.26-.32zm3.63-.22a.46.46 0 11-.07.75.46.46 0 01.07-.75zm1.35.03a.4.4 0 01.53.4.4.4 0 11-.53-.4zm-6.47.23l.22-.22h.34l.12.12c0 .11.05.22.08.33a2.76 2.76 0 00-.3.29l-.27-.04-.19-.17v-.29z"/><path class="cls-3" d="M22 16.68c-.18.19.11.5.29.3s-.09-.49-.29-.3zm7.52-.14a.33.33 0 01.45.4.34.34 0 01-.57.1.33.33 0 01.12-.5zm1.24.09c.3-.23.59.33.24.44s-.49-.3-.24-.44zm1.37.01c.2 0 .32.31.09.37s-.37-.34-.09-.37zm1.23.09c.11-.08.24.12.12.2s-.3-.16-.12-.2zm-7.65.92a.3.3 0 01.44 0l.26.2v.38a.5.5 0 000 1v.23l-.21.05c.06-.25-.15-.54-.41-.45a.36.36 0 00-.23.5 1 1 0 00-.23-.12v-.15a.56.56 0 000-1.09V18a3.26 3.26 0 00.33-.31z"/><path class="cls-3" d="M25.79 17.89a.24.24 0 00.22.43c.28-.14.06-.6-.22-.43zm.07.76v.15c.2.2.2-.35 0-.15zm1.06-1.05a.64.64 0 01.6.07l.09.1a1.28 1.28 0 01.09.51.7.7 0 00-.35.33h-.32a.65.65 0 00-.42-.43c0-.11 0-.22.05-.33l.26-.28zm1.13.06l-.09.09a1.12 1.12 0 00-.09.54.71.71 0 01.32.3.69.69 0 00.49 0l.2-.2a.56.56 0 00-.83-.72zm-4.73 0h.2c.1.11.2.21.31.31v.22a1 1 0 00-.34.34h-.18a1.33 1.33 0 00-.35-.36A1 1 0 0023 18a1.82 1.82 0 00.34-.34z"/><path class="cls-3" d="M23.27 17.84c-.1.09-.2.23-.12.37s.58.19.56-.1-.25-.36-.44-.27zm1.29-.25h.26l.25.27c.05.09.09.19.14.28a.68.68 0 00-.47.42l-.2-.09a.77.77 0 00-.42-.33 1.86 1.86 0 01.1-.2.87.87 0 00.34-.37z"/><path class="cls-3" d="M24.51 17.83c-.33.21 0 .74.31.5s0-.66-.31-.5zm4.91-.15a.48.48 0 01.7.43.47.47 0 11-.7-.43zm1.26.09a.38.38 0 01.6.34.38.38 0 01-.54.34.4.4 0 01-.06-.68zm1.24.1a.32.32 0 11.08.51.32.32 0 01-.08-.51zm1.35.03c.27-.2.51.29.23.4s-.48-.28-.23-.4zm1.26.1c.17-.15.4.16.19.26a.16.16 0 01-.19-.26zm1.29 0q.23-.06.15.15-.22.06-.15-.15zm-8.82.82h.33a2.83 2.83 0 00.3.3c0 .1 0 .21.05.31h.2v-.3a1.11 1.11 0 00.29-.32 1.06 1.06 0 01.53.08l.15.14a.52.52 0 010 .51 1.31 1.31 0 00-.3.32h-.31c-.06-.4-.5-.46-.82-.35.07-.22 0-.52-.29-.52a.34.34 0 00-.29.5l-.26-.1v-.19a.59.59 0 00.4-.38z"/><path class="cls-3" d="M28.27 19.12a.27.27 0 00.24.47c.33-.12.07-.65-.24-.47zm1.05-.21a.56.56 0 01.85.26c.2.42-.36.93-.73.64l-.24-.22a.53.53 0 010-.57l.11-.11zm1.07.54a.57.57 0 00.88.34l.08-.09a.59.59 0 00-.25-.85.53.53 0 00-.71.6zm-5.84-.56h.19l.12.14c-.14 0-.32 0-.42.08s-.09.27-.12.41l-.14-.08v-.18a.69.69 0 00.37-.36zm7.39.11a.44.44 0 11-.09.71.45.45 0 01.09-.71zm1.33 0a.35.35 0 11-.18.48.36.36 0 01.18-.48zm1.24.13c.28-.21.57.27.29.44s-.59-.29-.29-.44zm-9.51.05h.14v.23h-.22c0-.1 0-.2.05-.3zm10.76.03c.18-.15.42.08.27.25s-.43-.07-.27-.25zm1.31.07q.21-.08.15.15c-.15 0-.19 0-.15-.15zm-12.54.39a.21.21 0 01.27.08v.07h-.24v-.16zm1.22-.01a.53.53 0 01.28.07v.15h-.21c0-.06 0-.18-.05-.24zm1.25.01l.08.14.05.07h.16a2 2 0 01.14-.25H27zm.07.45h.21a.76.76 0 00.36.35l.1.19a1.06 1.06 0 00-.25.09c.05-.23-.15-.5-.4-.42s-.25.24-.29.41l-.16-.06v-.17a1 1 0 00.39-.38zm-1.25 0H26l.15.24c-.14 0-.3-.07-.42 0s-.12.23-.18.35h-.16v-.22a.61.61 0 00.4-.35zm2.45 0h.34c.1.13.22.25.33.38a.37.37 0 010 .25h-.11c-.05-.17-.05-.42-.27-.45a.33.33 0 00-.41.4l-.23-.06v-.22a.87.87 0 00.37-.34zm1.18.05l-.29.24a3.06 3.06 0 00-.05.32.57.57 0 01.4.46c.14 0 .31 0 .4-.12a2 2 0 01.26-.24c.18-.41-.33-.92-.72-.66z"/><path class="cls-3" d="M29.51 20.44a.27.27 0 01.4.3.26.26 0 01-.45.07.26.26 0 01.05-.37zm.87.39a.69.69 0 01.28.33.92.92 0 00.59-.08l.11-.12a.55.55 0 10-1-.13z"/><path class="cls-3" d="M30.75 20.53l.19-.07c.12.09.21.28 0 .35s-.24-.13-.22-.28zm.96.47a.56.56 0 01.37-.88.55.55 0 01.58.75l-.12.21v.05a.75.75 0 01-.75-.08l-.08-.05zm1.45-.74a.45.45 0 11.17.83.45.45 0 01-.17-.83zm1.26.1a.37.37 0 01.58.23.36.36 0 01-.51.38.38.38 0 01-.07-.61zm1.44.04c.34-.07.4.5 0 .5s-.36-.49 0-.5zm-9.64.01l.21.09v.17l-.2.08a1.93 1.93 0 010-.34zm10.78.15a.16.16 0 01.27.17.16.16 0 01-.27-.17zM25.81 21H26v.16a.94.94 0 00-.09.12l-.14-.13a.88.88 0 010-.16zM27 21h.25a1 1 0 000 .17h-.17c0-.06 0-.16-.06-.21zm1.26 0h.34c0 .06 0 .18-.05.25h-.22a1.46 1.46 0 00-.07-.19zm1.24.3l.39.05.26.24v.42a.57.57 0 00-.34.34h-.31l-.06-.12c.18 0 .43 0 .52-.22a.38.38 0 00-.49-.52c-.22.07-.2.33-.21.52l-.11-.01v-.28a.6.6 0 00.35-.38zm1.14.04a.82.82 0 01.63.06l.05.05a.74.74 0 01.06.72l-.18.12a.62.62 0 01-.46.07v-.06a.67.67 0 00-.32-.28v-.44a1.36 1.36 0 00.24-.24z"/><path class="cls-3" d="M30.68 21.53a.4.4 0 000 .62.38.38 0 100-.62zm.99.53l.14.22a.57.57 0 00.81-.16.55.55 0 00-.36-.82.54.54 0 00-.59.76z"/><path class="cls-3" d="M32 21.63c.27-.18.54.29.24.42s-.48-.27-.24-.42zm1.24-.31a.54.54 0 10.67.71.54.54 0 00-.67-.71zm1.28.12a.42.42 0 01.55.4.42.42 0 11-.55-.4zm1.16.17a.31.31 0 01.51.14.3.3 0 01-.37.38.31.31 0 01-.14-.52zm1.32.1a.18.18 0 01.29.08.18.18 0 01-.22.22.19.19 0 01-.07-.3zm1.32.05c.15 0 .2 0 .14.15s-.19 0-.14-.15zm-6.52.9a.55.55 0 01.83.16.66.66 0 01-.05.65.34.34 0 00-.06.06.7.7 0 01-.66 0l-.18-.19a.66.66 0 010-.61l.09-.08z"/><path class="cls-3" d="M31.93 22.77a.39.39 0 000 .63.38.38 0 100-.63zm1.24-.18a.54.54 0 01.76.61.54.54 0 11-.76-.61z"/><path class="cls-3" d="M33.27 22.88c-.24.13 0 .56.22.42s.06-.62-.22-.42zm1.15-.2a.46.46 0 01.68.32.46.46 0 11-.68-.32zm1.35.11c.39-.2.63.48.22.59s-.57-.46-.22-.59zM37 23c.17-.2.46.13.25.27s-.4-.11-.25-.27zm1.32 0c.14-.05.19 0 .15.14s-.2 0-.15-.14zm-6.47.9l-.18.13a.77.77 0 000 .63l.09.11a.57.57 0 00.9-.33.55.55 0 00-.85-.54z"/><path class="cls-3" d="M32 24a.37.37 0 01.53.35.38.38 0 01-.6.3A.39.39 0 0132 24zm1.18-.16a.55.55 0 10.76.6.55.55 0 00-.76-.6z"/><path class="cls-3" d="M33.36 24.1a.25.25 0 01.1.48c-.3.09-.42-.43-.1-.48zm1.06-.16a.46.46 0 01.69.4.45.45 0 01-.68.4.46.46 0 010-.8zm1.34.18a.26.26 0 01.4.22.25.25 0 01-.4.22.26.26 0 010-.44zm1.24.09c.16-.13.39.09.24.24s-.43-.08-.24-.24zm-5.18.94a.56.56 0 01.87.34.55.55 0 01-.87.53l-.12-.1a.77.77 0 010-.68l.12-.09z"/><path class="cls-3" d="M32 25.25a.38.38 0 000 .68.37.37 0 100-.68zm1.18-.16a.54.54 0 11-.11.93.55.55 0 01.11-.93z"/><path class="cls-3" d="M33.27 25.38c-.25.16 0 .58.25.42s0-.58-.25-.42zm1.22-.14a.38.38 0 11-.07.66.39.39 0 01.07-.66zm1.28.12c.27-.16.54.27.28.43s-.58-.26-.28-.43zm1.23.27c0-.21.2-.06.28 0-.07.1-.29.16-.28 0zm-5.19.76l-.1.1a.57.57 0 00.29.86.55.55 0 10-.19-1z"/><path class="cls-3" d="M31.93 26.52a.38.38 0 01.6.32.39.39 0 01-.6.3.38.38 0 010-.62zm1.24-.11a.47.47 0 01.69.42.46.46 0 01-.73.38.47.47 0 010-.8zm1.26.19a.31.31 0 11.14.53.31.31 0 01-.14-.53zm1.34.1c.16-.15.41.1.25.24s-.41-.08-.25-.24zm-5.02.82a.57.57 0 01.69.64.55.55 0 01-.85.35l-.13-.1a1.39 1.39 0 01-.1-.5.54.54 0 00.32-.27.75.75 0 00.07-.12z"/><path class="cls-3" d="M30.75 27.72a.38.38 0 000 .69.38.38 0 00.53-.33.37.37 0 00-.53-.36zm1.16-.07a.47.47 0 01.71.43.47.47 0 01-.72.38.48.48 0 010-.81z"/><path class="cls-3" d="M32 27.81a.3.3 0 00-.1.43.3.3 0 00.53-.16.29.29 0 00-.43-.27zm1.27-.05a.33.33 0 01.45.24.33.33 0 01-.48.35.34.34 0 010-.59zm1.25.17c.15-.1.38 0 .29.21a.18.18 0 11-.29-.21zm-3.85.96a.47.47 0 110 .83.47.47 0 010-.83z"/><path class="cls-3" d="M30.77 29c-.37.15-.14.76.23.61s.17-.82-.23-.61zM32 29c.33-.17.61.36.29.54s-.69-.39-.29-.54zm1.19.33c.07-.11.17-.23.32-.17s.09.21 0 .27-.22-.05-.31-.1zm-3.91.89c.2 0 .46-.13.63 0a.42.42 0 01-.24.74c-.38 0-.51-.39-.44-.68l.05-.08z"/><path class="cls-3" d="M29.41 30.33a.33.33 0 000 .48.32.32 0 00.54-.24.33.33 0 00-.56-.24zm1.34-.01a.28.28 0 01.42.26c0 .26-.37.37-.51.16a.28.28 0 01.09-.42zm1.37.12c.18-.06.19.32 0 .24s-.16-.22 0-.24zm-2.58 1.18c.12-.05.29 0 .32.12a.21.21 0 01-.22.29c-.22 0-.26-.32-.1-.41zm1.3.12c.14 0 .19 0 .14.15s-.19 0-.14-.15z"/><path d="M14 8.63c.16-.12.24.27 0 .22s-.13-.2 0-.22zm1.25.03q.23-.06.15.15-.21.06-.15-.15zM12.66 10c0-.16.15-.13.26-.16v.26c-.09.06-.25 0-.26-.1zM14 9.86c.12-.11.24 0 .26.14s-.45.08-.26-.14zm1.15.14c0-.15.15-.13.25-.16s0 .21 0 .28-.27 0-.28-.12zm1.29-.15c.16 0 .33.14.14.25s-.14-.14-.14-.25zm1.3.07c.12 0 .17 0 .12.12s-.17 0-.12-.12zm-5.17 1.14c.13 0 .28-.15.39 0s-.07.6-.3.38c-.14-.07-.06-.24-.09-.36zm1.28-.06c.26-.27.67.16.41.41s-.69-.17-.41-.41zm1.25 0a.28.28 0 11.08.46.28.28 0 01-.08-.46zm1.31 0c.32-.23.58.38.22.47s-.5-.35-.22-.47zm1.27 0c.24-.16.47.25.24.38s-.49-.26-.24-.38zm1.21.05c.1 0 .31 0 .31.12a.17.17 0 01-.27.19c-.1-.07 0-.21 0-.31zm-8.67.07c.11-.1.28.08.17.19s-.29-.08-.17-.19zm1.21.26c-.06-.13 0-.38.16-.32s.13.21.08.33zm8.84-.26c.16-.08.2.24 0 .22s-.21-.24 0-.22zm1.18.05q.18-.06.12.12c-.12 0-.17 0-.12-.12zm-7.59.93a.41.41 0 01.6.31.42.42 0 01-.54.46.42.42 0 01-.06-.77zm1.24 0a.42.42 0 01.61.31.41.41 0 01-.55.45.42.42 0 01-.06-.76zm-2.5.08a.35.35 0 11.05.61.35.35 0 01-.05-.61zm3.73-.04a.4.4 0 01.61.36.39.39 0 01-.64.28.4.4 0 010-.64zm1.26.04a.35.35 0 01.55.31.34.34 0 01-.5.3.36.36 0 01-.05-.61zm1.35.01a.29.29 0 01.4.31.3.3 0 11-.4-.31zm-7.49.07c.12 0 .31 0 .33.15s-.2.37-.36.26a.24.24 0 010-.41zm8.71-.02a.26.26 0 01.24.47.26.26 0 01-.24-.47zm1.27.05c.28-.16.44.34.14.39a.22.22 0 01-.14-.39zm-11.15.04c.15 0 .23.23.05.28s-.18-.22-.05-.28zm12.4.01c.12 0 .25 0 .26.16s-.18.1-.28.09v-.25zm1.32.07c.13 0 .17 0 .14.13s-.17 0-.14-.13zm-10.23.85a.54.54 0 110 .91.54.54 0 010-.91zm1.23-.01a.54.54 0 10.81.39.55.55 0 00-.81-.39zm1.41-.03a.52.52 0 11-.25.85.52.52 0 01.25-.85zm-3.8.11a.43.43 0 11-.09.72.45.45 0 01.09-.72zm4.89 0a.49.49 0 00.23.86.48.48 0 00.5-.68.5.5 0 00-.73-.18zm1.34.01a.43.43 0 11-.12.67.43.43 0 01.12-.67zm1.24.07a.37.37 0 01.58.34.38.38 0 11-.58-.34zm1.28.03a.34.34 0 01.51.31.33.33 0 01-.59.17.33.33 0 01.08-.48zm-9.93.05c.2-.14.47.12.37.33a.27.27 0 01-.49 0c0-.12 0-.29.12-.34zm11.22 0a.26.26 0 01.39.25c0 .18-.22.31-.37.22a.27.27 0 010-.47zm1.35.03c.24 0 .3.39 0 .41a.21.21 0 010-.41zm-13.85.33c0-.15.06-.38.25-.25s-.09.32-.25.25zm15.09-.27c.18 0 .23.25 0 .28a.15.15 0 010-.28zm-12.63.93a.49.49 0 11-.08.87.5.5 0 01.08-.87zm1.16-.01a.54.54 0 10.8.31.55.55 0 00-.8-.31zm1.23 0a.54.54 0 10.83.39.56.56 0 00-.83-.39zm1.27 0a.54.54 0 110 .92.54.54 0 010-.92zm1.24 0a.55.55 0 10.82.58.55.55 0 00-.82-.58zm1.05.23c.15-.35.58-.33.88-.21a1 1 0 01.05.16.53.53 0 11-.94 0zm1.54-.22a.49.49 0 01.67.48.48.48 0 01-.8.35.5.5 0 01.13-.83zm1.23.07A.43.43 0 0122 15a.43.43 0 01-.57.4.44.44 0 01-.07-.8zm1.24.08a.37.37 0 11.07.66.38.38 0 01-.07-.66zm1.35.01a.32.32 0 01.41.41.32.32 0 01-.5.13.32.32 0 01.09-.54zm-12.57.08a.29.29 0 01.49.24.29.29 0 01-.47.21.31.31 0 010-.45zm13.8-.01c.3-.15.55.31.24.46a.26.26 0 01-.24-.46zm1.31.06c.21-.11.37.24.16.33h-.23c0-.11-.11-.33.07-.35zm-16.26.04c.18-.15.38.15.2.27a.17.17 0 01-.2-.27zm17.53 0a.14.14 0 01.08.26c-.16.05-.24-.22-.08-.26zM16.08 16.5a.54.54 0 01.42-.82.55.55 0 01.52.82l-.17.19a.92.92 0 01-.59 0l-.18-.2zm-3.47-.75a.51.51 0 00-.18.81.51.51 0 00.86-.23.5.5 0 00-.68-.58zm.93.65a.53.53 0 01.54-.72.54.54 0 01.4.87l-.05.05a.55.55 0 01-.89-.2zm1.33.18a.56.56 0 01.38-.9.53.53 0 01.49.83l-.14.19a.76.76 0 01-.59 0l-.14-.09zm2.46-.08l.17.2a.89.89 0 00.58 0l.18-.18a.55.55 0 00-.43-.83.54.54 0 00-.5.82zm1.25 0a.54.54 0 01.5-.82.55.55 0 01.4.87l-.06.07a.73.73 0 01-.67.08 1.63 1.63 0 01-.17-.2zm1.24-.02c.05.07.11.14.16.22a.71.71 0 00.65-.06.58.58 0 00.12-.74.76.76 0 00-.09-.09.54.54 0 00-.42-.13.54.54 0 00-.42.8zm1.37-.69a.61.61 0 01.65 0L22 16a1.4 1.4 0 010 .5l-.22.22a.62.62 0 01-.63-.07.57.57 0 01-.07-.73l.08-.1zm1.24.09l.07-.06a.59.59 0 01.56 0l.13.14a.64.64 0 010 .47 3.08 3.08 0 01-.24.27.89.89 0 01-.51-.07l-.12-.12a.57.57 0 01.06-.61zm1.23.55a.43.43 0 01.48-.62.44.44 0 01.29.57l-.2.24a2 2 0 01-.42 0l-.15-.17zm1.34 0a.38.38 0 01.34-.58.38.38 0 01.28.59 1.14 1.14 0 00-.11.11.94.94 0 01-.41 0 .94.94 0 01-.1-.1zM11.34 16a.33.33 0 01.49.09.31.31 0 01-.32.44.32.32 0 01-.17-.53zm14.99 0a.28.28 0 01.48.14.29.29 0 11-.48-.14zm1.28.05a.23.23 0 01.39.22c0 .17-.21.16-.34.19-.07-.12-.18-.29-.05-.41zm-17.45.01c.17 0 .42.07.28.26s-.38-.08-.28-.26zm18.84.28c-.2-.14 0-.32.2-.28s0 .39-.2.28zm1.21-.19c.12 0 .16 0 .13.13s-.17 0-.13-.13zm-7.64.79H23a3.11 3.11 0 01.31.32v.41A1.82 1.82 0 0123 18h-.44c-.09-.09-.18-.17-.27-.27a1.85 1.85 0 010-.47 2.76 2.76 0 01.3-.29zm-10.27.54A.5.5 0 0113 17a.51.51 0 11-.73.46zm1.29.28l.18.2a2 2 0 00.49 0 2.42 2.42 0 00.31-.33.56.56 0 00-.57-.74.55.55 0 00-.41.84zM15 17a.84.84 0 01.64 0l.13.19a.7.7 0 01.1.47 1.58 1.58 0 01-.37.36h-.38l-.31-.3a.62.62 0 01.09-.56L15 17zm1.25 0a.76.76 0 01.61 0l.13.17a.84.84 0 01.1.49 1.5 1.5 0 01-.37.34h-.32a1.35 1.35 0 01-.4-.35 1.08 1.08 0 01.09-.5l.16-.15zm1.25 0a.62.62 0 01.64 0l.08.09a.85.85 0 01.12.52A1.54 1.54 0 0118 18h-.32a1.44 1.44 0 01-.39-.35 1.08 1.08 0 01.09-.5l.12-.15zm1.24 0a.59.59 0 01.67.06.7.7 0 01.17.61 1.78 1.78 0 01-.35.32h-.39c-.12-.12-.24-.23-.34-.35a1 1 0 01.09-.5s.12-.11.15-.15zM20 17a.6.6 0 01.68 0 .73.73 0 01.18.62l-.34.32a2.67 2.67 0 01-.4 0 3.34 3.34 0 01-.33-.32.8.8 0 01.09-.53L20 17zm1.16.07a.61.61 0 01.65-.09l.21.19a.8.8 0 010 .55l-.22.25a3.85 3.85 0 01-.48 0l-.32-.29a.74.74 0 01.16-.61zm2.66-.07a2 2 0 01.34 0 .76.76 0 01.39.38v.27a.87.87 0 01-.34.37h-.39c-.11-.1-.21-.2-.31-.31v-.4l.3-.29zm1.01.31a.84.84 0 01.32-.3h.27a2 2 0 01.33.31v.33a3.26 3.26 0 01-.33.31l-.31-.08-.25-.27v-.3zm1.34-.04c0-.05.13-.13.18-.18a.43.43 0 01.57.51l-.26.28h-.25l-.26-.2a1.15 1.15 0 010-.37zm1.35.4a.32.32 0 01.29-.52.33.33 0 01.24.51l-.09.09a1 1 0 01-.35 0l-.09-.1zm-17.36-.38c.21-.09.46.16.25.33s-.34-.15-.25-.33zm1.2-.06a.31.31 0 01.49.16.3.3 0 11-.49-.16zm17.53.02a.26.26 0 01.39.23c0 .26-.41.32-.49.09s0-.27.1-.32zm1.19.23c0-.19.2-.17.33-.19s.08.26-.06.33-.23 0-.27-.14zm1.37-.09c.14 0 .19 0 .14.15s-.19 0-.14-.15zm-17.69.84a1.4 1.4 0 01.5-.05l.32.33v.37a2.33 2.33 0 01-.34.36 2.8 2.8 0 01-.41 0l-.33-.33a1 1 0 01.08-.51c.05 0 .13-.13.17-.17zm1.32-.05h.41a2.07 2.07 0 01.34.39v.3a.77.77 0 01-.43.4h-.24a.87.87 0 01-.41-.37v-.38l.31-.32zm1.27-.01h.39a1.75 1.75 0 01.34.38 2.62 2.62 0 010 .28.88.88 0 01-.39.42h-.26a.66.66 0 01-.44-.39v-.3a1.54 1.54 0 01.34-.38zm1.24 0H18a2.49 2.49 0 01.34.38v.3a.75.75 0 01-.44.4h-.22a.84.84 0 01-.43-.36v-.33a4.09 4.09 0 01.33-.38zm1.3.01h.37l.31.35v.33a.72.72 0 01-.44.4h-.21a.64.64 0 01-.44-.39v-.3a.9.9 0 01.38-.37zm.87.34l.32-.36h.42c.11.1.21.2.31.31a2.3 2.3 0 010 .37c-.11.19-.27.4-.52.37a.57.57 0 01-.57-.39v-.33zm1.57-.35h.42a4 4 0 01.3.28v.41a1 1 0 01-.38.36h-.29a1 1 0 01-.42-.37 2.43 2.43 0 010-.38l.31-.33zm1.22.03h.42a1.33 1.33 0 01.35.36v.38a2.12 2.12 0 01-.34.33h-.34a1 1 0 01-.4-.38 2.43 2.43 0 010-.38 3.83 3.83 0 01.28-.29zm1.29-.01h.28a.77.77 0 01.42.33v.4a.69.69 0 01-.37.36h-.37l-.31-.33v-.38a1 1 0 01.34-.34zm.9.39a.68.68 0 01.47-.42h.17a.56.56 0 010 1.09H25l-.14-.25-.12-.14a1.5 1.5 0 000-.3zm1.72.62h.16a.59.59 0 00.4-.38 1.15 1.15 0 000-.18.65.65 0 00-.42-.43h-.16a.5.5 0 000 1zm-14.14-.56a.51.51 0 00.71.53l.24-.24a.77.77 0 00-.08-.54l-.06-.07a.51.51 0 00-.81.32zm15.03-.03a.7.7 0 01.35-.33h.17a.71.71 0 01.32.3v.23a1.11 1.11 0 01-.29.32h-.25a2.83 2.83 0 01-.3-.3v-.22zm-15.9-.2a.32.32 0 01.37.47.31.31 0 01-.54 0 .32.32 0 01.17-.46zm17.23.17l.2-.2a.37.37 0 01.44.53l-.11.11a1.94 1.94 0 01-.34 0l-.15-.14v-.32zm-18.38-.06a.19.19 0 01.14.31.18.18 0 01-.32-.1.22.22 0 01.18-.21zm19.84-.04c.2-.13.49.11.37.33a.25.25 0 01-.38.12.26.26 0 010-.45zm1.23.06c.1 0 .28 0 .32.1s-.16.33-.29.21 0-.21 0-.31zm1.33.1c.14-.05.19 0 .14.15s-.19 0-.14-.15zm-19.19 1.18a1.09 1.09 0 01.37-.4h.31a.59.59 0 01.29.88.56.56 0 01-1-.17v-.3zm1.39.51a.54.54 0 00.93-.35c0-.27-.18-.44-.38-.57h-.32a.59.59 0 00-.23.91zm1.17-.11a.58.58 0 01.36-.81h.22a.55.55 0 01.42.65.54.54 0 01-1 .15zm1.25.01a.58.58 0 01.36-.82H18a.61.61 0 01.37.66c0 .48-.8.58-1 .16zm1.24-.01a.59.59 0 01.37-.81h.27a.63.63 0 01.37.65.55.55 0 01-1 .16zm1.51-.76a.55.55 0 00.07 1 .52.52 0 00.66-.6c0-.37-.43-.52-.73-.42zm1.16.95a.58.58 0 01.17-1h.32a1 1 0 01.35.4 1.36 1.36 0 010 .2.56.56 0 01-.86.39zm1.02-.61a1 1 0 01.38-.38H23a1.31 1.31 0 01.33.37v.3c0 .1-.26.41-.52.39s-.47-.19-.6-.4v-.29zm1.62-.39h.31l.14.08.21.16v.16a.5.5 0 01-.48.66c-.29.05-.49-.19-.58-.44v-.26a1.48 1.48 0 01.37-.38zm1.13.07h.43a1 1 0 01.23.12l.14.13c0 .06 0 .18.05.24a1.5 1.5 0 010 .22.61.61 0 01-.4.35h-.26a.57.57 0 01-.38-.69v-.07l.15-.27zm1.25 0l.21-.05h.16l.26.1.09.15.08.14v.31a1 1 0 01-.39.38h-.25l-.21-.09-.08-.06-.12-.25v-.38c0-.04.15-.17.22-.25zM12.33 20a.49.49 0 01.7-.46l.22.22a1.56 1.56 0 010 .43l-.27.27c-.3.06-.68-.11-.66-.46zm15.13-.46c.32-.11.76-.05.82.35v.23a.87.87 0 01-.37.34h-.26a.76.76 0 01-.36-.35v-.22a2 2 0 01.14-.25l.06-.1zm-16 .12c.42-.17.58.58.14.61s-.5-.52-.14-.61zm17.13.21a1.31 1.31 0 01.3-.32h.31l.24.22a1.45 1.45 0 010 .36l-.29.24h-.22v.1c-.11-.13-.23-.25-.33-.38s0-.19 0-.25zm-18.37-.09c.21-.09.4.22.19.34s-.43-.23-.19-.34zm19.91-.05a.3.3 0 01.42.33.29.29 0 11-.42-.33zm1.14.06l.08-.09c.27-.09.56.21.35.45s-.53-.09-.43-.36zm1.39.05c.13-.15.37.1.22.23s-.39-.08-.22-.23zm-18.9.9a.56.56 0 00.05 1 .55.55 0 10-.05-1zm1.24 0a.56.56 0 000 .92.55.55 0 100-.92zm1.26 0a.55.55 0 10.82.58.55.55 0 00-.82-.58zm1.25 0a.56.56 0 00-.08.88.55.55 0 10.08-.88zm1.31-.03a.55.55 0 10.76.6.55.55 0 00-.76-.6zm1.25 0a.55.55 0 11-.14.91.55.55 0 01.14-.91zm1.25 0a.54.54 0 11-.14.91.55.55 0 01.14-.91zm1.24 0a.55.55 0 10.76.6.55.55 0 00-.76-.6zm1.25 0a.55.55 0 10.77.51.54.54 0 00-.77-.51zm.93.43c0-.27.25-.41.48-.48h.32l.27.25a.88.88 0 000 .16.5.5 0 01-.33.58.55.55 0 01-.72-.58zm1.48-.39l.2-.08h.22l.16.06a2.5 2.5 0 01.2.27c0 .05 0 .15.06.21a.86.86 0 000 .16c-.1.2-.26.42-.51.4a.49.49 0 01-.54-.59L26 21l.21-.24zm1.27-.01a1.06 1.06 0 01.25-.09h.13l.23.06.16.26a1.46 1.46 0 01.07.19.57.57 0 01-.53.56c-.28 0-.45-.21-.58-.41s0-.13 0-.18a1 1 0 010-.17l.22-.25zm-15 .13a.56.56 0 01.45-.12.51.51 0 01.32.48c0 .22-.21.33-.33.47a1.55 1.55 0 01-.42-.12l-.08-.1a.5.5 0 010-.54l.07-.07zm16.4-.11h.2a.57.57 0 01.4.46.37.37 0 010 .11.6.6 0 01-.35.38H29a.51.51 0 01-.45-.49c0-.07 0-.19.05-.25l.29-.19zm-17.44.15a.31.31 0 11-.17.45.31.31 0 01.17-.45zm18.46.16a2 2 0 01.26-.24h.21a.69.69 0 01.28.33v.18a1.36 1.36 0 01-.24.24h-.25l-.26-.24v-.28zM10.31 21c.23 0 .25.34 0 .39s-.31-.39 0-.39zm21.05 0a.36.36 0 01.35 0l.05.05a.31.31 0 01-.44.41l-.05-.05v-.32l.11-.12zm1.18.07c.18-.16.53-.05.42.23s-.46.05-.45-.18v-.05zm1.46.03a.11.11 0 110 .22.11.11 0 010-.22zm-20.24.9a.55.55 0 01.83.4.54.54 0 01-.74.57.55.55 0 01-.09-1zM15 22a.56.56 0 01.82.58.54.54 0 01-.84.34A.56.56 0 0115 22zm1.33 0a.54.54 0 01.75.6.54.54 0 11-.75-.6zm1.24 0a.54.54 0 11-.09.94.55.55 0 01.09-.94zm1.25 0a.54.54 0 11-.09.94.55.55 0 01.09-.94zm1.25 0a.55.55 0 01.74.65.54.54 0 11-.74-.65zm1.24 0a.55.55 0 10.76.6.55.55 0 00-.76-.6zm1.26 0a.54.54 0 10.74.65.54.54 0 00-.74-.65zm1.24 0a.54.54 0 11-.09.94.55.55 0 01.09-.94zm1.25 0a.54.54 0 10.75.6.54.54 0 00-.75-.6zm1.25 0a.54.54 0 10.76.51.54.54 0 00-.76-.51zm1.24 0a.55.55 0 10.77.51.54.54 0 00-.77-.51zm.96.47a.51.51 0 01.5-.53h.14l.14.05a1.92 1.92 0 01.18.22l.06.12v.1c-.07.18-.13.41-.35.48a.52.52 0 01-.71-.46zm-16.02-.35a1.73 1.73 0 01.44-.14c.16.15.38.33.3.58s-.24.31-.43.36l-.21-.09-.18-.15a.57.57 0 01.08-.56zm17.35.23a.57.57 0 01.34-.34h.19a.67.67 0 01.32.28 2.11 2.11 0 010 .25c-.09.2-.25.4-.49.34s-.35-.25-.42-.44v-.1zm1.83-.29l.14.22a.62.62 0 010 .38l-.09.08a1.09 1.09 0 01-.36 0l-.11-.12v-.35l.18-.12.29-.11zm-21.36.21c.23 0 .26.34 0 .38s-.3-.4 0-.38zm1.05-.05a.31.31 0 01.47.1.3.3 0 11-.47-.1zm21.25.06a.23.23 0 01.32.34.23.23 0 01-.32-.34zm1.39.05c.16 0 .23.25 0 .26a.13.13 0 010-.26zm-20.17.88a.55.55 0 10.76.6.55.55 0 00-.76-.6zm1.25-.01a.55.55 0 10.76.6.55.55 0 00-.76-.6zm1.24.01a.54.54 0 10.76.6.55.55 0 00-.76-.6zm1.25 0a.54.54 0 10.76.59.54.54 0 00-.76-.59zm1.25 0a.54.54 0 10.77.51.54.54 0 00-.77-.51zm1.25 0a.54.54 0 10.74.66.54.54 0 00-.74-.66zm1.24 0a.54.54 0 10.76.59.54.54 0 00-.76-.59zm1.25 0a.55.55 0 01.75.65.56.56 0 01-.94.2.54.54 0 01.19-.85zm1.25 0a.54.54 0 11-.09.94.55.55 0 01.09-.94zm1.25-.01a.54.54 0 11-.09.95.56.56 0 01.09-.95zm1.24.01a.54.54 0 11-.08.94.55.55 0 01.08-.94zm1.25 0a.54.54 0 110 1 .54.54 0 010-1zm1.25 0a.55.55 0 000 1 .54.54 0 00.79-.47.53.53 0 00-.76-.51zm1.25 0a.53.53 0 01.76.51.54.54 0 01-.79.47.55.55 0 010-1zm-17.46.14l.23-.12c.19.1.44.22.41.48s-.21.39-.42.43l-.21-.06-.17-.15a.46.46 0 010-.49l.13-.09zm18.57.37c0-.16.13-.27.2-.39h.32l.18.19a.63.63 0 010 .36l-.18.13-.18.08c-.13-.1-.34-.19-.33-.39zm-20.85-.21c.22 0 .26.35 0 .38s-.32-.4 0-.38zm1.05-.03c.18-.18.54 0 .48.24s-.38.37-.52.16a.29.29 0 010-.4zm21.16.05a.34.34 0 01.06-.06c.13 0 .39 0 .41.17a.23.23 0 01-.28.29c-.19 0-.19-.25-.19-.4zm1.48.05c.11 0 .26.16.1.22s-.33-.17-.1-.22zm-20.16.88a.53.53 0 11-.09.94.55.55 0 01.09-.94zm1.24-.01a.55.55 0 11-.14.91.55.55 0 01.14-.91zm1.25 0a.55.55 0 01.75.6.54.54 0 01-.84.35.55.55 0 01.09-.95zm1.25 0a.55.55 0 11-.1.95.55.55 0 01.1-.95zm1.24 0a.55.55 0 11-.09.95.55.55 0 01.09-.95zm1.25 0a.55.55 0 11-.09.95.55.55 0 01.09-.95zm1.25 0a.55.55 0 11-.1.95.55.55 0 01.1-.95zm1.24 0a.55.55 0 11-.09.95.55.55 0 01.09-.95zm1.24.01a.55.55 0 10.77.59.55.55 0 00-.77-.59zm1.26-.01a.55.55 0 10.76.6.55.55 0 00-.76-.6zm1.24 0a.56.56 0 000 1 .54.54 0 00.8-.46.55.55 0 00-.77-.52zm1.25.01a.54.54 0 10.77.5.54.54 0 00-.77-.5zm1.25 0a.53.53 0 01.76.51.55.55 0 01-.79.47.55.55 0 010-1zm1.2 0a.55.55 0 000 1 .53.53 0 00.79-.46.54.54 0 00-.77-.51zm-17.41.11h.21a.42.42 0 01.4.52c0 .2-.27.25-.42.34l-.18-.11a.91.91 0 00-.16-.11.54.54 0 010-.43l.15-.18zm-1.22.16a.29.29 0 01.43.07.28.28 0 01-.29.43.29.29 0 01-.14-.5zm19.93-.07h.41l.09.11a.43.43 0 010 .38l-.12.09-.19.12a.4.4 0 01-.21-.7zm-21.11.16c.15-.17.39.08.26.24s-.47-.08-.26-.24zm22.64.35c-.27.12-.43-.39-.13-.45a2.7 2.7 0 00.28 0c0 .15.05.37-.15.41zm1.17-.32c.13-.08.2.25 0 .21s-.16-.21 0-.21zm-18.92.85a.55.55 0 00-.14.91.55.55 0 10.14-.91zm1.25 0a.54.54 0 10.75.6.55.55 0 00-.75-.6zm1.24 0a.54.54 0 10.77.51.55.55 0 00-.77-.51zm1.25 0a.55.55 0 10.76.59.55.55 0 00-.76-.59zm1.25 0a.55.55 0 10.77.51.55.55 0 00-.77-.51zm1.25 0a.54.54 0 10.75.59.54.54 0 00-.75-.59zm1.24 0a.55.55 0 10.76.59.55.55 0 00-.76-.59zm1.24 0a.55.55 0 00-.08.94.55.55 0 00.86-.43.56.56 0 00-.78-.51zm1.26 0a.54.54 0 110 1 .55.55 0 010-1zm1.25 0a.54.54 0 11-.1.94.55.55 0 01.1-.94zm1.24 0a.55.55 0 110 1 .56.56 0 010-1zm1.25 0a.55.55 0 00-.09.94.54.54 0 10.09-.94zm1.2 0a.54.54 0 11-.09.94.56.56 0 01.09-.94zm-16.24.1a.49.49 0 10.78.41.5.5 0 00-.78-.41zm-1.14.09l.17-.09c.15.06.37.13.38.33s-.14.38-.31.47a1 1 0 01-.29-.09l-.09-.14a.43.43 0 010-.4l.14-.08zm18.58.24c0-.16.19-.21.31-.27l.19.06.12.1a.52.52 0 010 .37l-.1.1-.34.05c-.08-.13-.22-.25-.17-.41zM11.43 26a.25.25 0 01.38.16.27.27 0 01-.37.33.27.27 0 010-.49zm21.33 0c.23 0 .27.39 0 .38s-.27-.38 0-.38zm-22.57.06c.18-.14.41.15.22.28s-.36-.13-.22-.28zm23.81.06c.14 0 .18 0 .14.15s-.19 0-.14-.15zM15.08 27a.54.54 0 11-.09.94.54.54 0 01.09-.94zm1.25 0a.54.54 0 11-.15.9.54.54 0 01.15-.9zm1.24 0a.54.54 0 11-.14.9.55.55 0 01.14-.9zm1.25 0a.54.54 0 11-.09.94.55.55 0 01.09-.94zm1.25 0a.54.54 0 11-.09.94.54.54 0 01.09-.94zm1.24 0a.54.54 0 11-.09.94.55.55 0 01.09-.94zm1.25 0a.55.55 0 01.76.6.55.55 0 11-.76-.6zm1.25 0a.55.55 0 110 1 .55.55 0 010-1zm1.25 0a.55.55 0 00-.09.94.54.54 0 10.09-.94zm1.24 0a.54.54 0 10.77.51.55.55 0 00-.77-.51zm1.26 0a.54.54 0 10.76.51.54.54 0 00-.76-.51zm1.24 0a.53.53 0 01.76.51.54.54 0 01-.79.47.55.55 0 010-1zm-14.96 0a.46.46 0 110 .8.46.46 0 010-.8zm16.07.16a.48.48 0 00.4.76h.05a.54.54 0 00.32-.27.46.46 0 00.05-.23.46.46 0 00-.82-.25zm-17.41.49a.4.4 0 01.36-.59c.13.1.33.2.29.4s-.17.27-.3.36a.94.94 0 01-.28-.1l-.07-.07zm-1.06-.43c.26-.17.52.28.25.44s-.57-.3-.25-.44zm20.02-.02a.25.25 0 01.32.26c0 .21-.26.32-.42.2s-.12-.45.1-.46zm-21.34.24c.07-.08.17-.24.28-.12s0 .32-.18.29l-.1-.17zm22.6-.14c.19-.06.26.26.07.28s-.23-.23-.07-.28zm-17.63.9a.55.55 0 00-.09.94.54.54 0 00.83-.44.53.53 0 00-.74-.5zm1.24-.01a.55.55 0 10.76.6.55.55 0 00-.76-.6zm1.25 0a.55.55 0 10.76.52.55.55 0 00-.76-.52zm1.24 0a.55.55 0 00-.09.95.55.55 0 00.85-.35.55.55 0 00-.76-.6zm1.25 0a.55.55 0 000 1 .54.54 0 00.8-.46.55.55 0 00-.76-.52zm1.25 0a.56.56 0 00-.1.95.55.55 0 10.1-.95zm1.25 0a.56.56 0 00-.1.95.55.55 0 10.1-.95zm1.24 0a.55.55 0 10.77.52.55.55 0 00-.77-.52zm1.25.01a.54.54 0 01.76.51.54.54 0 11-.76-.51zm1.24 0a.54.54 0 110 1 .54.54 0 010-1zm1.25 0a.54.54 0 01.77.5.55.55 0 11-.77-.5zm-13.69.1a.43.43 0 110 .76.45.45 0 010-.76zm14.72.5c0 .24.28.34.5.37a.52.52 0 00.41-.46c0-.16-.08-.37-.27-.43a.46.46 0 00-.64.52zm-15.73-.48c.1.12.29.21.28.39s-.17.24-.28.34-.38-.15-.37-.35.21-.3.37-.38zm17.06.37a.81.81 0 01.34-.39l.21.11.13.1c.06.2 0 .48-.23.52a.37.37 0 01-.45-.34zm-18.46-.21c.28-.15.49.33.19.43s-.45-.32-.19-.43zm20.05 0c.18 0 .33.26.16.37a.2.2 0 01-.34-.14.19.19 0 01.18-.23zm-21.29.09a.15.15 0 11.18.25.15.15 0 01-.18-.25zm6.11.87a.55.55 0 11-.09.95.56.56 0 01.09-.95zm1.26 0a.55.55 0 01.76.52.55.55 0 11-.76-.52zm1.24 0a.55.55 0 11-.09.95.55.55 0 01.09-.95zm1.25 0a.54.54 0 11-.09.95.55.55 0 01.09-.95zm1.25 0a.54.54 0 01.75.6.55.55 0 11-.75-.6zm1.25 0a.54.54 0 11-.15.9.55.55 0 01.15-.9zm1.24.01a.54.54 0 11-.09.93.54.54 0 01.09-.93zm1.25 0a.54.54 0 10.76.49.54.54 0 00-.76-.49zm1.26.01a.54.54 0 00-.15.87.53.53 0 00.88-.38.52.52 0 00-.73-.49zM15 29.55a.49.49 0 01.77.4.48.48 0 01-.75.39.49.49 0 010-.79zm12.35.5a.44.44 0 01.54-.53c.21 0 .29.25.33.44s-.07.19-.09.26l-.07.07-.33.13c-.13-.11-.35-.17-.38-.37zm-13.51-.44a.39.39 0 11.07.7.4.4 0 01-.07-.7zm14.82.32a.5.5 0 01.38-.36.4.4 0 01.24.65l-.05.08c-.25 0-.56-.07-.57-.37zm-17.19-.19a.22.22 0 01.21.38c-.25.18-.48-.25-.21-.38zm1.4.53c-.33 0-.53-.46-.2-.6l.2-.06c.1.1.26.18.24.35s-.15.22-.24.31zm17.29-.53c.25-.19.5.31.21.41s-.47-.3-.21-.41zm-19.95.07a.17.17 0 01.22.23.16.16 0 01-.22-.23zm21.24.06c.15-.05.19 0 .15.15s-.2 0-.15-.15zm-15.1.84a.52.52 0 00-.15.86.51.51 0 10.15-.86zm1.22-.02a.54.54 0 10.76.6.55.55 0 00-.76-.6zm1.25 0a.54.54 0 10.76.59.54.54 0 00-.76-.59zm1.25 0a.54.54 0 10.76.51.54.54 0 00-.76-.51zm1.25 0a.54.54 0 10.76.51.54.54 0 00-.76-.51zm1.24 0a.54.54 0 10.77.51.55.55 0 00-.77-.51zm1.25 0a.54.54 0 10.77.51.55.55 0 00-.77-.51zm-8.63.09a.43.43 0 01.51.6.44.44 0 01-.78 0 .43.43 0 01.27-.6zm9.82.01a.5.5 0 01.76.24.49.49 0 01-.68.6.51.51 0 01-.08-.84zm-11.15.1a.35.35 0 01.54.22.35.35 0 01-.39.43.36.36 0 01-.15-.65zm12.3.17a.4.4 0 01.78.14.46.46 0 01-.49.41c-.19-.12-.39-.31-.29-.55zM11.55 31c.23 0 .28.36 0 .39s-.31-.4 0-.39zm.99.12c0-.17.22-.18.34-.25.08.13.23.25.17.41a1.51 1.51 0 01-.21.23c-.15-.07-.38-.18-.3-.39zm14.91 0l.24-.25c.16 0 .37.05.39.24a.31.31 0 01-.45.35c-.15-.05-.14-.21-.18-.34zm1.47-.12a.23.23 0 01.33.24.23.23 0 01-.4.09.22.22 0 01.07-.33zm-18.66.09c.09-.08.22.07.14.16l-.12.11c0-.08-.17-.24 0-.27zm19.94.03c.15-.05.19 0 .15.14s-.19 0-.15-.14zM17.67 32a.5.5 0 01.59.68.51.51 0 01-.89.08.5.5 0 01.3-.76zm1.16-.06a.53.53 0 11-.09.94.55.55 0 01.09-.94zm1.24 0a.54.54 0 11-.09.94.55.55 0 01.09-.94zm1.24 0a.54.54 0 11-.09.94.55.55 0 01.09-.94zm1.28.06a.51.51 0 11-.15.86.52.52 0 01.15-.86zm-6.24 0a.44.44 0 11-.14.68.45.45 0 01.14-.68zm7.48 0a.45.45 0 01.65.4.45.45 0 11-.65-.4zm-8.74.12a.38.38 0 11-.12.5.4.4 0 01.12-.5zm9.98.02c.21-.15.42 0 .58.16a.41.41 0 01-.53.48c-.19-.16-.29-.48-.05-.64zm-12.5.31c0-.19.16-.28.32-.27a.32.32 0 010 .51c-.14 0-.35 0-.33-.24zm1.27-.26c.19-.14.56 0 .51.25a.3.3 0 01-.44.28.33.33 0 01-.07-.53zm12.64-.01c.33-.1.43.49.09.51s-.43-.48-.09-.51zm-16.2.12a.13.13 0 11.06.26c-.16 0-.23-.23-.06-.26zm1.15.31c0-.12-.07-.27.07-.34a.18.18 0 01.16.31h-.23zm16.22-.03c-.15-.19 0-.37.25-.33s0 .49-.25.33zm-9.97.7a.42.42 0 11-.16.71.42.42 0 01.16-.71zm1.16.01a.44.44 0 11-.16.64.44.44 0 01.16-.64zm1.25 0A.45.45 0 0020 34a.44.44 0 10.14-.68zm1.25 0a.44.44 0 01.59.23.43.43 0 01-.51.58.45.45 0 01-.08-.81zm-6.15.08a.33.33 0 01.42.41.34.34 0 01-.57.11.34.34 0 01.15-.52zm1.16-.01a.38.38 0 01.57.34c0 .31-.4.46-.62.28a.4.4 0 01.05-.62zm6.18.04a.39.39 0 01.63.33.86.86 0 01-.07.21L23 34l-.34.07c-.24-.13-.4-.47-.16-.68zm1.1.29c.1-.12.17-.32.35-.35s.26.1.38.18c.1.25-.1.58-.38.5s-.26-.2-.35-.33zm-11 .11c-.11-.19.1-.33.26-.34l.09.12c.14.22-.22.44-.35.22zm1.21-.36c.19-.16.56 0 .52.25a.31.31 0 01-.45.28.33.33 0 01-.07-.53zm11.22.04h.06c.16 0 .42 0 .38.27s-.23.25-.36.16-.06-.26-.08-.38zm-13.51.08c.15-.06.2.23 0 .25s-.29-.29 0-.25zm14.96-.01c.19 0 .19.32 0 .25s-.16-.22 0-.25zm-16.27.06c.14 0 .19 0 .14.15s-.18 0-.14-.15zm7.45 1.01a.33.33 0 01.39.47.34.34 0 01-.58 0 .34.34 0 01.19-.47zm1.24-.01c.42-.18.63.55.21.65s-.61-.53-.21-.65zm1.24 0c.18 0 .42 0 .44.23a.33.33 0 01-.43.41.34.34 0 010-.64zm-6.41.21c.14-.11.41-.27.51 0s0 .3-.1.44a.34.34 0 01-.41-.39zm1.42-.12a.26.26 0 01.36.32c0 .16-.22.19-.36.16s-.2-.41 0-.48zm1.15 0a.31.31 0 11-.06.39c0-.13-.05-.3.06-.39zm5 0c.17-.16.39 0 .53.11.05.31-.23.48-.51.42-.06-.16-.21-.39 0-.53zm-9.81.09a.13.13 0 11.07.26c-.16.06-.23-.22-.07-.26zm1.11.21c0-.17.18-.19.31-.19H13c0 .07-.05.2-.07.26s-.26 0-.3-.11zm10-.27a.25.25 0 11.28.41.25.25 0 01-.28-.41zm1.29.07c.19-.12.39.15.2.27s-.33-.14-.2-.27zm-7.58 1.29c.14-.18.31-.12.45 0 0 .37-.56.38-.45 0zm1.19.01a.33.33 0 01.53 0l-.08.26c-.2.19-.45 0-.45-.25zm1.24-.01a.34.34 0 01.54 0l-.09.25c-.2.19-.45 0-.45-.26zm1.23.03a.4.4 0 01.55-.06c0 .14 0 .34-.22.35s-.25-.17-.33-.29zm-7.31.13c-.06-.15.11-.16.2-.21.07.15-.05.37-.2.21zm2.38-.13a.35.35 0 01.51 0c-.11.12-.23.34-.41.2a1.47 1.47 0 01-.1-.22zm6.35-.07c.14-.15.38.08.26.23s-.45-.06-.26-.23zm-9.9.07c.3 0-.14.26 0 0zm2.39-.05c.14-.13.42 0 .26.21s-.4-.05-.26-.21zm8.81.04c.13 0 .18 0 .14.14s-.19 0-.14-.14zm-7.57 1.25h.22a.13.13 0 01-.07.23c-.09 0-.11-.14-.15-.19zm1.39-.06c.19-.07.19.31 0 .27s-.19-.29 0-.27zm1.24 0c.17-.07.22.25 0 .27s-.26-.29 0-.27zm1.22 0c.17-.07.21.31 0 .24s-.16-.21 0-.24zm-5.06.06c.09-.14.31 0 .21.15s-.3 0-.21-.15zm6.28 0c.14 0 .19 0 .15.14s-.19.01-.15-.14z" fill="#00c5fa" fill-rule="evenodd"/></g></g></g></svg>