<svg viewBox="0 0 48 48" xmlns="http://www.w3.org/2000/svg"><g fill="none" fill-rule="evenodd"><path fill="#4068AD" d="M0 0h48v48H0z"/><circle fill="#FFF" cx="23.787" cy="27.733" r="3.093"/><circle fill="#FFF" cx="17.547" cy="24.747" r="3.093"/><path d="M15.893 14.773a3.096 3.096 0 013.094 3.094 3.096 3.096 0 01-3.094 3.093 3.096 3.096 0 01-3.093-3.093 3.096 3.096 0 013.093-3.094zm4.427-5.546a3.096 3.096 0 013.093 3.093 3.096 3.096 0 01-3.093 3.093 3.096 3.096 0 01-3.093-3.093c0-1.707 1.333-3.093 3.093-3.093zm6.987 0A3.096 3.096 0 0130.4 12.32a3.096 3.096 0 01-3.093 3.093 3.096 3.096 0 01-3.094-3.093 3.096 3.096 0 013.094-3.093zm4.426 5.546a3.096 3.096 0 013.094 3.094 3.096 3.096 0 01-3.094 3.093 3.096 3.096 0 01-3.093-3.093 3.096 3.096 0 013.093-3.094z" fill="#FFF"/><circle fill="#FFF" cx="30.187" cy="24.747" r="3.093"/><path d="M6.4 28.64s5.76.053 8.32.533c8.267 1.494 8.587 9.387 8.587 9.387s-1.334.053-4.907.053c-8.267.054-12-9.973-12-9.973zm35.04 0s-5.76.053-8.32.533c-8.267 1.494-8.587 9.387-8.587 9.387s1.334.053 4.907.053c8.267.054 12-9.973 12-9.973z" fill="#6CBE45"/></g></svg>