<svg xmlns="http://www.w3.org/2000/svg" viewBox="0 0 48 48"><path fill="#f2f3f4" d="M0 0h48v48H0z"/><path d="M11 16.2l13-5.6 13.1 5.6v3.1L24 13.7l-13 5.6v-3.1zm0 4.2h7.7v9h-2.5v-6.9h-2.8v6.9H11v-9zm8.6 0h2.5v5.2c1-1.8 2.1-3.5 3.1-5.2h2.5v9h-2.4v-5.3l-3.1 5.2c0 .1-.2.1-.3.1h-2.2l-.1-9zm9 0h2.5v3.8l2.7-3.8h2.9c-1.1 1.4-2.2 2.8-3.4 4.1l3.6 4.8h-3c-1-1.5-1.9-2.9-2.9-4.4v4.4h-2.5v-8.9" fill="#003e70"/><path d="M11 30.8h26v6.6H11v-6.6" fill="#eb5e3a"/><path d="M33.9 33.4c.2.4.3.9.5 1.4h-.9c.1-.5.3-.9.4-1.4zm-17-.4c.3 0 .7 0 1 .1.2.1.3.4.2.6 0 .1-.1.2-.2.2-.3 0-.6.1-.9 0-.1-.2-.1-.5-.1-.9zm14.9 3.3H33l.2-.7h1.4l.2.7H36c-.5-1.4-1-2.8-1.5-4.1h-1.2c-.5 1.3-.9 2.7-1.5 4.1zM28 32.1v4.2h1.1V33h1.3v3.2h1.1V32H28zm-4.4 0v4.2h1.1V33H26v3.2h1.2V32h-3.6zm-4.1 0c.5 1 .9 2 1.4 3-.1.4-.6.3-.9.3v.9c.5.2.9.2 1.4 0 .4-.2.6-.6.7-1l1.3-3.1h-1.3c-.2.6-.4 1.2-.6 1.9-.2-.6-.5-1.2-.7-1.8-.5-.2-.9-.2-1.3-.2zm-3.7 0v4.2H17V35c.5 0 1.1 0 1.6-.1.4-.1.7-.4.8-.8.2-.5.1-1.1-.2-1.5-.3-.3-.7-.5-1.1-.4h-2.3zm-3.3 0v4.2h1.1v-3.2h1.7v-1h-2.8" fill="#fff"/></svg>