<svg viewBox="0 0 48 48" xmlns="http://www.w3.org/2000/svg"><g fill="none" fill-rule="evenodd"><path fill="#F2F3F4" d="M0 0h48v48H0z"/><path d="M38.4 22.027l-10.507 1.546c-.213.054-.48-.16-.426-.48l.266-5.6c.054-.693.48-1.013.96-1.173l6.72-.96c.534-.053 1.014.107 1.28.8l1.974 5.227c.053.266-.054.586-.267.64zm-7.68 14.88l-4.8-9.44c-.107-.214.053-.48.267-.534l5.44-1.493c.693-.16 1.173.053 1.386.587l3.04 6.026c.267.48.214 1.014-.32 1.44l-4.373 3.52c-.213.107-.533.107-.64-.106zm-16.64-2.72l7.573-7.414c.16-.16.48-.106.587.107l3.04 4.747c.427.586.267 1.12-.107 1.493l-4.906 4.747c-.427.426-.907.48-1.494.106L14.08 34.88c-.107-.267-.16-.533 0-.693zM11.52 17.6c-.213-.107-.48.053-.533.267L9.44 23.2c-.16.693.053 1.173.587 1.387l6.08 3.146c.48.214 1.013.16 1.44-.32l3.52-4.373c.16-.16.106-.48-.107-.587L11.52 17.6zm15.04-7.573l-1.707 10.506c-.053.214-.266.32-.533.267l-5.227-2.027c-.64-.213-.853-.746-.746-1.28l1.12-6.666c.106-.534.48-.907 1.173-.96l5.6-.214c.16-.106.373.16.32.374z" fill="#FFCC09" fill-rule="nonzero"/></g></svg>