<svg xmlns="http://www.w3.org/2000/svg" viewBox="0 0 480 480" shape-rendering="geometricPrecision" text-rendering="geometricPrecision" image-rendering="optimizeQuality" fill-rule="evenodd" clip-rule="evenodd"><path fill="#f2f3f4" d="M0 0h480v480H0z"/><path d="M264 331c23 6 45 15 78 20v-1c-34-6-56-16-80-22-17-5-27-5-44 0-24 6-46 16-80 22v1c33-5 55-14 78-20 19-5 29-5 48 0z"/><path d="M342 334v4l-4-1-4-1c-30-6-63-28-93-28h-2c-30 0-62 22-93 28l-4 1-4 1v-88c33-8 55-21 78-30 8-3 15-6 24-6s16 3 24 6c23 9 45 22 78 30v84zm0 0z" fill="#ffc651"/><path d="M264 339c23 4 45 12 78 16v-1c-34-4-56-13-80-18-16-3-28-3-44 0-24 5-46 14-80 18v1c33-4 55-12 78-16 18-4 30-4 48 0zM146 125h188c4 0 8 3 8 7v163l-4-2-4-2c-28-12-64-63-93-63h-2c-29 0-65 51-93 63l-4 2-4 2V132c0-4 4-7 8-7z"/><path d="M240 243c6 0 11 2 18 5 27 17 48 44 84 59v-2c-33-15-54-40-76-56-7-5-16-11-26-11s-19 6-26 11c-22 16-43 41-76 56v2c36-15 57-42 84-59 7-3 12-5 18-5z"/><path d="M240 264c9 0 16 3 24 8 23 13 45 33 78 45v-3c-34-12-56-34-80-48-6-4-13-8-22-7-9-1-16 3-22 7-24 14-46 36-80 48v3c33-12 55-32 78-45 8-5 15-8 24-8z"/><path d="M342 323v6c-33-10-54-26-76-37-7-4-16-8-26-7-10-1-19 3-26 7-22 11-43 27-76 37v-6l4-2 4-1c30-9 63-42 93-42h2c30 0 63 33 93 42l4 1 4 2z"/><path d="M342 331v4c-34-8-56-23-80-32-6-2-13-5-22-5s-16 3-22 5c-24 9-46 24-80 32v-4c36-10 57-28 84-40 7-2 12-3 18-3s11 1 18 3c27 12 48 30 84 40z"/><path d="M342 337v4l-4-1-4-1c-30-6-63-28-93-28h-2c-30 0-63 22-93 28l-4 1-4 1v-4c33-8 55-21 78-30 8-3 15-5 24-5s16 2 24 5c23 9 45 22 78 30z"/><path d="M258 320c27 8 48 20 84 27v-2c-33-6-54-17-76-24-21-7-31-7-52 0-22 7-43 18-76 24v2c36-7 57-19 84-27 12-3 24-3 36 0z"/></svg>