<svg viewBox="0 0 48 48" xmlns="http://www.w3.org/2000/svg"><g fill="none" fill-rule="evenodd"><path fill="#F2F3F4" d="M0 0h48v48H0z"/><path d="M34.4 34.56H9.067c-.694 0-.694 0-.32-.587.373-.693.8-1.386 1.173-2.08.107-.213.267-.373.533-.426a1673.015 1673.015 0 0015.68-3.787c.96-.213 1.76 0 2.454.747 1.813 1.92 3.626 3.786 5.44 5.706.16.107.213.214.373.427zm5.227 0h-3.254c-.213 0-.32-.107-.426-.267-3.68-3.84-7.36-7.733-11.04-11.573-.747-.8-.96-1.6-.64-2.72.8-2.56 1.546-5.173 2.4-7.947 4.32 7.574 8.64 14.987 12.96 22.507z" fill="#EFA94D"/><path d="M11.04 29.973a501.838 501.838 0 013.2-5.493L21.44 12c.8-1.333 1.6-2.72 2.347-4.107.16-.32.266-.32.426 0 .427.8.907 1.547 1.334 2.347.16.267.106.48.053.693l-3.04 10.24-1.6 5.28c-.267.854-.8 1.387-1.707 1.547-2.666.64-5.386 1.28-8.053 1.92.053.107 0 .053-.16.053z" fill="#9D9FA2"/></g></svg>