<svg xmlns="http://www.w3.org/2000/svg" viewBox="0 0 48 48"><path fill="#EDEEEF" d="M0 0h48v48H0z"/><g fill="#EB8C35"><path d="M37 37.02c-.12-.34-.35-.57-.51-.88-.4-.52-.86-.97-1.33-1.42-.16-.05-.23-.21-.39-.27-.1-.13-.26-.2-.4-.3-.26-.2-.55-.37-.85-.54-.56-.36-1.25-.58-1.93-.82-.74-.18-1.51-.31-2.32-.42-.8-.12-1.6-.23-2.21-.54-.35-.1-.61-.3-.91-.45-.28-.19-.58-.34-.82-.57-.29-.17-.47-.46-.69-.69-.08-.16-.21-.25-.27-.42-.08-.03-.1-.12-.15-.18-.05-.06-.05-.19-.15-.21-.05.32-.03.7 0 1.02.04.14.05.31.09.45.02.12.14.33.09.42-2.42-.12-4.19-.89-5.73-1.9-.76-.5-1.41-1.12-2.02-1.78-.26-.36-.55-.71-.78-1.12-.24-.4-.44-.85-.66-1.27-.36-.91-.69-1.84-.82-2.98-.16-1.06-.12-2.42.12-3.41.09-.54.26-1 .42-1.48.1-.22.21-.43.3-.66.13-.19.2-.44.36-.61.44-.83 1.1-1.45 1.78-2.05.73-.54 1.56-.97 2.56-1.23.96-.22 2.27-.26 3.32-.03 2.11.43 3.7 1.38 5.04 2.59 1.35 1.19 2.39 2.69 3.11 4.53.74 1.74.99 4.45.33 6.42-.27-.16-.54-.3-.82-.45-.33-.09-.64-.2-1.02-.24-.46-.01-.91 0-1.2.15.6-.06 1.08.1 1.45.24.22.09.34.14.51.24.33.19.63.37.88.64.71.62 1.21 1.44 1.45 2.53 0 .03.04.02.03-.03a.09.09 0 00.06-.06c.04-.05.09-.09.12-.15.08-.09.16-.19.21-.3.16-.19.3-.41.42-.64.29-.42.5-.9.75-1.36.43-.98.78-2.03.99-3.23.43-2.66-.09-5.17-.99-7.03-.93-1.87-2.24-3.37-3.92-4.5-1.7-1.12-3.69-1.94-6.42-2.02-.02-.05-.04.01-.09 0-1.44-.05-2.61.16-3.77.45-.54.18-1.09.33-1.57.57-.54.18-.98.47-1.48.69-.18.17-.45.26-.64.42-.24.12-.42.3-.66.42-.39.34-.8.64-1.18.99-.37.34-.7.73-1.06 1.09-.05.12-.15.21-.24.3-.06.12-.14.22-.24.3-.04.14-.16.19-.21.33-.1.08-.12.23-.24.3-.1.25-.28.43-.4.66-.14.23-.25.47-.39.69-.22.5-.45.99-.63 1.54-.19.53-.34 1.09-.45 1.69-.12.57-.23 1.3-.21 1.9-.08.22-.02.62 0 .88 0 .05-.03.06-.03.09 0 .29.08.64.09.82.06.66.18 1.27.36 1.81.12.6.36 1.06.54 1.6.27.45.46.99.78 1.39.24.47.58.85.91 1.23.35.37.7.75 1.12 1.06.77.67 1.67 1.2 2.66 1.66 1.84.89 4.59 1.48 7.06 1.33.63-.09 1.27-.16 1.84-.3.53-.19 1.14-.31 1.78-.39 1.45-.09 2.71.04 3.83.36 1.13.3 2.11.76 2.96 1.36.45.26.82.61 1.2.93.39.33.7.75 1.06 1.12.05.14.14.24.21.36.09.1.05.33.27.3.14-.14-.02-.34-.03-.51-.09-.11-.12-.31-.23-.43z"/><path d="M31.36 28.76c-.03 0-.04.02-.06.03-.05.12-.03.3 0 .42.16.33.22.77.57.91.17-.05.16-.3.15-.54-.08-.3-.19-.56-.36-.75-.13-.06-.21-.13-.3-.07zm-2.11.84c0-.02-.02-.03-.03 0-.3-.04-.4.12-.54.24-.26.68.16 1.34.88 1.33.29-.07.47-.26.51-.57-.04-.57-.28-.93-.82-1z"/></g></svg>