<svg version="1.1" id="Layer_1" xmlns="http://www.w3.org/2000/svg" x="0" y="0" viewBox="0 0 48 48" xml:space="preserve"><style>.st0{fill:#fbd300}.st2{fill:#232021}</style><path class="st0" d="M0 0h47.99v47.99H0z"/><g id="_x39_ajo9A_1_"><path d="M23.97 39.43c-1.79 0-3.58-.01-5.38.01-.45 0-.62-.11-.62-.6.02-2.73 0-5.46.01-8.19 0-.39-.12-.66-.41-.92-1.59-1.41-3.16-2.84-4.76-4.25-.28-.25-.4-.52-.4-.88.01-2.57.01-5.13 0-7.7 0-.45.13-.63.6-.6.56.04 1.13-.01 1.69.02.37.01.49-.14.48-.49-.01-.56.01-1.13-.01-1.69-.02-.37.13-.48.48-.47.61.03 1.23.01 1.84.03.33.01.47-.13.46-.46-.01-.56.01-1.13-.01-1.7-.01-.33.09-.46.44-.45.61.02 1.23-.01 1.84.01.35.01.5-.12.49-.48-.02-.55 0-1.1-.01-1.65-.01-.3.11-.43.43-.42 1.89.01 3.78.01 5.67 0 .36 0 .44.14.42.46-.02.52.02 1.04-.01 1.55-.03.48.18.58.6.56.6-.03 1.19 0 1.79-.01.31-.01.43.1.42.43-.02.52.01 1.03-.01 1.55-.01.44.12.66.61.63.58-.03 1.16.01 1.74-.01.33-.01.47.13.47.46-.01.57.01 1.13-.01 1.7-.01.33.09.47.43.46.63-.02 1.26.01 1.89 0 .33-.01.45.09.45.43-.01 2.63-.02 5.26-.01 7.9 0 .32-.11.54-.35.75-1.62 1.47-3.23 2.96-4.85 4.44-.27.25-.38.5-.37.88.02 2.74 0 5.49 0 8.23 0 .39-.16.5-.52.5-1.84-.01-3.68 0-5.52 0v-.03zm1.18-8.94V24.2c0-.7-.02-.72-.74-.73-.4 0-.81.01-1.21 0-.32-.01-.42.11-.42.43.02.85 0 1.71 0 2.57 0 3.45 0 6.91-.01 10.36 0 .45.11.67.6.61.37-.04.74-.01 1.11-.01.65 0 .65-.01.65-.64.02-2.1.02-4.2.02-6.3zm-2.36-13.74c0 1.95.01 3.91-.01 5.86 0 .3.08.39.38.38.52-.02 1.03-.03 1.55 0 .36.02.47-.08.46-.45-.02-2.23-.01-4.46-.01-6.68 0-1.61-.01-3.23.01-4.84.01-.37-.11-.47-.46-.45-.5.03-1 .03-1.5 0-.34-.02-.43.07-.43.42.01 1.91.01 3.83.01 5.76zm-.42 2.6v-5.81c0-.22.03-.42-.3-.41-.6.02-1.19.01-1.79 0-.24 0-.29.11-.29.32 0 3.9.01 7.81 0 11.71 0 .26.08.34.33.33.52-.01 1.04-.05 1.55 0 .46.04.52-.14.51-.54-.02-1.85-.01-3.72-.01-5.6zm3.21-.06c0 1.94 0 3.87-.01 5.81 0 .3.05.43.39.41.55-.03 1.1-.01 1.64 0 .22 0 .34-.03.34-.31-.01-3.9-.01-7.81 0-11.71 0-.29-.1-.36-.36-.35-.52.01-1.03.03-1.55 0-.36-.02-.46.08-.46.45.03 1.9.01 3.8.01 5.7zm-5.6 12.36c.01 0 .01 0 0 0 0 1.76.01 3.52 0 5.28 0 .31.03.53.44.5.43-.03.87-.01 1.31-.01.65.01.65.01.65-.63v-8.92c0-.55-.01-1.1 0-1.65.01-.31-.12-.43-.44-.41-.43.03-.87.01-1.31.01-.65 0-.65 0-.65.64.01 1.73 0 3.46 0 5.19zm-.41-9.36c0-2.05-.01-4.1.01-6.15 0-.38-.11-.46-.46-.44-.5.03-1 .03-1.5 0-.34-.02-.42.08-.42.42.01 3.37.01 6.74 0 10.12 0 .28.09.48.3.67.57.53 1.11 1.08 1.68 1.6.11.1.13.37.32.28.15-.07.06-.29.06-.45.01-2.01.01-4.03.01-6.05zm8.81 6.48l.24.18c.59-.67 1.16-1.34 1.77-1.99.22-.24.35-.45.34-.79-.02-1.42-.01-2.84-.01-4.26 0-1.87-.02-3.74.02-5.61.01-.5-.14-.64-.61-.59-.4.04-.81.04-1.21 0-.44-.04-.56.11-.56.55.02 3.97.01 7.94.01 11.91.01.19.01.39.01.6zm-.42 2.93c0-1.78-.01-3.55.01-5.33 0-.38-.13-.54-.5-.53-.42 0-.84 0-1.26.01-.64 0-.65.01-.65.65v10.46c0 .31.11.5.45.49.5-.01 1-.04 1.5-.02.36.01.46-.13.46-.49-.02-1.75-.01-3.5-.01-5.24zm-11.19-5.38v-7.74c0-.24-.13-.25-.3-.25-.58.01-1.16.02-1.74 0-.28-.01-.31.12-.31.35.01 1.77.01 3.55 0 5.32 0 .19.05.33.2.46.69.58 1.38 1.18 2.15 1.86zm14.49-.09l2.17-1.9c.12-.1.09-.23.09-.36 0-1.77-.01-3.55.01-5.32 0-.3-.12-.34-.37-.33-.52.02-1.03.03-1.55 0-.36-.03-.45.08-.45.44.02 2.34.01 4.67.01 7.01.01.14-.04.29.09.46z" fill="#fafaf8"/><path class="st0" d="M25.15 30.49v6.29c0 .63 0 .63-.65.64-.37 0-.75-.03-1.11.01-.49.05-.61-.17-.6-.61.01-3.45.01-6.91.01-10.36 0-.86.02-1.71 0-2.57-.01-.32.1-.44.42-.43.4.02.81 0 1.21 0 .72 0 .74.02.74.73v4.31c-.02.67-.02 1.33-.02 1.99z"/><path class="st2" d="M22.79 16.75c0-1.92.01-3.84-.01-5.76 0-.35.09-.44.43-.42.5.03 1 .03 1.5 0 .36-.02.47.07.46.45-.02 1.61-.01 3.23-.01 4.84 0 2.23-.01 4.46.01 6.68 0 .37-.1.47-.46.45-.51-.03-1.03-.02-1.55 0-.3.01-.38-.08-.38-.38.01-1.96.01-3.91.01-5.86zm-.42 2.6c0 1.87-.01 3.74.01 5.61 0 .4-.05.59-.51.54-.51-.05-1.03-.02-1.55 0-.25.01-.33-.08-.33-.33.01-3.9.01-7.81 0-11.71 0-.22.05-.33.29-.32.6.01 1.19.01 1.79 0 .33-.01.3.2.3.41v5.8zm3.21-.06c0-1.9.01-3.81-.01-5.71 0-.37.1-.47.46-.45.51.03 1.03.02 1.55 0 .26-.01.37.06.36.35-.01 3.9-.01 7.81 0 11.71 0 .28-.11.31-.34.31-.55-.01-1.1-.03-1.64 0-.34.02-.39-.11-.39-.41.02-1.92.01-3.86.01-5.8z"/><path class="st0" d="M19.98 31.65v-5.18c0-.63 0-.63.65-.64.44 0 .87.01 1.31-.01.32-.02.44.1.44.41-.01.55 0 1.1 0 1.65v8.92c0 .64 0 .64-.65.63-.44 0-.87-.03-1.31.01-.41.03-.44-.19-.44-.5.01-1.77.01-3.53 0-5.29.01 0 .01 0 0 0z"/><path class="st2" d="M19.57 22.29v6.05c0 .15.09.37-.06.45-.19.09-.22-.18-.32-.28-.57-.53-1.11-1.08-1.68-1.6-.2-.19-.3-.39-.3-.67.01-3.37.01-6.74 0-10.12 0-.34.08-.44.42-.42.5.03 1 .03 1.5 0 .35-.02.46.06.46.44-.03 2.06-.02 4.1-.02 6.15zm8.81 6.48v-.61c0-3.97.01-7.94-.01-11.91 0-.44.11-.59.56-.55.4.04.81.04 1.21 0 .47-.05.62.08.61.59-.03 1.87-.02 3.74-.02 5.61 0 1.42-.01 2.84.01 4.26.01.34-.12.56-.34.79-.61.65-1.18 1.32-1.77 1.99-.09-.05-.17-.11-.25-.17z"/><path class="st0" d="M27.96 31.7c0 1.74-.01 3.49.01 5.23 0 .35-.1.5-.46.49-.5-.01-1 .01-1.5.02-.34.01-.45-.18-.45-.49V26.49c0-.64.01-.64.65-.65.42 0 .84 0 1.26-.01.36 0 .5.15.5.53-.02 1.79-.01 3.57-.01 5.34z"/><path class="st2" d="M16.77 26.32c-.77-.67-1.46-1.28-2.15-1.87a.55.55 0 01-.2-.46c.01-1.77.01-3.55 0-5.32 0-.23.03-.36.31-.35.58.02 1.16.01 1.74 0 .18 0 .3.01.3.25v7.75zm14.49-.09c-.13-.17-.09-.32-.09-.46 0-2.34.01-4.67-.01-7.01 0-.36.09-.47.45-.44.51.04 1.03.02 1.55 0 .25-.01.37.04.37.33-.01 1.77-.01 3.55-.01 5.32 0 .13.02.26-.09.36-.72.64-1.44 1.27-2.17 1.9z"/></g></svg>