<svg viewBox="0 0 48 48" xmlns="http://www.w3.org/2000/svg"><g fill="none" fill-rule="evenodd"><path fill="#DDD" d="M0 0h48v48H0z"/><path d="M23.264 13.6c4.39 0 7.979 3.579 7.979 7.979 0 4.389-3.579 7.978-7.979 7.978-4.39 0-7.979-3.578-7.979-7.978.011-4.4 3.59-7.979 7.979-7.979z" fill="#DDD"/><path d="M39.2 39.152H20.07V20.027c0-.027.02-.048.047-.048s.038.021.048.048a28.204 28.204 0 0019.03 19.029c.026.01.048.021.048.048.005.027-.016.048-.043.048z" fill="#ED1B2E"/><path d="M10.49 10.341v15.824h6.198a7.954 7.954 0 01-1.44-4.57 8 8 0 018-8 7.996 7.996 0 016.56 12.57h6.23V10.341H10.49z" fill="#000"/></g></svg>