<svg viewBox="0 0 48 48" xmlns="http://www.w3.org/2000/svg"><g fill="none" fill-rule="evenodd"><path fill="#F2F3F4" d="M0 0h48v48H0z"/><path d="M23.04 13.227h1.92c3.147.106 6.293.64 9.28 1.76 1.227.48 2.347 1.013 3.467 1.706 1.066.694 2.08 1.44 2.933 2.4.693.8 1.333 1.707 1.707 2.72a6.93 6.93 0 01.373 1.76v.854c-.053.586-.213 1.173-.373 1.706a8.305 8.305 0 01-1.707 2.774c-.747.853-1.653 1.546-2.56 2.186-2.08 1.334-4.373 2.24-6.773 2.827-3.467.853-7.147 1.067-10.667.693-2.987-.32-5.92-1.066-8.64-2.346-1.333-.64-2.613-1.44-3.68-2.4-.907-.8-1.707-1.76-2.293-2.88-.48-.96-.747-2.027-.694-3.094 0-1.333.48-2.613 1.227-3.68a11.04 11.04 0 012.56-2.666c1.493-1.174 3.2-2.027 4.96-2.667 2.827-1.067 5.92-1.547 8.96-1.653zm-.213.213c-2.72.107-5.387.533-8 1.387-1.814.586-3.574 1.386-5.12 2.453-1.334.96-2.56 2.08-3.36 3.52-.64 1.173-.96 2.507-.8 3.84.16 1.333.746 2.56 1.546 3.627 1.014 1.28 2.347 2.293 3.734 3.093 1.386.8 2.826 1.387 4.32 1.867a30.25 30.25 0 009.28 1.28c3.093-.054 6.186-.534 9.12-1.547 2.08-.747 4.053-1.707 5.706-3.093.907-.747 1.707-1.6 2.294-2.614a6.558 6.558 0 00.906-3.306c0-1.067-.32-2.134-.8-3.094-.533-1.013-1.28-1.866-2.133-2.613a15.223 15.223 0 00-3.093-2.133 25.094 25.094 0 00-4.32-1.707c-1.654-.48-3.36-.747-5.067-.96-1.333 0-2.773-.053-4.213 0zM9.813 18.933H17.6v2.347h-4.533c-.374.587-.747 1.227-.854 1.92-.053.32-.053.693-.053 1.013.053.854.373 1.654.907 2.347h4.64v2.187h-8.32c-.854-.854-1.547-1.867-1.92-2.987a6.281 6.281 0 01-.16-3.147c.213-.8.533-1.546.96-2.186.373-.534.746-1.067 1.28-1.44 0-.107.16-.054.266-.054zm8.854 0h3.253c.053 0 .107 0 .107.054v3.52h3.946c.054 0 .16 0 .107-.054v-3.52h3.253V28.8H26.08c0-1.333-.053-2.667-.053-3.947h-4.054c0 1.334 0 2.667-.053 3.947h-3.307c.054-3.307.054-6.56.054-9.867zm11.786 0h8.054c.693.694 1.386 1.44 1.76 2.347h-4.96v7.52c-1.654 0-3.254.053-4.907.053.053-3.306.053-6.613.053-9.92zM10.347 29.76h27.36c-2.187 1.6-4.747 2.613-7.36 3.253-1.707.374-3.467.64-5.174.694-3.36.106-6.773-.267-9.973-1.334-1.493-.533-2.88-1.173-4.16-2.08-.213-.213-.48-.373-.693-.533z" fill="#B69768" fill-rule="nonzero"/><path d="M21.493 14.347c.694-.054 1.387-.054 2.134-.107 2.826 0 5.6.32 8.32 1.12a18.251 18.251 0 014.32 1.867c.32.213.693.426 1.013.693H10.773c1.12-.8 2.347-1.493 3.627-1.973 2.24-.96 4.693-1.44 7.093-1.6z" fill="#0055A0"/></g></svg>