<svg viewBox="0 0 48 48" xmlns="http://www.w3.org/2000/svg"><g fill="none" fill-rule="evenodd"><path fill="#4EBBF2" d="M0 0h48v48H0z"/><path d="M36.747 10.507h1.173c.48.053.907.106 1.387.213-1.174 1.813-2.347 3.68-3.52 5.493a163.356 163.356 0 012.346-4.16c-1.706-.16-3.466.214-4.853 1.174-.747.533-1.28 1.333-1.76 2.08-1.44 2.186-2.667 4.48-4.053 6.666-1.014 1.6-2.027 3.147-3.254 4.534-.64.64-1.333 1.333-2.186 1.6-.747.213-1.547.213-2.347.32.747-.16 1.6-.107 2.293-.48 1.067-.64 1.867-1.6 2.56-2.614 2.614-3.68 4.374-7.84 6.667-11.68-2.773-1.92-6.293-2.613-9.547-1.866-2.72.586-5.12 2.186-6.88 4.373a5.24 5.24 0 00-2.56.32c1.12-1.653 2.56-3.04 4.267-4.053 2.347-1.387 5.12-1.974 7.84-1.707 2.507.213 4.96 1.28 6.933 2.88 1.067-1.92 3.307-2.933 5.494-3.093zm-25.76 8.106c-.96 2.347-1.227 4.907-.694 7.414.48 2.506 1.76 4.853 3.574 6.666 3.36 3.52 8.906 4.747 13.44 3.04 2.186-.853 4.266-2.186 5.706-4.053-2.24 1.013-4.8 1.28-7.2.907-4.373-.694-8.586-3.307-10.72-7.2-.906-1.654-1.6-3.627-.96-5.547.32-.907.8-1.973 1.76-2.293-.906-.32-1.813-.587-2.773-.427-.907.107-1.76.64-2.133 1.493zm24.586.587c-.746.107-1.493.267-2.08.693-1.013.747-1.813 1.707-2.613 2.667-1.333 1.653-2.667 3.2-4.053 4.8-.64.747-1.387 1.493-2.347 1.813-1.227.427-2.56.374-3.84.16.8.534 1.653 1.067 2.56 1.494 1.6.213 3.253-.32 4.587-1.174 2.08-1.28 3.573-3.253 5.706-4.48.694-.426 1.44-.8 2.24-.906 1.227-1.547 2.454-3.2 3.627-4.8-1.28-.267-2.56-.374-3.787-.267z" fill="#FFF" fill-rule="nonzero"/><path d="M35.68 24.213c1.227-.213 2.453.054 3.573.587-1.386 1.867-2.773 3.733-4.426 5.387-1.334 1.386-3.36 1.92-5.227 1.973-2.24.053-4.48-.373-6.453-1.333 1.6.213 3.253-.32 4.586-1.174 2.08-1.28 3.574-3.253 5.707-4.48.693-.48 1.44-.853 2.24-.96z" fill="#EC1C2B"/></g></svg>