<svg viewBox="0 0 48 48" xmlns="http://www.w3.org/2000/svg"><g fill="none" fill-rule="evenodd"><path fill="#0078DC" d="M0 0h48v48H0z"/><g fill="#FFF"><path d="M6.773 19.947v-4c0-.214 0-.267.214-.267h2.186c.214 0 .214 0 .214.213v2.56c0 .214 0 .214.213.214h.533c.16 0 .267-.054.267-.214.107-.48.267-.906.48-1.28.48-.8 1.173-1.28 2.08-1.493 1.173-.267 2.347-.267 3.467.267.853.426 1.386 1.066 1.76 1.92.32.746.426 1.493.373 2.293-.053.8-.213 1.653-.64 2.347-.48.746-1.12 1.28-2.027 1.546-.96.32-2.026.32-3.093-.053-.96-.32-1.6-1.013-1.973-1.92-.107-.32-.214-.64-.267-.96-.053-.16-.107-.213-.213-.213H9.76c-.213 0-.213 0-.213.213v2.773c0 .267 0 .267-.267.267H7.147c-.214 0-.214 0-.214-.213-.16-1.334-.16-2.667-.16-4zm6.134.053c0 .373 0 .8.16 1.227.213.64.64.96 1.28 1.013.693 0 1.226-.32 1.44-.96.32-.853.266-1.653.053-2.507-.16-.586-.587-.96-1.173-1.013-.587-.053-1.227.107-1.494.8-.266.427-.32.907-.266 1.44zM24.32 30.56v-5.333c0-.267 0-.267.267-.267h3.68c.746 0 1.44.16 2.133.48.8.427 1.387 1.013 1.653 1.92a5.84 5.84 0 010 3.573c-.373 1.174-1.173 1.867-2.346 2.187-.534.16-1.067.213-1.654.213h-.96c-.266 0-.266 0-.266.32v2.294c0 .266 0 .266-.267.266h-2.133c-.214 0-.214 0-.214-.213.107-1.813.107-3.627.107-5.44zm2.613-1.44v1.76c0 .107 0 .16.107.16.427 0 .853 0 1.28-.053.64-.054 1.067-.48 1.227-1.067.106-.533.16-1.12 0-1.653-.16-.534-.48-.907-1.014-.96-.48-.054-.96-.054-1.44-.107-.16 0-.213.053-.213.213.053.534.053 1.12.053 1.707z" fill-rule="nonzero"/><path d="M21.973 20.907v2.933c0 .267 0 .267-.266.267H19.52c-.16 0-.213-.054-.213-.214v-8c0-.16.053-.213.213-.213h2.133c.214 0 .214 0 .214.213V18.4c0 .213 0 .213.266.213h1.974c.213 0 .213 0 .213-.213v-2.507c0-.266 0-.266.267-.266h2.24c.16 0 .213.053.213.213v8c0 .213 0 .213-.213.213h-2.24c-.214 0-.214 0-.214-.213v-2.773c0-.16-.053-.214-.213-.214-.747.107-1.493.054-2.187.054z"/><path d="M41.227 28.96c0 .96-.107 1.707-.48 2.453-.427.854-1.067 1.44-1.974 1.76-.8.32-1.653.374-2.506.267a4.001 4.001 0 01-1.6-.48c-.694-.427-1.227-1.013-1.494-1.76a5.673 5.673 0 01-.32-2.667c.054-.64.214-1.226.48-1.76.427-.8 1.067-1.386 1.92-1.706.8-.32 1.654-.374 2.507-.267.64.053 1.173.267 1.707.587.8.48 1.28 1.226 1.546 2.08.16.48.214 1.066.214 1.493zm-5.76.213c.053.374.053.694.16 1.067.053.373.213.747.586.96.747.48 1.974.32 2.294-.853.213-.694.16-1.44.053-2.134-.053-.32-.16-.64-.427-.906-.746-.694-2.026-.374-2.346.586-.267.374-.32.8-.32 1.28z" fill-rule="nonzero"/><path d="M35.36 19.893v3.947c0 .267 0 .267-.267.267h-3.84a4.955 4.955 0 01-1.546-.267A2.756 2.756 0 0128 22.027c-.16-.48-.213-.96-.213-1.494v-4.586c0-.267 0-.267.266-.267h2.134c.213 0 .213 0 .213.213v4.694c0 .213.053.373.053.586.107.427.427.64.907.64h1.12c.213 0 .213 0 .213-.213v-5.547c0-.373 0-.32.32-.32h1.974c.266 0 .266 0 .266.267.107 1.28.107 2.613.107 3.893zm-19.467 9.174v-3.894c0-.266 0-.266.267-.266H20c.533 0 1.013.106 1.493.266.854.32 1.44.907 1.707 1.814a5.5 5.5 0 01.213 1.6v4.533c0 .213 0 .213-.213.213h-2.133c-.214 0-.214 0-.214-.213v-4.533c0-.214 0-.427-.053-.587-.107-.48-.427-.747-1.013-.747h-1.12c-.107 0-.16.054-.16.16v5.76c0 .214 0 .214-.214.214H16.16c-.213 0-.213 0-.213-.214-.054-1.44-.054-2.773-.054-4.106z"/></g></g></svg>