<svg id="Слой_1" data-name="Слой 1" xmlns="http://www.w3.org/2000/svg" viewBox="0 0 48 48"><defs><style>.cls-1{fill:#fff;fill-rule:evenodd}</style><mask id="mask" x="18.77" y="19.94" width="23.15" height="10.24" maskUnits="userSpaceOnUse"><g id="mask-2"><path id="path-1" class="cls-1" d="M18.77 30.18h23.15V19.94H18.77v10.24z"/></g></mask></defs><g id="VTBR"><path fill="#002671" d="M0 0h48v48H0z"/><g id="vtb_ru" data-name="vtb ru"><path id="Fill-1" d="M8.52 17.4l-.61 1.67h8.46L17 17.4zm-.91 2.51L7 21.58h8.45l.61-1.67zm-.92 2.5l-.61 1.67h8.46l.61-1.67z" fill="#009ddb" fill-rule="evenodd"/><g mask="url(#mask)"><path id="Fill-2" class="cls-1" d="M24.06 24.72a3.67 3.67 0 011 .54 2.44 2.44 0 01.86 2 2.61 2.61 0 01-2 2.74 5 5 0 01-1.48.15h-3.67V19.94H22a5.8 5.8 0 011.53.14 2.4 2.4 0 011.95 2.43 2.28 2.28 0 01-.65 1.66 2.36 2.36 0 01-.77.55zm-3.25 1.08v2.69h1.4a1.47 1.47 0 001.09-.3 1.3 1.3 0 00.41-1 1.29 1.29 0 00-1.57-1.35zm0-1.77h1.14a2.66 2.66 0 00.71-.05 1.13 1.13 0 00.77-1.16 1 1 0 00-.77-1.13 3 3 0 00-.78-.07h-1.09zm8.14 6.15v-8.52H26v-1.72h8.16l-.58 1.72H31v8.52zm5.85 0V19.94h6.61l-.58 1.72h-4v2.26h1.64a3.52 3.52 0 012.48.73 3.06 3.06 0 011 2.43 2.93 2.93 0 01-1.2 2.53 4.21 4.21 0 01-2.65.57zm2-1.72h1.53a1.34 1.34 0 001.18-.46 1.53 1.53 0 00.3-1 1.37 1.37 0 00-.53-1.17 1.51 1.51 0 00-1-.24H36.8z"/></g></g></g></svg>